<?xml version="1.0" encoding="UTF-8" standalone="no"?>
<!DOCTYPE svg PUBLIC "-//W3C//DTD SVG 1.1//EN" "http://www.w3.org/Graphics/SVG/1.1/DTD/svg11.dtd">
<svg class="dread" width="100%" height="100%" viewBox="0 0 42 45" version="1.1" xmlns="http://www.w3.org/2000/svg" xmlns:xlink="http://www.w3.org/1999/xlink" xml:space="preserve" xmlns:serif="http://www.serif.com/" style="fill-rule:evenodd;clip-rule:evenodd;stroke-linejoin:round;stroke-miterlimit:2;">
    <g transform="matrix(3.70142,0,0,3.70142,27.7081,45)">
        <path d="M0,-1.9L0,-1.496C0,-1.404 -0.073,-1.332 -0.164,-1.332C-0.255,-1.332 -0.328,-1.404 -0.328,-1.496L-0.328,-1.9L-0.869,-1.9L-0.869,-1.496C-0.869,-1.404 -0.942,-1.332 -1.033,-1.332C-1.124,-1.332 -1.197,-1.404 -1.197,-1.496L-1.197,-1.9L-1.737,-1.9L-1.737,-1.496C-1.737,-1.404 -1.81,-1.332 -1.901,-1.332C-1.992,-1.332 -2.065,-1.404 -2.065,-1.496L-2.065,-1.9L-2.576,-1.9L-2.576,-1.496C-2.576,-1.404 -2.649,-1.332 -2.74,-1.332C-2.831,-1.332 -2.904,-1.404 -2.904,-1.496L-2.904,-1.9L-3.444,-1.9L-3.444,-1.496C-3.444,-1.404 -3.517,-1.332 -3.608,-1.332C-3.699,-1.332 -3.772,-1.404 -3.772,-1.496L-3.772,-1.9L-4.172,-1.9C-4.157,-0.841 -3.721,0 -2.547,0L-1.081,0C0.093,0 0.529,-0.841 0.544,-1.9L0,-1.9Z" style="fill:rgb(35,31,32);fill-rule:nonzero;"/>
    </g>
    <g transform="matrix(3.70142,0,0,3.70142,33.3905,14.6687)">
        <path d="M0,1.898C-0.163,2.929 -0.869,2.279 -1.249,2.279C-1.628,2.279 -2.66,2.496 -2.605,0.65C-2.605,0.65 -1.249,0.162 -0.76,0.488C-0.271,0.812 0.163,0.867 0,1.898M-5.45,2.279C-5.83,2.279 -6.535,2.929 -6.698,1.898C-6.861,0.867 -6.427,0.812 -5.938,0.488C-5.45,0.162 -4.093,0.65 -4.093,0.65C-4.039,2.496 -5.07,2.279 -5.45,2.279M-2.779,-3.963L-3.919,-3.963C-3.919,-3.963 -9.021,-3.475 -9.021,0.705C-9.021,4.884 -7.23,4.992 -7.23,4.992C-7.23,4.992 -6.085,5.117 -5.784,5.861L-5.307,5.861L-5.307,5.457C-5.307,5.365 -5.234,5.293 -5.143,5.293C-5.052,5.293 -4.979,5.365 -4.979,5.457L-4.979,5.861L-4.439,5.861L-4.439,5.457C-4.439,5.365 -4.366,5.293 -4.275,5.293C-4.184,5.293 -4.111,5.365 -4.111,5.457L-4.111,5.861L-3.6,5.861L-3.6,5.457C-3.6,5.365 -3.527,5.293 -3.436,5.293C-3.345,5.293 -3.272,5.365 -3.272,5.457L-3.272,5.861L-2.732,5.861L-2.732,5.457C-2.732,5.365 -2.659,5.293 -2.568,5.293C-2.477,5.293 -2.404,5.365 -2.404,5.457L-2.404,5.861L-1.863,5.861L-1.863,5.457C-1.863,5.365 -1.79,5.293 -1.699,5.293C-1.608,5.293 -1.535,5.365 -1.535,5.457L-1.535,5.861L-0.914,5.861C-0.613,5.117 0.532,4.992 0.532,4.992C0.532,4.992 2.323,4.884 2.323,0.705C2.323,-3.475 -2.779,-3.963 -2.779,-3.963" style="fill:rgb(35,31,32);fill-rule:nonzero;"/>
    </g>
</svg>
