<?xml version="1.0" encoding="UTF-8" standalone="no"?>
<!DOCTYPE svg PUBLIC "-//W3C//DTD SVG 1.1//EN" "http://www.w3.org/Graphics/SVG/1.1/DTD/svg11.dtd">
<svg width="100%" height="100%" viewBox="0 0 127 130" version="1.1" xmlns="http://www.w3.org/2000/svg" xmlns:xlink="http://www.w3.org/1999/xlink" xml:space="preserve" xmlns:serif="http://www.serif.com/" style="fill-rule:evenodd;clip-rule:evenodd;stroke-linejoin:round;stroke-miterlimit:2;">
    <g transform="matrix(4.16667,0,0,4.16667,-622.404,-1432.24)">
        <path d="M149.377,374.732L179.663,374.732L179.663,343.738L149.377,343.738L149.377,374.732ZM156.459,372.434L158.584,367.299L160.265,367.299C159.878,366.79 159.647,366.162 159.647,365.478L159.647,356.012C159.647,354.926 160.223,353.971 161.083,353.43C160.108,352.649 159.468,351.463 159.468,350.118C159.468,347.772 161.375,345.867 163.719,345.867C166.067,345.867 167.97,347.772 167.97,350.118C167.97,351.463 167.329,352.649 166.354,353.43C167.215,353.971 167.791,354.926 167.791,356.012L167.791,365.478C167.791,366.162 167.56,366.79 167.177,367.299L168.858,367.299L170.983,372.434L156.459,372.434Z" style="fill:rgb(35,31,32);fill-rule:nonzero;"/>
    </g>
</svg>
