<?xml version="1.0" encoding="UTF-8" standalone="no"?>
<!DOCTYPE svg PUBLIC "-//W3C//DTD SVG 1.1//EN" "http://www.w3.org/Graphics/SVG/1.1/DTD/svg11.dtd">
<svg id="NonStartSide" width="100%" height="100%" viewBox="0 0 188 188" version="1.1" xmlns="http://www.w3.org/2000/svg" xmlns:xlink="http://www.w3.org/1999/xlink" xml:space="preserve" xmlns:serif="http://www.serif.com/" style="fill-rule:evenodd;clip-rule:evenodd;stroke-linejoin:round;stroke-miterlimit:2;">
    <g id="Non-Starting-Side" serif:id="Non Starting Side">
        <path d="M48.792,174.1L61.95,143.038L72.354,143.038C69.963,139.95 68.525,136.158 68.525,132.017L68.525,74.771C68.525,68.2 72.092,62.442 77.421,59.163C71.383,54.429 67.421,47.254 67.421,39.117C67.421,24.921 79.225,13.4 93.738,13.4C108.275,13.4 120.054,24.921 120.054,39.117C120.054,47.254 116.092,54.429 110.054,59.163C115.383,62.442 118.95,68.2 118.95,74.771L118.95,132.017C118.95,136.158 117.513,139.95 115.146,143.038L125.554,143.038L138.713,174.1L48.792,174.1ZM187.5,0L0,0L0,187.5L187.5,187.5L187.5,0Z" style="fill:rgb(35,31,32);fill-rule:nonzero;"/>
    </g>
</svg>
