<?xml version="1.0" encoding="UTF-8" standalone="no"?>
<!DOCTYPE svg PUBLIC "-//W3C//DTD SVG 1.1//EN" "http://www.w3.org/Graphics/SVG/1.1/DTD/svg11.dtd">
<svg id="StartSide" width="100%" height="100%" viewBox="0 0 188 188" version="1.1" xmlns="http://www.w3.org/2000/svg" xmlns:xlink="http://www.w3.org/1999/xlink" xml:space="preserve" xmlns:serif="http://www.serif.com/" style="fill-rule:evenodd;clip-rule:evenodd;stroke-linejoin:round;stroke-miterlimit:2;">
    <g id="Starting-Side" serif:id="Starting Side" transform="matrix(4.16667,0,0,4.16667,-414.079,-789.617)">
        <g transform="matrix(1,0,0,1,1.187,0.123)">
            <path d="M109.902,231.169L113.06,223.714L115.557,223.714C114.983,222.973 114.638,222.063 114.638,221.069L114.638,207.33C114.638,205.753 115.494,204.371 116.773,203.584C115.324,202.448 114.373,200.726 114.373,198.773C114.373,195.366 117.206,192.601 120.689,192.601C124.178,192.601 127.005,195.366 127.005,198.773C127.005,200.726 126.054,202.448 124.605,203.584C125.884,204.371 126.74,205.753 126.74,207.33L126.74,221.069C126.74,222.063 126.395,222.973 125.827,223.714L128.325,223.714L131.483,231.169L109.902,231.169Z" style="fill:rgb(35,31,32);fill-rule:nonzero;"/>
        </g>
        <g transform="matrix(3.13573,0,0,4.90461,56.5856,-15.8765)">
            <rect x="13.647" y="41.876" width="14.351" height="9.175" style="fill:white;fill-opacity:0;"/>
        </g>
    </g>
</svg>
