<?xml version="1.0" encoding="UTF-8" standalone="no"?>
<!DOCTYPE svg PUBLIC "-//W3C//DTD SVG 1.1//EN" "http://www.w3.org/Graphics/SVG/1.1/DTD/svg11.dtd">
<svg id="strike" width="100%" height="100%" viewBox="0 0 122 140" version="1.1" xmlns="http://www.w3.org/2000/svg" xmlns:xlink="http://www.w3.org/1999/xlink" xml:space="preserve" xmlns:serif="http://www.serif.com/" style="fill-rule:evenodd;clip-rule:evenodd;stroke-linejoin:round;stroke-miterlimit:2;">
    <g transform="matrix(11.4943,0,0,11.4943,60.6092,140)">
        <path d="M0,-9.701L0.607,-8.324L0.903,-7.654L1.631,-7.733L3.127,-7.896L2.238,-6.681L1.806,-6.09L2.238,-5.499L3.127,-4.285L1.63,-4.448L0.903,-4.527L0.607,-3.857L0,-2.479L-0.607,-3.857L-0.902,-4.527L-1.63,-4.448L-3.127,-4.285L-2.238,-5.499L-1.806,-6.09L-2.238,-6.681L-3.127,-7.896L-1.63,-7.733L-0.902,-7.654L-0.607,-8.324L0,-9.701Z" style="fill:white;fill-rule:nonzero;"/>
    </g>
    <g transform="matrix(11.4943,0,0,11.4943,60.6092,140)">
        <path d="M0,-12.18L-1.522,-8.727L-5.273,-9.135L-3.045,-6.09L-5.273,-3.046L-1.522,-3.453L0,0L1.522,-3.453L5.273,-3.046L3.045,-6.09L5.273,-9.135L1.522,-8.727L0,-12.18ZM0,-9.701L0.607,-8.324L0.903,-7.654L1.631,-7.733L3.127,-7.896L2.238,-6.681L1.806,-6.09L2.238,-5.499L3.127,-4.285L1.63,-4.448L0.903,-4.527L0.607,-3.857L0,-2.479L-0.607,-3.857L-0.902,-4.527L-1.63,-4.448L-3.127,-4.285L-2.238,-5.499L-1.806,-6.09L-2.238,-6.681L-3.127,-7.896L-1.63,-7.733L-0.902,-7.654L-0.607,-8.324L0,-9.701Z" style="fill:rgb(35,31,32);fill-rule:nonzero;"/>
    </g>
</svg>
