<?xml version="1.0" encoding="UTF-8" standalone="no"?>
<!-- Created with Inkscape (http://www.inkscape.org/) -->

<svg
   version="1.1"
   id="svg9"
   xml:space="preserve"
   width="384"
   height="384"
   viewBox="0 0 384 384"
   sodipodi:docname="Piece Icon Format v1.svg"
   inkscape:version="1.1.1 (3bf5ae0d25, 2021-09-20)"
   xmlns:inkscape="http://www.inkscape.org/namespaces/inkscape"
   xmlns:sodipodi="http://sodipodi.sourceforge.net/DTD/sodipodi-0.dtd"
   xmlns="http://www.w3.org/2000/svg"
   xmlns:svg="http://www.w3.org/2000/svg"><defs
     id="defs13"><clipPath
       clipPathUnits="userSpaceOnUse"
       id="clipPath65"><path
         d="M 0,288 H 288 V 0 H 0 Z"
         id="path63" /></clipPath><clipPath
       clipPathUnits="userSpaceOnUse"
       id="clipPath125"><path
         d="M 0,288 H 288 V 0 H 0 Z"
         id="path123" /></clipPath><clipPath
       clipPathUnits="userSpaceOnUse"
       id="clipPath183"><path
         d="M 0,288 H 288 V 0 H 0 Z"
         id="path181" /></clipPath></defs><sodipodi:namedview
     id="namedview11"
     pagecolor="#ffffff"
     bordercolor="#666666"
     borderopacity="1.0"
     inkscape:pageshadow="2"
     inkscape:pageopacity="0.0"
     inkscape:pagecheckerboard="0"
     showgrid="false"
     inkscape:snap-text-baseline="true"
     inkscape:zoom="2.1328125"
     inkscape:cx="192"
     inkscape:cy="192"
     inkscape:window-width="1920"
     inkscape:window-height="1027"
     inkscape:window-x="-8"
     inkscape:window-y="-8"
     inkscape:window-maximized="1"
     inkscape:current-layer="g15" /><g
     id="g15"
     inkscape:groupmode="layer"
     inkscape:label="TheDuke_TileBuilder_1-CS4"
     transform="matrix(1.3333333,0,0,-1.3333333,0,384)"><path
       d="M 259.717,23.484 H 155.194 v 104.525 h 104.523 z"
       style="fill:#ffffff;fill-opacity:1;fill-rule:nonzero;stroke:#231f20;stroke-width:1.037;stroke-linecap:butt;stroke-linejoin:miter;stroke-miterlimit:4;stroke-dasharray:none;stroke-opacity:1"
       id="path17" /><path
       d="M 257.854,25.346 H 157.055 v 100.803 h 100.799 z"
       style="fill:#ffffff;fill-opacity:1;fill-rule:nonzero;stroke:#231f20;stroke-width:1;stroke-linecap:butt;stroke-linejoin:miter;stroke-miterlimit:4;stroke-dasharray:none;stroke-opacity:1"
       id="path19" /><path
       d="m 229.055,54.146 h -72 v 72.002 h 72 z"
       style="fill:none;stroke:#231f20;stroke-width:1;stroke-linecap:butt;stroke-linejoin:miter;stroke-miterlimit:4;stroke-dasharray:none;stroke-opacity:1"
       id="path21" /><g
       id="g23"
       transform="translate(157.0547,111.748)"><path
         d="M 0,0 H 71.967"
         style="fill:none;stroke:#231f20;stroke-width:1;stroke-linecap:butt;stroke-linejoin:miter;stroke-miterlimit:4;stroke-dasharray:none;stroke-opacity:1"
         id="path25" /></g><g
       id="g27"
       transform="translate(157.0547,97.3477)"><path
         d="M 0,0 H 71.967"
         style="fill:none;stroke:#231f20;stroke-width:1;stroke-linecap:butt;stroke-linejoin:miter;stroke-miterlimit:4;stroke-dasharray:none;stroke-opacity:1"
         id="path29" /></g><g
       id="g31"
       transform="translate(157.0547,82.9473)"><path
         d="M 0,0 H 71.967"
         style="fill:none;stroke:#231f20;stroke-width:1;stroke-linecap:butt;stroke-linejoin:miter;stroke-miterlimit:4;stroke-dasharray:none;stroke-opacity:1"
         id="path33" /></g><g
       id="g35"
       transform="translate(157.0547,68.5469)"><path
         d="M 0,0 H 71.967"
         style="fill:none;stroke:#231f20;stroke-width:1;stroke-linecap:butt;stroke-linejoin:miter;stroke-miterlimit:4;stroke-dasharray:none;stroke-opacity:1"
         id="path37" /></g><g
       id="g39"
       transform="translate(171.4375,54.1641)"><path
         d="M 0,0 V 71.967"
         style="fill:none;stroke:#231f20;stroke-width:1;stroke-linecap:butt;stroke-linejoin:miter;stroke-miterlimit:4;stroke-dasharray:none;stroke-opacity:1"
         id="path41" /></g><g
       id="g43"
       transform="translate(185.8379,54.1641)"><path
         d="M 0,0 V 71.967"
         style="fill:none;stroke:#231f20;stroke-width:1;stroke-linecap:butt;stroke-linejoin:miter;stroke-miterlimit:4;stroke-dasharray:none;stroke-opacity:1"
         id="path45" /></g><g
       id="g47"
       transform="translate(200.2383,54.1641)"><path
         d="M 0,0 V 71.967"
         style="fill:none;stroke:#231f20;stroke-width:1;stroke-linecap:butt;stroke-linejoin:miter;stroke-miterlimit:4;stroke-dasharray:none;stroke-opacity:1"
         id="path49" /></g><g
       id="g51"
       transform="translate(214.6367,54.1641)"><path
         d="M 0,0 V 71.967"
         style="fill:none;stroke:#231f20;stroke-width:1;stroke-linecap:butt;stroke-linejoin:miter;stroke-miterlimit:4;stroke-dasharray:none;stroke-opacity:1"
         id="path53" /></g><g
       id="g55"
       transform="translate(229.0547,126.1484)"><path
         d="M 0,0 V -100.658"
         style="fill:none;stroke:#231f20;stroke-width:1;stroke-linecap:butt;stroke-linejoin:miter;stroke-miterlimit:4;stroke-dasharray:none;stroke-opacity:1"
         id="path57" /></g><g
       id="g59"><g
         id="g61"
         clip-path="url(#clipPath65)"><g
           id="g67"
           transform="translate(189.2617,83.9492)"><path
             d="M 0,0 1,2.416 H 1.791 C 1.609,2.656 1.5,2.951 1.5,3.273 v 4.452 c 0,0.511 0.271,0.959 0.676,1.214 -0.459,0.368 -0.76,0.926 -0.76,1.559 0,1.104 0.897,2 2,2 1.105,0 2,-0.896 2,-2 C 5.416,9.865 5.115,9.307 4.656,8.939 5.061,8.684 5.332,8.236 5.332,7.725 V 3.273 C 5.332,2.951 5.223,2.656 5.043,2.416 H 5.834 L 6.834,0 Z m -3.332,-1.082 h 14.25 V 13.5 h -14.25 z"
             style="fill:#231f20;fill-opacity:1;fill-rule:nonzero;stroke:none"
             id="path69" /></g><path
           d="M 129.66,164.566 H 28.861 v 100.8 H 129.66 Z"
           style="fill:#ffffff;fill-opacity:1;fill-rule:nonzero;stroke:#231f20;stroke-width:1;stroke-linecap:butt;stroke-linejoin:miter;stroke-miterlimit:4;stroke-dasharray:none;stroke-opacity:1"
           id="path71" /><path
           d="m 100.861,193.366 h -72 v 72 h 72 z"
           style="fill:none;stroke:#231f20;stroke-width:1;stroke-linecap:butt;stroke-linejoin:miter;stroke-miterlimit:4;stroke-dasharray:none;stroke-opacity:1"
           id="path73" /><g
           id="g75"
           transform="translate(28.8613,250.9663)"><path
             d="M 0,0 H 71.967"
             style="fill:none;stroke:#231f20;stroke-width:1;stroke-linecap:butt;stroke-linejoin:miter;stroke-miterlimit:4;stroke-dasharray:none;stroke-opacity:1"
             id="path77" /></g><g
           id="g79"
           transform="translate(28.8613,236.5664)"><path
             d="M 0,0 H 71.967"
             style="fill:none;stroke:#231f20;stroke-width:1;stroke-linecap:butt;stroke-linejoin:miter;stroke-miterlimit:4;stroke-dasharray:none;stroke-opacity:1"
             id="path81" /></g><g
           id="g83"
           transform="translate(28.8613,222.166)"><path
             d="M 0,0 H 71.967"
             style="fill:none;stroke:#231f20;stroke-width:1;stroke-linecap:butt;stroke-linejoin:miter;stroke-miterlimit:4;stroke-dasharray:none;stroke-opacity:1"
             id="path85" /></g><g
           id="g87"
           transform="translate(28.8613,207.7666)"><path
             d="M 0,0 H 71.967"
             style="fill:none;stroke:#231f20;stroke-width:1;stroke-linecap:butt;stroke-linejoin:miter;stroke-miterlimit:4;stroke-dasharray:none;stroke-opacity:1"
             id="path89" /></g><g
           id="g91"
           transform="translate(43.2441,193.3828)"><path
             d="M 0,0 V 71.967"
             style="fill:none;stroke:#231f20;stroke-width:1;stroke-linecap:butt;stroke-linejoin:miter;stroke-miterlimit:4;stroke-dasharray:none;stroke-opacity:1"
             id="path93" /></g><g
           id="g95"
           transform="translate(57.6445,193.3828)"><path
             d="M 0,0 V 71.967"
             style="fill:none;stroke:#231f20;stroke-width:1;stroke-linecap:butt;stroke-linejoin:miter;stroke-miterlimit:4;stroke-dasharray:none;stroke-opacity:1"
             id="path97" /></g><g
           id="g99"
           transform="translate(72.0449,193.3828)"><path
             d="M 0,0 V 71.967"
             style="fill:none;stroke:#231f20;stroke-width:1;stroke-linecap:butt;stroke-linejoin:miter;stroke-miterlimit:4;stroke-dasharray:none;stroke-opacity:1"
             id="path101" /></g><g
           id="g103"
           transform="translate(86.4434,193.3828)"><path
             d="M 0,0 V 71.967"
             style="fill:none;stroke:#231f20;stroke-width:1;stroke-linecap:butt;stroke-linejoin:miter;stroke-miterlimit:4;stroke-dasharray:none;stroke-opacity:1"
             id="path105" /></g><g
           id="g107"
           transform="translate(100.8613,265.3662)"><path
             d="M 0,0 V -100.656"
             style="fill:none;stroke:#231f20;stroke-width:1;stroke-linecap:butt;stroke-linejoin:miter;stroke-miterlimit:4;stroke-dasharray:none;stroke-opacity:1"
             id="path109" /></g><g
           id="g111"
           transform="translate(66.9141,225.5435)"><path
             d="M 0,0 H -0.791 C -0.609,0.24 -0.5,0.535 -0.5,0.856 v 4.455 c 0,0.511 -0.271,0.959 -0.676,1.215 0.459,0.366 0.76,0.924 0.76,1.557 0,1.105 -0.897,2 -2,2 -1.105,0 -2,-0.895 -2,-2 0,-0.633 0.301,-1.191 0.76,-1.557 C -4.061,6.27 -4.332,5.822 -4.332,5.311 V 0.856 C -4.332,0.535 -4.223,0.24 -4.043,0 h -0.791 l -1,-2.417 H 1 Z"
             style="fill:#231f20;fill-opacity:1;fill-rule:nonzero;stroke:none"
             id="path113" /></g></g></g><text
       transform="matrix(1,0,0,-1,49.9287,171.6504)"
       style="font-variant:normal;font-weight:normal;font-stretch:normal;font-size:22px;font-family:'Pieces of Eight';-inkscape-font-specification:PiecesofEight;writing-mode:lr-tb;fill:#231f20;fill-opacity:1;fill-rule:nonzero;stroke:none"
       id="text117"><tspan
         x="0"
         sodipodi:role="line"
         id="tspan115"
         y="0">xxx</tspan></text><g
       id="g119"><g
         id="g121"
         clip-path="url(#clipPath125)"><path
           d="M 257.855,164.567 H 157.056 v 100.799 h 100.799 z"
           style="fill:#ffffff;fill-opacity:1;fill-rule:nonzero;stroke:#231f20;stroke-width:1;stroke-linecap:butt;stroke-linejoin:miter;stroke-miterlimit:4;stroke-dasharray:none;stroke-opacity:1"
           id="path127" /><path
           d="m 229.057,193.366 h -72 v 72 h 72 z"
           style="fill:none;stroke:#231f20;stroke-width:1;stroke-linecap:butt;stroke-linejoin:miter;stroke-miterlimit:4;stroke-dasharray:none;stroke-opacity:1"
           id="path129" /><g
           id="g131"
           transform="translate(189.4648,223.3359)"><path
             d="M 0,0 1,2.416 H 1.791 C 1.609,2.656 1.5,2.951 1.5,3.273 v 4.454 c 0,0.511 0.271,0.96 0.676,1.215 -0.459,0.367 -0.76,0.925 -0.76,1.558 0,1.104 0.897,2 2,2 1.105,0 2,-0.896 2,-2 C 5.416,9.867 5.115,9.309 4.656,8.942 5.061,8.687 5.332,8.238 5.332,7.727 V 3.273 C 5.332,2.951 5.223,2.656 5.043,2.416 H 5.834 L 6.834,0 Z m -3.332,-1.081 h 14.25 v 14.583 h -14.25 z"
             style="fill:#231f20;fill-opacity:1;fill-rule:nonzero;stroke:none"
             id="path133" /></g><g
           id="g135"
           transform="translate(157.0566,250.9668)"><path
             d="M 0,0 H 71.965"
             style="fill:none;stroke:#231f20;stroke-width:1;stroke-linecap:butt;stroke-linejoin:miter;stroke-miterlimit:4;stroke-dasharray:none;stroke-opacity:1"
             id="path137" /></g><g
           id="g139"
           transform="translate(157.0566,236.5674)"><path
             d="M 0,0 H 71.965"
             style="fill:none;stroke:#231f20;stroke-width:1;stroke-linecap:butt;stroke-linejoin:miter;stroke-miterlimit:4;stroke-dasharray:none;stroke-opacity:1"
             id="path141" /></g><g
           id="g143"
           transform="translate(157.0566,222.167)"><path
             d="M 0,0 H 71.965"
             style="fill:none;stroke:#231f20;stroke-width:1;stroke-linecap:butt;stroke-linejoin:miter;stroke-miterlimit:4;stroke-dasharray:none;stroke-opacity:1"
             id="path145" /></g><g
           id="g147"
           transform="translate(157.0566,207.7666)"><path
             d="M 0,0 H 71.965"
             style="fill:none;stroke:#231f20;stroke-width:1;stroke-linecap:butt;stroke-linejoin:miter;stroke-miterlimit:4;stroke-dasharray:none;stroke-opacity:1"
             id="path149" /></g><g
           id="g151"
           transform="translate(171.4395,193.3838)"><path
             d="M 0,0 V 71.967"
             style="fill:none;stroke:#231f20;stroke-width:1;stroke-linecap:butt;stroke-linejoin:miter;stroke-miterlimit:4;stroke-dasharray:none;stroke-opacity:1"
             id="path153" /></g><g
           id="g155"
           transform="translate(185.8398,193.3838)"><path
             d="M 0,0 V 71.967"
             style="fill:none;stroke:#231f20;stroke-width:1;stroke-linecap:butt;stroke-linejoin:miter;stroke-miterlimit:4;stroke-dasharray:none;stroke-opacity:1"
             id="path157" /></g><g
           id="g159"
           transform="translate(200.2383,193.3838)"><path
             d="M 0,0 V 71.967"
             style="fill:none;stroke:#231f20;stroke-width:1;stroke-linecap:butt;stroke-linejoin:miter;stroke-miterlimit:4;stroke-dasharray:none;stroke-opacity:1"
             id="path161" /></g><g
           id="g163"
           transform="translate(214.6387,193.3838)"><path
             d="M 0,0 V 71.967"
             style="fill:none;stroke:#231f20;stroke-width:1;stroke-linecap:butt;stroke-linejoin:miter;stroke-miterlimit:4;stroke-dasharray:none;stroke-opacity:1"
             id="path165" /></g><g
           id="g167"
           transform="translate(229.0566,265.3662)"><path
             d="M 0,0 V -100.656"
             style="fill:none;stroke:#231f20;stroke-width:1;stroke-linecap:butt;stroke-linejoin:miter;stroke-miterlimit:4;stroke-dasharray:none;stroke-opacity:1"
             id="path169" /></g></g></g><g
       id="g177"><g
         id="g179"
         clip-path="url(#clipPath183)"><path
           d="M 131.523,23.484 H 27 v 104.525 h 104.523 z"
           style="fill:#ffffff;fill-opacity:1;fill-rule:nonzero;stroke:#231f20;stroke-width:1.037;stroke-linecap:butt;stroke-linejoin:miter;stroke-miterlimit:4;stroke-dasharray:none;stroke-opacity:1"
           id="path185" /><path
           d="M 129.662,25.346 H 28.863 v 100.803 h 100.799 z"
           style="fill:#ffffff;fill-opacity:1;fill-rule:nonzero;stroke:#231f20;stroke-width:1;stroke-linecap:butt;stroke-linejoin:miter;stroke-miterlimit:4;stroke-dasharray:none;stroke-opacity:1"
           id="path187" /><path
           d="m 100.863,54.146 h -72 v 72.002 h 72 z"
           style="fill:none;stroke:#231f20;stroke-width:1;stroke-linecap:butt;stroke-linejoin:miter;stroke-miterlimit:4;stroke-dasharray:none;stroke-opacity:1"
           id="path189" /><g
           id="g191"
           transform="translate(28.8633,111.748)"><path
             d="M 0,0 H 71.965"
             style="fill:none;stroke:#231f20;stroke-width:1;stroke-linecap:butt;stroke-linejoin:miter;stroke-miterlimit:4;stroke-dasharray:none;stroke-opacity:1"
             id="path193" /></g><g
           id="g195"
           transform="translate(28.8633,97.3477)"><path
             d="M 0,0 H 71.965"
             style="fill:none;stroke:#231f20;stroke-width:1;stroke-linecap:butt;stroke-linejoin:miter;stroke-miterlimit:4;stroke-dasharray:none;stroke-opacity:1"
             id="path197" /></g><g
           id="g199"
           transform="translate(28.8633,82.9473)"><path
             d="M 0,0 H 71.965"
             style="fill:none;stroke:#231f20;stroke-width:1;stroke-linecap:butt;stroke-linejoin:miter;stroke-miterlimit:4;stroke-dasharray:none;stroke-opacity:1"
             id="path201" /></g><g
           id="g203"
           transform="translate(28.8633,68.5469)"><path
             d="M 0,0 H 71.965"
             style="fill:none;stroke:#231f20;stroke-width:1;stroke-linecap:butt;stroke-linejoin:miter;stroke-miterlimit:4;stroke-dasharray:none;stroke-opacity:1"
             id="path205" /></g><g
           id="g207"
           transform="translate(43.2461,54.1641)"><path
             d="M 0,0 V 71.967"
             style="fill:none;stroke:#231f20;stroke-width:1;stroke-linecap:butt;stroke-linejoin:miter;stroke-miterlimit:4;stroke-dasharray:none;stroke-opacity:1"
             id="path209" /></g><g
           id="g211"
           transform="translate(57.6465,54.1641)"><path
             d="M 0,0 V 71.967"
             style="fill:none;stroke:#231f20;stroke-width:1;stroke-linecap:butt;stroke-linejoin:miter;stroke-miterlimit:4;stroke-dasharray:none;stroke-opacity:1"
             id="path213" /></g><g
           id="g215"
           transform="translate(72.0449,54.1641)"><path
             d="M 0,0 V 71.967"
             style="fill:none;stroke:#231f20;stroke-width:1;stroke-linecap:butt;stroke-linejoin:miter;stroke-miterlimit:4;stroke-dasharray:none;stroke-opacity:1"
             id="path217" /></g><g
           id="g219"
           transform="translate(86.4453,54.1641)"><path
             d="M 0,0 V 71.967"
             style="fill:none;stroke:#231f20;stroke-width:1;stroke-linecap:butt;stroke-linejoin:miter;stroke-miterlimit:4;stroke-dasharray:none;stroke-opacity:1"
             id="path221" /></g><g
           id="g223"
           transform="translate(100.8633,126.1484)"><path
             d="M 0,0 V -100.658"
             style="fill:none;stroke:#231f20;stroke-width:1;stroke-linecap:butt;stroke-linejoin:miter;stroke-miterlimit:4;stroke-dasharray:none;stroke-opacity:1"
             id="path225" /></g><g
           id="g227"
           transform="translate(66.916,86.3242)"><path
             d="m 0,0 h -0.791 c 0.18,0.24 0.291,0.535 0.291,0.857 v 4.454 c 0,0.511 -0.271,0.96 -0.678,1.216 0.461,0.366 0.762,0.924 0.762,1.557 0,1.105 -0.897,2 -2,2 -1.105,0 -2,-0.895 -2,-2 0,-0.633 0.299,-1.191 0.76,-1.557 C -4.061,6.271 -4.334,5.822 -4.334,5.311 V 0.857 C -4.334,0.535 -4.223,0.24 -4.043,0 h -0.791 l -1,-2.416 H 1 Z"
             style="fill:#231f20;fill-opacity:1;fill-rule:nonzero;stroke:none"
             id="path229" /></g></g></g><text
       transform="matrix(1,0,0,-1,49.9287,31.6504)"
       style="font-variant:normal;font-weight:normal;font-stretch:normal;font-size:22px;font-family:'Pieces of Eight';-inkscape-font-specification:PiecesofEight;writing-mode:lr-tb;fill:#231f20;fill-opacity:1;fill-rule:nonzero;stroke:none"
       id="text233"><tspan
         x="0"
         y="0"
         sodipodi:role="line"
         id="tspan231">xxx</tspan></text><text
       transform="scale(1,-1)"
       style="font-variant:normal;font-weight:normal;font-stretch:normal;font-size:22px;font-family:'Pieces of Eight';-inkscape-font-specification:PiecesofEight;writing-mode:lr-tb;fill:#231f20;fill-opacity:1;fill-rule:nonzero;stroke:none"
       id="text233-7"
       x="181.12326"
       y="-31.649519"><tspan
         x="181.12326"
         y="-31.649519"
         sodipodi:role="line"
         id="tspan231-5">xxx</tspan></text><text
       transform="scale(1,-1)"
       style="font-variant:normal;font-weight:normal;font-stretch:normal;font-size:22px;font-family:'Pieces of Eight';-inkscape-font-specification:PiecesofEight;writing-mode:lr-tb;fill:#231f20;fill-opacity:1;fill-rule:nonzero;stroke:none"
       id="text117-6"
       x="181.12326"
       y="-171.64984"><tspan
         x="181.12326"
         sodipodi:role="line"
         id="tspan115-2"
         y="-171.64984">xxx</tspan></text></g></svg>
