<?xml version="1.0" encoding="UTF-8" standalone="no"?>
<!DOCTYPE svg PUBLIC "-//W3C//DTD SVG 1.1//EN" "http://www.w3.org/Graphics/SVG/1.1/DTD/svg11.dtd">
<svg width="100%" height="100%" viewBox="0 0 454 454" version="1.1" xmlns="http://www.w3.org/2000/svg" xmlns:xlink="http://www.w3.org/1999/xlink" xml:space="preserve" xmlns:serif="http://www.serif.com/" style="fill-rule:evenodd;clip-rule:evenodd;">
    <g id="Borders">
        <g id="Outer-Border" serif:id="Outer Border" transform="matrix(-4.16667,0,0,4.16667,556.92,-88.9424)">
            <rect x="27" y="23.484" width="104.523" height="104.525" style="fill:white;stroke:rgb(35,31,32);stroke-width:1px;"/>
        </g>
        <g id="Inner-Border" serif:id="Inner Border" transform="matrix(-4.16667,0,0,4.16667,556.928,-88.9507)">
            <rect x="28.863" y="25.346" width="100.799" height="100.803" style="fill:white;stroke:rgb(35,31,32);stroke-width:1px;"/>
        </g>
    </g>
    <g id="Movement-Grid" serif:id="Movement Grid">
        <g id="Horizontal-Lines" serif:id="Horizontal Lines">
            <g id="y5" transform="matrix(4.16667,0,0,4.16667,16.6714,16.7)">
                <path d="M0,0L71.965,0" style="fill:none;fill-rule:nonzero;stroke:rgb(35,31,32);stroke-width:1px;"/>
            </g>
            <g id="y4" transform="matrix(4.16667,0,0,4.16667,16.6714,76.6618)">
                <path d="M0,0L71.965,0" style="fill:none;fill-rule:nonzero;stroke:rgb(35,31,32);stroke-width:1px;"/>
            </g>
            <g id="y3" transform="matrix(4.16667,0,0,4.16667,16.6714,136.663)">
                <path d="M0,0L71.965,0" style="fill:none;fill-rule:nonzero;stroke:rgb(35,31,32);stroke-width:1px;"/>
            </g>
            <g id="y2" transform="matrix(4.16667,0,0,4.16667,16.6714,196.665)">
                <path d="M0,0L71.965,0" style="fill:none;fill-rule:nonzero;stroke:rgb(35,31,32);stroke-width:1px;"/>
            </g>
            <g id="y1" transform="matrix(4.16667,0,0,4.16667,16.6714,256.666)">
                <path d="M0,0L71.965,0" style="fill:none;fill-rule:nonzero;stroke:rgb(35,31,32);stroke-width:1px;"/>
            </g>
            <g id="y0" transform="matrix(4.16667,0,0,4.16667,16.6714,316.7)">
                <path d="M0,0L71.965,0" style="fill:none;fill-rule:nonzero;stroke:rgb(35,31,32);stroke-width:1px;"/>
            </g>
        </g>
        <g id="Vertical-Lines" serif:id="Vertical Lines">
            <g id="x5" transform="matrix(0,-4.16667,-4.16667,0,466.531,166.663)">
                <path d="M-35.984,35.984L35.984,35.984" style="fill:none;fill-rule:nonzero;stroke:rgb(35,31,32);stroke-width:1px;"/>
            </g>
            <g id="x4" transform="matrix(0,-4.16667,-4.16667,0,406.528,166.663)">
                <path d="M-35.984,35.984L35.984,35.984" style="fill:none;fill-rule:nonzero;stroke:rgb(35,31,32);stroke-width:1px;"/>
            </g>
            <g id="x3" transform="matrix(0,-4.16667,-4.16667,0,346.526,166.663)">
                <path d="M-35.984,35.984L35.984,35.984" style="fill:none;fill-rule:nonzero;stroke:rgb(35,31,32);stroke-width:1px;"/>
            </g>
            <g id="x2" transform="matrix(0,-4.16667,-4.16667,0,286.533,166.663)">
                <path d="M-35.984,35.984L35.984,35.984" style="fill:none;fill-rule:nonzero;stroke:rgb(35,31,32);stroke-width:1px;"/>
            </g>
            <g id="x1" transform="matrix(0,-4.16667,-4.16667,0,226.531,166.663)">
                <path d="M-35.984,35.984L35.984,35.984" style="fill:none;fill-rule:nonzero;stroke:rgb(35,31,32);stroke-width:1px;"/>
            </g>
            <g id="x0" transform="matrix(0,-4.16667,-4.16667,0,166.531,166.663)">
                <path d="M-35.984,35.984L35.984,35.984" style="fill:none;fill-rule:nonzero;stroke:rgb(35,31,32);stroke-width:1px;"/>
            </g>
        </g>
    </g>
    <g id="Icon-Name-Divider" serif:id="Icon-Name Divider" transform="matrix(0,4.16667,4.16667,0,526.376,226.364)">
        <path d="M-50.329,-50.329L50.329,-50.329" style="fill:none;fill-rule:nonzero;stroke:rgb(35,31,32);stroke-width:1px;"/>
    </g>
</svg>
