<?xml version="1.0" encoding="UTF-8" standalone="no"?>
<!DOCTYPE svg PUBLIC "-//W3C//DTD SVG 1.1//EN" "http://www.w3.org/Graphics/SVG/1.1/DTD/svg11.dtd">
<svg id="deWinterIcon" width="100%" height="100%" viewBox="0 0 25 89" version="1.1" xmlns="http://www.w3.org/2000/svg" xmlns:xlink="http://www.w3.org/1999/xlink" xml:space="preserve" xmlns:serif="http://www.serif.com/" style="fill-rule:evenodd;clip-rule:evenodd;stroke-linejoin:round;stroke-miterlimit:2;">
    <g transform="matrix(1.89394,0,0,1.89394,23.6136,35.8523)">
        <path d="M0,9.036C-0.205,9.036 -0.389,9.121 -0.522,9.257L-3.711,9.257C-3.372,8.885 -3.387,8.365 -3.387,8.365C-3.387,-12.685 -5.454,-18.064 -5.868,-18.93C-6.282,-18.064 -8.35,-12.685 -8.35,8.365C-8.35,8.365 -8.364,8.885 -8.024,9.257L-11.214,9.257C-11.347,9.121 -11.531,9.036 -11.736,9.036C-12.141,9.036 -12.468,9.363 -12.468,9.767C-12.468,10.172 -12.141,10.499 -11.736,10.499C-11.45,10.499 -11.205,10.333 -11.085,10.094L-7.218,10.094C-7.218,10.094 -7.88,13.656 -7.88,15.498C-7.88,17.341 -7.616,23.543 -7.88,24.771C-7.88,24.771 -9.47,27.966 -7.218,27.966L-4.518,27.966C-2.268,27.966 -3.855,24.771 -3.855,24.771C-4.121,23.543 -3.855,17.341 -3.855,15.498C-3.855,13.656 -4.518,10.094 -4.518,10.094L-0.651,10.094C-0.53,10.333 -0.286,10.499 0,10.499C0.404,10.499 0.732,10.172 0.732,9.767C0.732,9.363 0.404,9.036 0,9.036" style="fill:rgb(35,31,32);fill-rule:nonzero;"/>
    </g>
</svg>
