<?xml version="1.0" encoding="UTF-8" standalone="no"?>
<!DOCTYPE svg PUBLIC "-//W3C//DTD SVG 1.1//EN" "http://www.w3.org/Graphics/SVG/1.1/DTD/svg11.dtd">
<svg id="dragoonIcon" width="100%" height="100%" viewBox="0 0 15 125" version="1.1" xmlns="http://www.w3.org/2000/svg" xmlns:xlink="http://www.w3.org/1999/xlink" xml:space="preserve" xmlns:serif="http://www.serif.com/" style="fill-rule:evenodd;clip-rule:evenodd;stroke-linejoin:round;stroke-miterlimit:2;">
    <g transform="matrix(2,0,0,2,13.548,16.0308)">
        <path d="M0,45.987C-0.733,45.413 -1.623,45.129 -2.624,45.044C-2.623,45.036 -2.623,45.026 -2.623,45.018C-0.439,5.809 -3.789,-6.488 -3.789,-6.488C-3.789,-6.488 -4.271,-8.182 -4.939,-8.002C-5.607,-7.826 -5.206,-5.552 -5.206,-5.552C-2.699,11.522 -4.209,39.228 -4.561,44.945C-5.037,44.877 -5.496,44.759 -5.779,44.561C-5.576,44.446 -5.438,44.231 -5.438,43.983C-5.438,43.613 -5.737,43.315 -6.106,43.315C-6.476,43.315 -6.774,43.613 -6.774,43.983C-6.774,44.211 -6.66,44.411 -6.486,44.532L-6.512,44.532C-6.512,44.532 -6.338,45.236 -4.591,45.434C-4.613,45.802 -4.627,45.998 -4.627,45.998C-5.028,50.944 -4.093,53.305 -4.093,53.305C-3.999,53.321 -3.908,53.33 -3.819,53.335C-3.781,53.447 -3.781,53.597 -3.936,53.74C-3.936,53.74 -4.27,54.169 -3.077,53.907C-1.885,53.644 -2.266,53.341 -2.266,53.341C-2.266,53.341 -2.408,53.381 -2.316,52.981C-2.284,52.961 -2.266,52.949 -2.266,52.949C-2.266,52.949 -2.271,52.907 -2.277,52.831C-1.908,52.946 -1.376,53.023 -0.835,52.786C0.144,52.356 0.715,51.474 0.715,50.114C0.715,48.755 0.764,46.582 0,45.987M-1.049,52.381C-1.72,52.53 -2.109,52.338 -2.35,52.068C-2.482,50.6 -2.716,47.609 -2.646,45.515C-0.675,45.648 0.136,46.258 0.239,47.753C0.357,49.47 0.478,51.999 -1.049,52.381" style="fill:rgb(35,31,32);fill-rule:nonzero;"/>
    </g>
</svg>
