<?xml version="1.0" encoding="UTF-8" standalone="no"?>
<!DOCTYPE svg PUBLIC "-//W3C//DTD SVG 1.1//EN" "http://www.w3.org/Graphics/SVG/1.1/DTD/svg11.dtd">
<svg id="dukeIcon" width="100%" height="100%" viewBox="0 0 38 110" version="1.1" xmlns="http://www.w3.org/2000/svg" xmlns:xlink="http://www.w3.org/1999/xlink" xml:space="preserve" xmlns:serif="http://www.serif.com/" style="fill-rule:evenodd;clip-rule:evenodd;">
    <g transform="matrix(2,0,0,2,10.3718,70.0776)">
        <path d="M0,-33.639C2.225,-33.639 4.487,-28.917 12.1,-5.784C12.1,-5.784 9.825,-4.745 10.518,0C10.518,0 5.277,-12.68 -0.259,-11.098" style="fill:none;fill-rule:nonzero;stroke:rgb(35,31,32);stroke-width:0.68px;"/>
    </g>
    <g transform="matrix(2,0,0,2,-820.643,-824.279)">
        <rect x="414.556" y="412.921" width="1.235" height="54.079" style="fill:rgb(35,31,32);"/>
    </g>
    <g transform="matrix(2,0,0,2,27.0554,104.382)">
        <path d="M0,-21.502C0,-21.502 -14.311,-11.344 -13.494,-9.268C-12.679,-7.191 -13.124,-6.524 -13.124,-6.524C-13.124,-6.524 -4.374,-8.453 -3.781,-2.075C-3.781,-2.075 -3.039,-1.557 -3.262,0C-3.262,0 0.223,-2.669 -1.705,-5.635C-3.633,-8.601 -10.899,-9.193 -10.899,-9.193C-10.899,-9.193 -4.003,-18.413 2.176,-17.152C1.458,-18.784 0,-21.502 0,-21.502" style="fill:rgb(35,31,32);fill-rule:nonzero;"/>
    </g>
    <g transform="matrix(0,-2,-2,0,9.75399,0.972589)">
        <path d="M-0.889,-0.89C-1.38,-0.89 -1.78,-0.492 -1.78,0C-1.78,0.491 -1.38,0.889 -0.889,0.889C-0.398,0.889 0.001,0.491 0.001,0C0.001,-0.492 -0.398,-0.89 -0.889,-0.89" style="fill:rgb(35,31,32);fill-rule:nonzero;"/>
    </g>
</svg>
