<?xml version="1.0" encoding="UTF-8" standalone="no"?>
<!DOCTYPE svg PUBLIC "-//W3C//DTD SVG 1.1//EN" "http://www.w3.org/Graphics/SVG/1.1/DTD/svg11.dtd">
<svg id="longbowmanIcon" width="100%" height="100%" viewBox="0 0 20 124" version="1.1" xmlns="http://www.w3.org/2000/svg" xmlns:xlink="http://www.w3.org/1999/xlink" xml:space="preserve" xmlns:serif="http://www.serif.com/" style="fill-rule:evenodd;clip-rule:evenodd;stroke-linejoin:round;stroke-miterlimit:2;">
    <g transform="matrix(2,0,0,2,3.216,61.72)">
        <path d="M0,0.001C0.001,-10.937 3.362,-20.381 5.998,-30.86C5.77,-30.248 5.535,-29.628 5.312,-29.02C1.511,-18.737 -1.608,-11.07 -1.608,0.001C-1.608,11.072 1.512,18.739 5.312,29.022C5.535,29.63 5.77,30.249 5.998,30.861C3.356,20.385 0,10.936 0,0.001" style="fill:rgb(35,31,32);fill-rule:nonzero;"/>
    </g>
    <g transform="matrix(2,0,0,2,17.886,94.4496)">
        <path d="M0,-35.73L0.954,-37.999L-0.513,-41.476L-1.975,-37.998L-1.018,-35.73L-1.004,-4.802L-1.852,-3.529L-1.845,5.746L-0.488,3.708L0.87,5.743L0.863,-3.532L0.014,-4.802L0,-35.73Z" style="fill:rgb(35,31,32);fill-rule:nonzero;"/>
    </g>
</svg>
