<?xml version="1.0" encoding="UTF-8" standalone="no"?>
<!DOCTYPE svg PUBLIC "-//W3C//DTD SVG 1.1//EN" "http://www.w3.org/Graphics/SVG/1.1/DTD/svg11.dtd">
<svg id="marshallIcon" width="100%" height="100%" viewBox="0 0 35 114" version="1.1" xmlns="http://www.w3.org/2000/svg" xmlns:xlink="http://www.w3.org/1999/xlink" xml:space="preserve" xmlns:serif="http://www.serif.com/" style="fill-rule:evenodd;clip-rule:evenodd;stroke-linejoin:round;stroke-miterlimit:2;">
    <g transform="matrix(2,0,0,2,24.6223,106)">
        <path d="M0,-49.167C-1.983,-50.466 -3.395,-52.243 -3.617,-53C-3.806,-52.26 -5.379,-50.432 -7.216,-49.13C-9.223,-47.708 -12.334,-46.537 -12.311,-43.186C-12.277,-38.297 -8.115,-36.711 -5.345,-38.84C-5.735,-37.485 -6.207,-36.314 -6.782,-35.524L-4.455,-35.524L-4.455,3.833L-2.759,3.833L-2.759,-35.524L-0.433,-35.524C-0.969,-36.148 -1.425,-37.321 -1.809,-38.756C0.984,-36.602 5.062,-38.354 5.096,-43.222C5.119,-46.573 2.046,-47.827 0,-49.167" style="fill:rgb(35,31,32);fill-rule:nonzero;"/>
    </g>
</svg>
