<?xml version="1.0" encoding="UTF-8" standalone="no"?>
<!DOCTYPE svg PUBLIC "-//W3C//DTD SVG 1.1//EN" "http://www.w3.org/Graphics/SVG/1.1/DTD/svg11.dtd">
<svg id="musketeerIcon" width="100%" height="100%" viewBox="0 0 25 120" version="1.1" xmlns="http://www.w3.org/2000/svg" xmlns:xlink="http://www.w3.org/1999/xlink" xml:space="preserve" xmlns:serif="http://www.serif.com/" style="fill-rule:evenodd;clip-rule:evenodd;stroke-linejoin:round;stroke-miterlimit:2;">
    <g transform="matrix(1.92994,0,0,1.92994,24.4389,14.7255)">
        <path d="M0,46.918L-4.245,47.081C-3.788,46.815 -3.41,46.432 -3.41,45.898C-3.41,44.93 -4.646,44.208 -5.354,43.873C-5.388,31.692 -5.555,-7.63 -6.333,-7.63C-7.116,-7.63 -7.278,32.304 -7.31,44.149C-8.283,44.668 -10.068,45.893 -8.085,47.094L-12.663,46.918L-12.663,47.831L-6.866,47.645C-6.964,48.243 -7.023,48.984 -7.023,49.8C-7.023,50.894 -6.917,51.86 -6.755,52.507C-6.884,52.729 -7.087,53.006 -7.307,53.006L-6.961,54.548L-5.723,54.548L-5.358,52.986C-5.358,52.986 -5.673,52.775 -5.825,52.496C-5.665,51.848 -5.562,50.888 -5.562,49.8C-5.562,49.209 -5.595,48.66 -5.647,48.17C-5.361,48.022 -4.742,48.092 -3.665,49.998C-2.082,52.796 -4.712,53.136 -4.712,53.136C-4.712,53.136 -5.079,53.277 -4.966,53.588C-4.853,53.899 -4.457,53.787 -4.457,53.787C-4.457,53.787 -2.309,53.418 -2.704,50.252C-2.886,48.803 -3.451,48.074 -4.078,47.701L0,47.831L0,46.918ZM-4.372,45.955C-4.372,46.688 -4.916,46.903 -5.348,46.962C-5.349,46.463 -5.351,45.578 -5.354,44.374C-5.072,44.52 -4.372,44.981 -4.372,45.955M-7.312,44.817C-7.314,45.905 -7.315,46.691 -7.315,47.1C-7.733,46.842 -8.132,46.452 -8.132,45.898C-8.132,45.37 -7.74,45.031 -7.312,44.817" style="fill:rgb(35,31,32);fill-rule:nonzero;"/>
    </g>
</svg>
