<?xml version="1.0" encoding="UTF-8" standalone="no"?>
<!DOCTYPE svg PUBLIC "-//W3C//DTD SVG 1.1//EN" "http://www.w3.org/Graphics/SVG/1.1/DTD/svg11.dtd">
<svg id="rangerIcon" width="100%" height="100%" viewBox="0 0 26 117" version="1.1" xmlns="http://www.w3.org/2000/svg" xmlns:xlink="http://www.w3.org/1999/xlink" xml:space="preserve" xmlns:serif="http://www.serif.com/" style="fill-rule:evenodd;clip-rule:evenodd;stroke-linejoin:round;stroke-miterlimit:2;">
    <g transform="matrix(2,0,0,2,17.6472,78.1828)">
        <path d="M0,7.403C-0.443,7.448 -0.762,7.834 -0.742,8.274L-2.79,8.483C-3.286,4.842 -5.601,-11.946 -6.098,-11.895C-6.594,-11.845 -5.455,5.064 -5.201,8.731L-8.071,9.025C-8.532,9.072 -8.867,9.484 -8.819,9.944C-8.773,10.403 -8.361,10.739 -7.9,10.692C-7.458,10.646 -7.139,10.26 -7.158,9.821L-5.302,9.631L-4.442,18.016C-4.363,18.787 -3.673,19.349 -2.902,19.27C-2.13,19.191 -1.568,18.501 -1.648,17.73L-2.508,9.344L0.171,9.07C0.631,9.023 0.966,8.611 0.919,8.151C0.872,7.691 0.46,7.356 0,7.403" style="fill:rgb(35,31,32);fill-rule:nonzero;"/>
    </g>
    <g transform="matrix(2,0,0,2,23.5232,23.7862)">
        <path d="M0,7.405C-0.442,7.45 -0.761,7.836 -0.742,8.275L-2.79,8.486C-3.286,4.844 -5.601,-11.945 -6.098,-11.893C-6.594,-11.843 -5.454,5.066 -5.2,8.732L-8.071,9.027C-8.532,9.074 -8.866,9.485 -8.819,9.945C-8.772,10.406 -8.361,10.74 -7.9,10.694C-7.458,10.648 -7.139,10.262 -7.158,9.822L-5.302,9.633L-4.442,18.018C-4.363,18.79 -3.673,19.35 -2.902,19.272C-2.13,19.193 -1.568,18.503 -1.648,17.731L-2.507,9.346L0.171,9.071C0.632,9.024 0.966,8.613 0.919,8.153C0.872,7.693 0.461,7.358 0,7.405" style="fill:rgb(35,31,32);fill-rule:nonzero;"/>
    </g>
</svg>
