<?xml version="1.0" encoding="UTF-8" standalone="no"?>
<!DOCTYPE svg PUBLIC "-//W3C//DTD SVG 1.1//EN" "http://www.w3.org/Graphics/SVG/1.1/DTD/svg11.dtd">
<svg id="seerIcon" width="100%" height="100%" viewBox="0 0 34 115" version="1.1" xmlns="http://www.w3.org/2000/svg" xmlns:xlink="http://www.w3.org/1999/xlink" xml:space="preserve" xmlns:serif="http://www.serif.com/" style="fill-rule:evenodd;clip-rule:evenodd;stroke-linejoin:round;stroke-miterlimit:2;">
    <g transform="matrix(2,0,0,2,33.854,95.454)">
        <path d="M0,-38.34C0,-43.524 -4.203,-47.727 -9.387,-47.727C-12.481,-47.727 -15.217,-46.224 -16.927,-43.914C-15.563,-44.985 -13.849,-45.628 -11.981,-45.628C-7.547,-45.628 -3.952,-42.033 -3.952,-37.599C-3.952,-33.165 -7.547,-29.571 -11.981,-29.571C-12.272,-29.571 -12.56,-29.588 -12.843,-29.618C-11.873,-29.233 -10.824,-29.01 -9.727,-28.969L-9.727,9.387L-7.465,9.387L-7.465,-29.151C-3.203,-30.038 0,-33.815 0,-38.34" style="fill:rgb(35,31,32);fill-rule:nonzero;"/>
    </g>
</svg>
