<?xml version="1.0" encoding="UTF-8" standalone="no"?>
<!DOCTYPE svg PUBLIC "-//W3C//DTD SVG 1.1//EN" "http://www.w3.org/Graphics/SVG/1.1/DTD/svg11.dtd">
<svg id="sirGuyIcon" width="100%" height="100%" viewBox="0 0 30 118" version="1.1" xmlns="http://www.w3.org/2000/svg" xmlns:xlink="http://www.w3.org/1999/xlink" xml:space="preserve" xmlns:serif="http://www.serif.com/" style="fill-rule:evenodd;clip-rule:evenodd;stroke-linejoin:round;stroke-miterlimit:2;">
    <g transform="matrix(1.90434,0,0,1.90434,7.75455,55.4391)">
        <path d="M0,-23.096L0.14,-25.926L-2.813,-29.112L-3.028,-24.773L-1.102,-22.695L5.075,-5.727L4.659,-4.016L8.311,6.016L8.977,3.279L11.246,4.947L7.595,-5.087L6.177,-6.128L0,-23.096Z" style="fill:rgb(35,31,32);fill-rule:nonzero;"/>
    </g>
    <g transform="matrix(1.90434,0,0,1.90434,18.6822,75.7749)">
        <path d="M0,7.758C-0.16,7.74 -0.312,7.79 -0.427,7.886L-2.92,7.613C-2.623,7.351 -2.59,6.944 -2.59,6.944C-0.786,-9.506 -1.941,-13.885 -2.191,-14.598C-2.588,-13.956 -4.665,-9.93 -6.468,6.518C-6.468,6.518 -6.523,6.924 -6.29,7.244L-8.782,6.971C-8.874,6.852 -9.011,6.77 -9.171,6.753C-9.487,6.718 -9.772,6.946 -9.807,7.262C-9.841,7.578 -9.612,7.862 -9.297,7.897C-9.073,7.921 -8.867,7.812 -8.753,7.635L-5.732,7.966C-5.732,7.966 -6.554,10.693 -6.712,12.133C-6.869,13.572 -7.194,18.443 -7.506,19.379C-7.506,19.379 -9.021,21.739 -7.262,21.932C-6.821,21.981 -5.374,22.139 -5.153,22.163C-3.393,22.356 -4.361,19.724 -4.361,19.724C-4.463,18.741 -3.725,13.918 -3.566,12.478C-3.409,11.038 -3.622,8.197 -3.622,8.197L-0.6,8.529C-0.526,8.726 -0.35,8.877 -0.126,8.901C0.19,8.936 0.475,8.708 0.509,8.392C0.543,8.076 0.315,7.793 0,7.758" style="fill:rgb(35,31,32);fill-rule:nonzero;"/>
    </g>
</svg>
