<?xml version="1.0" encoding="UTF-8" standalone="no"?>
<!DOCTYPE svg PUBLIC "-//W3C//DTD SVG 1.1//EN" "http://www.w3.org/Graphics/SVG/1.1/DTD/svg11.dtd">
<svg id="specterIcon" width="100%" height="100%" viewBox="0 0 24 110" version="1.1" xmlns="http://www.w3.org/2000/svg" xmlns:xlink="http://www.w3.org/1999/xlink" xml:space="preserve" xmlns:serif="http://www.serif.com/" style="fill-rule:evenodd;clip-rule:evenodd;stroke-linejoin:round;stroke-miterlimit:2;">
    <g transform="matrix(1.925,0,0,1.925,23.4747,63.9657)">
        <path d="M0,-9.315L0,-10.967L-2.287,-10.967L-2.287,-29.654C-1.306,-31.099 -0.689,-31.763 -0.689,-31.763L-4.051,-33.229C-4.051,-33.229 -13.477,-14.865 -12.047,-4.776C-9.689,-15.115 -6.66,-22.053 -4.322,-26.304L-4.322,23.914L-2.287,23.914L-2.287,11.769L0,11.769L0,10.117L-2.287,10.117L-2.287,-9.315L0,-9.315ZM-3.305,-31.275C-2.982,-31.275 -2.721,-31.014 -2.721,-30.692C-2.721,-30.37 -2.982,-30.108 -3.305,-30.108C-3.627,-30.108 -3.888,-30.37 -3.888,-30.692C-3.888,-31.014 -3.627,-31.275 -3.305,-31.275" style="fill:rgb(35,31,32);fill-rule:nonzero;"/>
    </g>
</svg>
