<?xml version="1.0" encoding="UTF-8" standalone="no"?>
<!DOCTYPE svg PUBLIC "-//W3C//DTD SVG 1.1//EN" "http://www.w3.org/Graphics/SVG/1.1/DTD/svg11.dtd">
<svg id="trebuchetIcon" width="100%" height="100%" viewBox="0 0 18 105" version="1.1" xmlns="http://www.w3.org/2000/svg" xmlns:xlink="http://www.w3.org/1999/xlink" xml:space="preserve" xmlns:serif="http://www.serif.com/" style="fill-rule:evenodd;clip-rule:evenodd;stroke-linejoin:round;stroke-miterlimit:2;">
    <g transform="matrix(1.95062,0,0,1.95062,15.802,15.9639)">
        <path d="M0,37.461C0.361,36.368 0.571,35.087 0.571,33.699C0.571,30.497 -0.528,27.846 -2.102,26.835L-2.102,-0.44L0.734,-0.44L0.734,-1.749L-2.102,-1.749L-2.102,-8.184L-4.937,-8.184L-4.937,-1.749L-7.773,-1.749L-7.773,-0.44L-4.937,-0.44L-4.937,26.835C-6.511,27.846 -7.61,30.497 -7.61,33.699C-7.61,35.087 -7.4,36.368 -7.039,37.461C-7.701,38.326 -8.101,39.439 -8.101,40.654C-8.101,43.41 -6.05,45.645 -3.52,45.645C-0.989,45.645 1.062,43.41 1.062,40.654C1.062,39.439 0.662,38.326 0,37.461M-4.711,27.483L-2.328,27.483C-1.033,28.444 -0.083,30.9 -0.083,33.699C-0.083,34.846 -0.244,35.935 -0.521,36.888C-1.324,36.127 -2.371,35.664 -3.52,35.664C-4.668,35.664 -5.715,36.127 -6.52,36.888C-6.795,35.935 -6.956,34.846 -6.956,33.699C-6.956,30.9 -6.006,28.444 -4.711,27.483" style="fill:rgb(35,31,32);fill-rule:nonzero;"/>
    </g>
</svg>
