<?xml version="1.0" encoding="UTF-8" standalone="no"?>
<!DOCTYPE svg PUBLIC "-//W3C//DTD SVG 1.1//EN" "http://www.w3.org/Graphics/SVG/1.1/DTD/svg11.dtd">
<svg width="100%" height="100%" viewBox="0 0 62 113" version="1.1" xmlns="http://www.w3.org/2000/svg" xmlns:xlink="http://www.w3.org/1999/xlink" xml:space="preserve" xmlns:serif="http://www.serif.com/" style="fill-rule:evenodd;clip-rule:evenodd;stroke-linejoin:round;stroke-miterlimit:2;">
    <g transform="matrix(4.16667,0,0,4.16667,52.3583,21.6917)">
        <path d="M0,16.511L-1.704,16.511C-1.312,15.995 -1.077,15.359 -1.077,14.665L-1.077,5.072C-1.077,3.972 -1.661,3.006 -2.533,2.455C-1.544,1.667 -0.896,0.466 -0.896,-0.898C-0.896,-3.278 -2.826,-5.206 -5.204,-5.206C-7.584,-5.206 -9.511,-3.278 -9.511,-0.898C-9.511,0.466 -8.863,1.667 -7.874,2.455C-8.747,3.006 -9.331,3.972 -9.331,5.072L-9.331,14.665C-9.331,15.359 -9.096,15.995 -8.708,16.511L-10.412,16.511L-12.566,21.717L2.154,21.717L0,16.511Z" style="fill:rgb(35,31,32);fill-rule:nonzero;"/>
    </g>
</svg>
