<?xml version="1.0" encoding="UTF-8" standalone="no"?>
<!DOCTYPE svg PUBLIC "-//W3C//DTD SVG 1.1//EN" "http://www.w3.org/Graphics/SVG/1.1/DTD/svg11.dtd">
<svg id="ballistaIcon" width="100%" height="100%" viewBox="0 0 33 85" version="1.1" xmlns="http://www.w3.org/2000/svg" xmlns:xlink="http://www.w3.org/1999/xlink" xml:space="preserve" xmlns:serif="http://www.serif.com/" style="fill-rule:evenodd;clip-rule:evenodd;stroke-linejoin:round;stroke-miterlimit:2;">
    <g transform="matrix(2.02246,0,0,2.02246,19.6442,65.5277)">
        <path d="M0,-22.772L0,-26.085L-1.095,-26.085L-1.095,-29.43L0.048,-29.43L-1.668,-32.4L-3.384,-29.43L-2.24,-29.43L-2.24,-26.085L-3.336,-26.085L-3.336,-22.772C-6.975,-22.021 -9.713,-18.865 -9.713,-15.095L-8.536,-15.095C-8.536,-18.214 -6.317,-20.833 -3.336,-21.56L-3.336,9.628L0,9.628L0,-21.559C2.982,-20.833 5.199,-18.214 5.199,-15.095L6.377,-15.095C6.377,-18.865 3.639,-22.02 0,-22.772" style="fill:rgb(35,31,32);fill-rule:nonzero;"/>
    </g>
</svg>
