<?xml version="1.0" encoding="UTF-8" standalone="no"?>
<!DOCTYPE svg PUBLIC "-//W3C//DTD SVG 1.1//EN" "http://www.w3.org/Graphics/SVG/1.1/DTD/svg11.dtd">
<svg id="darkAgnesIcon" width="100%" height="100%" viewBox="0 0 37 130" version="1.1" xmlns="http://www.w3.org/2000/svg" xmlns:xlink="http://www.w3.org/1999/xlink" xml:space="preserve" xmlns:serif="http://www.serif.com/" style="fill-rule:evenodd;clip-rule:evenodd;stroke-linejoin:round;stroke-miterlimit:2;">
    <g transform="matrix(0.411111,0,0,0.411124,-96.3562,-3.90896)">
        <rect x="234.38" y="9.508" width="90" height="315" style="fill:white;fill-opacity:0;"/>
    </g>
    <g transform="matrix(0.0986667,0,0,0.0986667,1.28082,4.54326)">
        <g transform="matrix(17.7266,0,0,17.7266,298.968,1015.79)">
            <path d="M0,-24.268L-7.098,-17.144L-7.424,-17.021L-11.802,-12.628C-12.189,-12.239 -12.56,-11.801 -12.879,-11.399C-13.038,-11.321 -13.256,-11.169 -13.538,-10.887C-14.236,-10.185 -14.114,-11.005 -14.073,-11.087C-14.033,-11.168 -13.625,-12.071 -13.768,-12.256C-13.768,-12.256 -14.158,-12.563 -14.567,-12.111C-14.567,-12.111 -14.991,-11.193 -15.332,-11.589C-15.673,-11.986 -16.008,-11.298 -15.057,-11.044C-15.057,-11.044 -14.369,-10.202 -13.654,-10.356C-13.776,-10.182 -13.847,-10.076 -13.847,-10.076C-17.314,-2.806 -13.563,-0.391 -13.563,-0.391C-12.685,0 -11.862,-0.907 -11.862,-0.907C-11.372,-1.4 -11.495,-2.218 -11.495,-2.218C-11.457,-2.833 -11.949,-2.916 -11.949,-2.916C-11.949,-2.916 -12.174,-2.739 -12.973,-3.487C-13.874,-4.383 -13.25,-6.064 -12.423,-7.495C-12.181,-7.262 -11.803,-6.981 -11.456,-7.086C-10.829,-7.118 -10.502,-7.529 -10.235,-7.795C-9.969,-8.062 -9.394,-9.044 -9.899,-9.546C-10.139,-9.785 -10.396,-9.948 -10.6,-10.058C-10.102,-10.579 -5.742,-15.126 -5.412,-15.262C-5.064,-15.407 -4.923,-15.754 -4.923,-15.754C-4.963,-16 -2.428,-18.75 -1.896,-19.286C-1.364,-19.818 1.029,-21.974 1.029,-21.974C1.254,-22.118 0.618,-22.587 0.618,-22.587L0.904,-22.875C1.128,-23.306 0,-24.268 0,-24.268M-10.688,-7.918C-10.688,-7.918 -11.189,-6.916 -12.196,-7.872C-12.119,-7.997 -12.041,-8.119 -11.965,-8.237C-11.714,-8 -11.281,-7.813 -11.281,-7.813L-11.22,-8.122C-11.419,-8.186 -11.555,-8.467 -11.642,-8.712C-11.408,-9.045 -11.189,-9.335 -11.018,-9.553C-10.779,-9.571 -10.473,-9.544 -10.259,-9.333C-9.869,-8.944 -10.688,-7.918 -10.688,-7.918" style="fill:rgb(35,31,32);fill-rule:nonzero;"/>
        </g>
        <g transform="matrix(17.7266,0,0,17.7266,317.65,207.828)">
            <path d="M0,45.358C-0.237,45.379 -0.416,45.555 -0.465,45.777L-4.177,46.267C-3.748,45.96 -3.407,45.544 -3.456,45.011C-3.546,44.048 -4.844,43.444 -5.581,43.176C-6.743,31.05 -10.556,-8.087 -11.331,-8.015C-12.112,-7.943 -8.569,31.836 -7.502,43.631C-8.424,44.24 -10.087,45.626 -7.999,46.635L-12.073,46.858C-12.162,46.65 -12.37,46.51 -12.608,46.532C-12.901,46.559 -13.118,46.821 -13.091,47.114C-13.064,47.408 -12.802,47.625 -12.508,47.596C-12.4,47.586 -12.311,47.539 -12.233,47.476L-6.687,47.595C-6.727,48.199 -6.767,48.419 -6.691,49.232C-6.593,50.283 -6.407,51.199 -6.197,51.828C-6.302,52.012 -6.354,52.253 -6.331,52.514C-6.28,53.044 -5.933,53.445 -5.553,53.411C-5.174,53.375 -4.904,52.916 -4.955,52.385C-4.981,52.11 -5.089,51.871 -5.238,51.709C-5.151,51.051 -5.14,50.131 -5.236,49.096C-5.29,48.507 -5.374,47.964 -5.474,47.482C-5.24,47.332 -1.299,46.563 -0.201,46.351C-0.111,46.4 -0.011,46.432 0.1,46.422C0.393,46.395 0.61,46.134 0.582,45.84C0.556,45.546 0.295,45.33 0,45.358M-7.234,46.571C-7.673,46.353 -8.107,46.001 -8.158,45.45C-8.207,44.924 -7.847,44.55 -7.441,44.297C-7.343,45.38 -7.272,46.164 -7.234,46.571M-5.288,46.251C-5.334,45.754 -5.418,44.873 -5.533,43.673C-5.238,43.794 -4.499,44.187 -4.409,45.158C-4.34,45.887 -4.862,46.153 -5.288,46.251" style="fill:rgb(35,31,32);fill-rule:nonzero;"/>
        </g>
    </g>
</svg>
