<?xml version="1.0" encoding="UTF-8" standalone="no"?>
<!DOCTYPE svg PUBLIC "-//W3C//DTD SVG 1.1//EN" "http://www.w3.org/Graphics/SVG/1.1/DTD/svg11.dtd">
<svg id="duchessIcon" width="100%" height="100%" viewBox="0 0 24 100" version="1.1" xmlns="http://www.w3.org/2000/svg" xmlns:xlink="http://www.w3.org/1999/xlink" xml:space="preserve" xmlns:serif="http://www.serif.com/" style="fill-rule:evenodd;clip-rule:evenodd;stroke-linejoin:round;stroke-miterlimit:2;">
    <g transform="matrix(2,0,0,2,-488.878,-445.877)">
        <rect x="249.774" y="228.582" width="1.192" height="44.3" style="fill:rgb(35,31,32);"/>
    </g>
    <g transform="matrix(2,0,0,2,23.724,20.716)">
        <path d="M0,-8.855C0,-8.855 -3.303,-6.122 -5.574,-4.785C-4.235,-7.056 -1.503,-10.358 -1.503,-10.358L-10.359,-10.358C-10.359,-10.358 -7.627,-7.056 -6.288,-4.785C-8.56,-6.122 -11.862,-8.855 -11.862,-8.855L-11.862,0C-11.862,0 -8.56,-2.733 -6.288,-4.07C-7.627,-1.799 -10.359,1.503 -10.359,1.503L-1.503,1.503C-1.503,1.503 -4.237,-1.799 -5.574,-4.069C-3.303,-2.732 0,0 0,0L0,-8.855Z" style="fill:rgb(35,31,32);fill-rule:nonzero;"/>
    </g>
</svg>
