<?xml version="1.0" encoding="UTF-8" standalone="no"?>
<!DOCTYPE svg PUBLIC "-//W3C//DTD SVG 1.1//EN" "http://www.w3.org/Graphics/SVG/1.1/DTD/svg11.dtd">
<svg id="explorerIcon" width="100%" height="100%" viewBox="0 0 37 130" version="1.1" xmlns="http://www.w3.org/2000/svg" xmlns:xlink="http://www.w3.org/1999/xlink" xml:space="preserve" xmlns:serif="http://www.serif.com/" style="fill-rule:evenodd;clip-rule:evenodd;stroke-linecap:round;stroke-miterlimit:2;">
    <g transform="matrix(0.411111,0,0,0.411111,-96.3562,-3.90884)">
        <rect x="234.38" y="9.508" width="90" height="315" style="fill:none;stroke:rgb(35,31,32);stroke-opacity:0;stroke-width:3px;"/>
    </g>
    <g transform="matrix(1.94468,0,0,1.94468,4.93573,84.5013)">
        <path d="M0,-20.227C-0.18,-21.359 -0.429,-22.37 -0.48,-23.39C-0.541,-24.625 -0.108,-25.06 1.08,-25.281C1.266,-26.823 1.868,-27.766 3.528,-27.873C3.691,-28.401 3.845,-28.949 4.032,-29.485C4.238,-30.075 4.612,-30.523 5.293,-30.453C5.983,-30.382 6.115,-29.78 6.203,-29.239C6.326,-28.488 6.378,-27.726 6.467,-26.907C6.841,-26.906 7.136,-26.906 7.486,-26.906C7.617,-27.318 7.73,-27.735 7.884,-28.137C8.031,-28.519 8.142,-28.966 8.416,-29.234C8.694,-29.507 9.161,-29.74 9.529,-29.717C9.778,-29.702 10.141,-29.244 10.204,-28.934C10.355,-28.188 10.387,-27.414 10.417,-26.649C10.577,-22.589 12.229,-19.085 14.342,-15.716C14.943,-14.76 15.375,-13.639 15.629,-12.536C16.164,-10.211 14.556,-7.625 12.279,-6.895C12.149,-6.853 12.016,-6.819 11.885,-6.779C10.246,-6.272 10.092,-6.034 10.154,-4.268C10.241,-1.802 10.334,0.664 10.378,3.13C10.402,4.439 10.699,5.541 11.899,6.298C12.391,6.609 12.789,7.109 13.146,7.586C13.6,8.194 13.586,8.877 13.149,9.506C12.709,10.139 12.012,10.296 11.389,10.009C9.753,9.257 8.094,8.51 6.59,7.535C5.584,6.883 4.721,5.924 3.998,4.951C3.518,4.305 3.342,3.405 3.132,2.593C2.961,1.934 2.948,1.236 2.853,0.556C2.643,-0.943 2.175,-2.272 0.905,-3.281C0.238,-3.811 -0.293,-4.573 -0.728,-5.321C-1.575,-6.781 -1.39,-7.909 -0.256,-9.14C0.019,-9.438 0.304,-9.727 0.626,-10.065C0.398,-10.251 0.22,-10.41 0.028,-10.551C-1.493,-11.673 -1.905,-12.952 -1.45,-14.764C-1.359,-15.126 -1.632,-15.575 -1.716,-15.988C-1.912,-16.956 -1.696,-17.31 -0.749,-17.552C-0.79,-18.556 -1.05,-19.659 0,-20.227M5.481,5.445C5.437,5.511 5.393,5.576 5.35,5.642C6.776,6.548 8.186,7.479 9.635,8.347C10.193,8.682 10.82,8.93 11.446,9.109C11.732,9.19 12.288,9.102 12.373,8.924C12.499,8.662 12.408,8.192 12.238,7.916C12.001,7.53 11.654,7.164 11.27,6.922C9.936,6.079 9.495,4.832 9.495,3.343C9.495,1.834 9.504,0.325 9.456,-1.183C9.447,-1.486 9.281,-1.909 9.048,-2.058C7.633,-2.96 5.005,-2.648 3.814,-1.451C3.627,-1.264 3.527,-0.883 3.555,-0.609C3.652,0.316 3.869,1.23 3.956,2.156C4.077,3.444 4.573,4.532 5.481,5.445M5.248,-29.385C5.175,-29.404 5.102,-29.422 5.028,-29.441C4.918,-29.206 4.732,-28.978 4.712,-28.736C4.614,-27.576 4.4,-26.395 4.521,-25.252C4.855,-22.081 6.446,-19.424 8.174,-16.821C8.909,-15.715 9.507,-14.484 9.964,-13.235C10.746,-11.1 9.309,-9.086 7.093,-9.013C6.862,-9.005 6.57,-8.935 6.423,-8.782C6.211,-8.562 6.105,-8.24 5.953,-7.962C6.297,-7.9 6.67,-7.721 6.977,-7.8C7.554,-7.949 8.086,-8.263 8.648,-8.481C11.426,-9.559 12.378,-11.965 11.078,-14.658C10.888,-15.052 10.688,-15.445 10.455,-15.815C9.71,-16.996 9.003,-18.206 8.179,-19.331C6.559,-21.541 6.123,-24.139 5.627,-26.722C5.458,-27.601 5.372,-28.497 5.248,-29.385M9.386,-28.744C9.306,-28.753 9.226,-28.763 9.146,-28.773C8.597,-27.836 8.334,-26.811 8.336,-25.705C8.344,-22.715 9.345,-20.026 10.748,-17.431C11.642,-15.776 12.517,-14.086 13.153,-12.322C13.867,-10.343 12.497,-8.437 10.413,-8.18C10.228,-8.157 10.055,-8.032 9.856,-7.946C10.379,-7.247 10.379,-7.246 11.034,-7.447C11.322,-7.535 11.61,-7.625 11.898,-7.716C14.117,-8.419 15.395,-10.765 14.61,-12.952C14.16,-14.205 13.596,-15.463 12.845,-16.555C10.706,-19.664 9.784,-23.129 9.509,-26.823C9.462,-27.463 9.427,-28.103 9.386,-28.744M6.322,-4.22C6.318,-4.189 6.351,-4.322 6.349,-4.453C6.324,-5.657 6.049,-6.677 5.1,-7.606C4.174,-8.513 3.285,-9.294 1.978,-9.475C1.794,-9.501 1.582,-9.518 1.415,-9.454C-0.049,-8.889 -0.792,-6.992 0.104,-5.699C0.871,-4.592 1.904,-3.67 2.729,-2.766C3.963,-3.265 5.092,-3.722 6.322,-4.22M5.596,-17.706C6.153,-18.27 6.145,-18.265 5.88,-18.788C5.458,-19.619 4.921,-20.418 4.662,-21.298C4.177,-22.946 3.841,-24.64 3.473,-26.321C3.331,-26.968 3.05,-27.142 2.642,-26.649C2.329,-26.269 2.073,-25.677 2.107,-25.202C2.321,-22.277 3.972,-20.01 5.596,-17.706M4.661,-17.393C3.256,-19.511 1.875,-21.524 1.328,-23.958C1.298,-24.089 1.069,-24.283 0.961,-24.266C0.786,-24.239 0.524,-24.084 0.494,-23.943C0.413,-23.548 0.372,-23.126 0.421,-22.727C0.715,-20.33 2.451,-18.745 3.665,-16.822C4.037,-17.035 4.313,-17.193 4.661,-17.393M8.484,-10.514C9.061,-10.982 9.138,-11.312 8.711,-11.825C7.478,-13.306 6.071,-14.667 5.29,-16.482C4.397,-16.31 4.168,-15.865 4.781,-15.052C5.947,-13.503 7.228,-12.041 8.484,-10.514M7.693,-9.945C7.666,-10.061 7.673,-10.157 7.628,-10.211C6.405,-11.687 5.184,-13.164 3.938,-14.62C3.833,-14.743 3.516,-14.803 3.367,-14.737C3.222,-14.672 3.052,-14.368 3.095,-14.236C3.237,-13.805 3.402,-13.348 3.685,-13.005C4.4,-12.14 5.22,-11.36 5.929,-10.49C6.423,-9.885 7.002,-9.852 7.693,-9.945M3.314,-15.769C2.538,-16.876 1.778,-17.973 0.997,-19.054C0.885,-19.209 0.588,-19.417 0.514,-19.373C0.333,-19.264 0.168,-19.037 0.118,-18.828C0.057,-18.573 0.087,-18.282 0.136,-18.018C0.385,-16.691 1.454,-16.026 2.306,-15.211C2.694,-15.426 2.995,-15.592 3.314,-15.769M7.506,-7.017C7.64,-5.942 7.762,-4.971 7.891,-3.937C8.304,-3.845 8.744,-3.747 9.168,-3.653C9.293,-4.644 9.425,-5.582 9.52,-6.524C9.536,-6.685 9.428,-6.881 9.331,-7.03C8.711,-7.974 8.121,-7.21 7.506,-7.017M5.61,-9.218C5.608,-9.321 5.605,-9.425 5.603,-9.528C4.867,-10.335 4.148,-11.159 3.382,-11.937C3.208,-12.114 2.872,-12.132 2.611,-12.223C2.526,-11.953 2.35,-11.672 2.381,-11.416C2.413,-11.147 2.587,-10.832 2.798,-10.658C3.429,-10.136 4.088,-9.64 4.781,-9.206C4.978,-9.084 5.329,-9.208 5.61,-9.218M-0.766,-16.709C-0.897,-15.577 0.96,-13.411 2.246,-13.117C2.313,-13.912 0.372,-16.257 -0.766,-16.709M8.959,-12.704C9.068,-12.77 9.178,-12.837 9.287,-12.903C8.475,-14.409 7.663,-15.916 6.851,-17.422C6.715,-17.388 6.579,-17.353 6.443,-17.319C6.466,-16.875 6.331,-16.328 6.541,-16.005C7.283,-14.864 8.143,-13.798 8.959,-12.704M-0.713,-14.156C-0.935,-12.626 0.084,-11.18 1.514,-10.855C1.459,-11.373 1.582,-12.019 1.316,-12.352C0.782,-13.018 0.035,-13.513 -0.713,-14.156M7.651,-21.935C7.727,-21.954 7.803,-21.972 7.879,-21.991C7.778,-22.573 7.657,-23.153 7.582,-23.739C7.505,-24.333 7.499,-24.936 7.409,-25.527C7.382,-25.698 7.172,-25.842 7.046,-25.998C6.95,-25.896 6.755,-25.772 6.772,-25.695C7.049,-24.438 7.353,-23.187 7.651,-21.935" style="fill-rule:nonzero;"/>
    </g>
</svg>
