<?xml version="1.0" encoding="UTF-8" standalone="no"?>
<!DOCTYPE svg PUBLIC "-//W3C//DTD SVG 1.1//EN" "http://www.w3.org/Graphics/SVG/1.1/DTD/svg11.dtd">
<svg id="flagIcon" width="100%" height="100%" viewBox="0 0 68 100" version="1.1" xmlns="http://www.w3.org/2000/svg" xmlns:xlink="http://www.w3.org/1999/xlink" xml:space="preserve" xmlns:serif="http://www.serif.com/" style="fill-rule:evenodd;clip-rule:evenodd;stroke-miterlimit:10;">
    <g transform="matrix(2,0,0,2,-1070.98,-764.217)">
        <rect x="551.85" y="384.127" width="1.235" height="47.839" style="fill:rgb(35,31,32);"/>
    </g>
    <g transform="matrix(2,0,0,2,57.6448,29.2328)">
        <path d="M0,18.365L-11.843,27.866L-23.707,18.365L-23.707,-9.501L0,-9.501L0,18.365Z" style="fill:white;fill-rule:nonzero;stroke:rgb(35,31,32);stroke-width:1.02px;"/>
    </g>
    <g transform="matrix(-2,0,0,2,1138.89,-847.507)">
        <rect x="539.279" y="428.251" width="26.376" height="1.236" style="fill:rgb(35,31,32);"/>
    </g>
    <g transform="matrix(0,-2,-2,0,33.9382,2.13797)">
        <path d="M-0.95,-0.95C-1.474,-0.95 -1.9,-0.524 -1.9,-0.001C-1.9,0.525 -1.474,0.95 -0.95,0.95C-0.425,0.95 0,0.525 0,-0.001C0,-0.524 -0.425,-0.95 -0.95,-0.95" style="fill:rgb(35,31,32);fill-rule:nonzero;"/>
    </g>
    <g transform="matrix(2,0,0,2,35.3244,34.1718)">
        <path d="M0,7.878C0.191,7.686 0.384,7.495 0.575,7.303C-2.001,4.727 -5.15,1.578 -7.975,-1.247C-8.897,-2.169 -10.254,-3.124 -10.776,-4.048C-10.925,-4.31 -11.05,-6.062 -10.92,-6.204C-10.771,-6.366 -8.925,-6.262 -8.693,-6.132C-7.749,-5.599 -6.783,-4.222 -5.819,-3.258C-3.156,-0.595 0.022,2.582 2.587,5.147C2.802,5.256 3.018,4.773 3.233,4.645C3.568,4.98 3.903,5.315 4.238,5.65C3.802,6.034 3.733,6.417 3.665,6.8C5.077,8.213 6.49,9.626 7.902,11.039C8.262,11.281 8.621,10.738 8.981,11.111C9.233,11.422 8.972,11.733 9.196,12.045C8.311,12.856 7.424,14.244 6.537,13.697C6.112,13.338 6.499,12.978 6.467,12.62C5.053,11.207 3.641,9.794 2.228,8.38C1.82,8.267 1.413,8.47 1.006,8.883C0.671,8.548 0.336,8.213 0,7.878M1.006,8.453C1.941,7.519 2.874,6.584 3.808,5.65C3.616,5.459 3.425,5.268 3.233,5.076C2.3,6.01 1.365,6.944 0.432,7.878C0.622,8.069 0.815,8.261 1.006,8.453M8.693,11.254C8.023,11.429 7.049,12.571 6.609,13.194C7.02,14.179 9.352,11.966 8.693,11.254M-7.328,-4.335C-7.78,-4.789 -8.353,-5.545 -8.98,-5.844C-9.425,-6.057 -10.499,-6.062 -10.633,-5.916C-10.804,-5.73 -10.547,-4.456 -10.489,-4.335C-10.195,-3.722 -9.431,-3.134 -8.98,-2.683C-5.654,0.643 -2.375,3.921 0.719,7.016C1.293,6.775 1.868,5.915 2.442,5.435C-0.703,2.289 -4.097,-1.104 -7.328,-4.335M7.832,11.398C7.52,11.087 7.209,10.775 6.898,10.464C6.206,10.919 6.363,11.374 6.107,11.829C6.322,12.045 6.537,12.26 6.754,12.476C7.112,12.117 7.472,11.757 7.832,11.398M6.395,10.68C5.976,10.177 6.457,9.674 5.604,9.171C4.701,9.913 4.816,10.656 5.676,11.398C5.915,11.159 6.154,10.919 6.395,10.68M4.886,9.602C4.79,9.076 5.151,8.548 4.454,8.021C3.293,8.519 3.839,10.644 4.886,9.602M3.88,8.309C3.604,7.854 4.057,7.399 3.377,6.944C3.018,7.303 2.658,7.662 2.3,8.021C2.61,8.332 2.921,8.644 3.233,8.955C3.449,8.74 3.664,8.524 3.88,8.309" style="fill:rgb(35,31,32);fill-rule:nonzero;"/>
    </g>
    <g transform="matrix(2,0,0,2,35.3244,34.1718)">
        <path d="M0,7.878C0.191,7.686 0.384,7.495 0.575,7.303C-2.001,4.727 -5.15,1.578 -7.975,-1.247C-8.897,-2.169 -10.254,-3.124 -10.776,-4.048C-10.925,-4.31 -11.05,-6.062 -10.92,-6.204C-10.771,-6.366 -8.925,-6.262 -8.693,-6.132C-7.749,-5.599 -6.783,-4.222 -5.819,-3.258C-3.156,-0.595 0.022,2.582 2.587,5.147C2.802,5.256 3.018,4.773 3.233,4.645C3.568,4.98 3.903,5.315 4.238,5.65C3.802,6.034 3.733,6.417 3.665,6.8C5.077,8.213 6.49,9.626 7.902,11.039C8.262,11.281 8.621,10.738 8.981,11.111C9.233,11.422 8.972,11.733 9.196,12.045C8.311,12.856 7.424,14.244 6.537,13.697C6.112,13.338 6.499,12.978 6.467,12.62C5.053,11.207 3.641,9.794 2.228,8.38C1.82,8.267 1.413,8.47 1.006,8.883C0.671,8.548 0.336,8.213 0,7.878ZM1.006,8.453C1.941,7.519 2.874,6.584 3.808,5.65C3.616,5.459 3.425,5.268 3.233,5.076C2.3,6.01 1.365,6.944 0.432,7.878C0.622,8.069 0.815,8.261 1.006,8.453ZM8.693,11.254C8.023,11.429 7.049,12.571 6.609,13.194C7.02,14.179 9.352,11.966 8.693,11.254ZM-7.328,-4.335C-7.78,-4.789 -8.353,-5.545 -8.98,-5.844C-9.425,-6.057 -10.499,-6.062 -10.633,-5.916C-10.804,-5.73 -10.547,-4.456 -10.489,-4.335C-10.195,-3.722 -9.431,-3.134 -8.98,-2.683C-5.654,0.643 -2.375,3.921 0.719,7.016C1.293,6.775 1.868,5.915 2.442,5.435C-0.703,2.289 -4.097,-1.104 -7.328,-4.335ZM7.832,11.398C7.52,11.087 7.209,10.775 6.898,10.464C6.206,10.919 6.363,11.374 6.107,11.829C6.322,12.045 6.537,12.26 6.754,12.476C7.112,12.117 7.472,11.757 7.832,11.398ZM6.395,10.68C5.976,10.177 6.457,9.674 5.604,9.171C4.701,9.913 4.816,10.656 5.676,11.398C5.915,11.159 6.154,10.919 6.395,10.68ZM4.886,9.602C4.79,9.076 5.151,8.548 4.454,8.021C3.293,8.519 3.839,10.644 4.886,9.602ZM3.88,8.309C3.604,7.854 4.057,7.399 3.377,6.944C3.018,7.303 2.658,7.662 2.3,8.021C2.61,8.332 2.921,8.644 3.233,8.955C3.449,8.74 3.664,8.524 3.88,8.309Z" style="fill:none;fill-rule:nonzero;stroke:rgb(35,31,32);stroke-width:0.68px;"/>
    </g>
    <g transform="matrix(1.10163,1.66926,1.66926,-1.10163,35.8455,46.1097)">
        <path d="M1.688,-0.909C1.423,0.385 1.157,1.679 0.892,2.973C1.158,3.027 1.423,3.082 1.688,3.136C1.953,1.842 2.219,0.549 2.484,-0.746C2.218,-0.8 1.952,-0.855 1.688,-0.909" style="fill:rgb(35,31,32);fill-rule:nonzero;"/>
    </g>
    <g transform="matrix(2,0,0,2,48.5432,58.6506)">
        <path d="M0,0.955C0.44,0.331 1.414,-0.81 2.084,-0.985C2.742,-0.274 0.41,1.94 0,0.955" style="fill:rgb(35,31,32);fill-rule:nonzero;"/>
    </g>
    <g transform="matrix(2,0,0,2,40.2092,25.208)">
        <path d="M0,9.917C-0.574,10.397 -1.149,11.257 -1.724,11.498C-4.817,8.403 -8.097,5.125 -11.423,1.799C-11.873,1.348 -12.638,0.76 -12.932,0.146C-12.989,0.026 -13.246,-1.248 -13.075,-1.435C-12.941,-1.581 -11.867,-1.575 -11.423,-1.362C-10.796,-1.063 -10.223,-0.307 -9.771,0.146C-6.539,3.378 -3.146,6.771 0,9.917" style="fill:rgb(35,31,32);fill-rule:nonzero;"/>
    </g>
    <g transform="matrix(1.9949,0.142776,0.142776,-1.9949,48.6896,59.0881)">
        <path d="M0.072,-0.013C-0.16,0.187 -0.389,0.387 -0.619,0.586C-0.396,1.058 -0.585,1.501 0.072,2.004C0.405,1.716 0.737,1.427 1.071,1.139C0.737,0.756 0.404,0.371 0.072,-0.013" style="fill:rgb(35,31,32);fill-rule:nonzero;"/>
    </g>
    <g transform="matrix(2,0,0,2,46.676,52.5138)">
        <path d="M0,2.227C-0.86,1.485 -0.975,0.742 -0.072,0C0.781,0.503 0.3,1.006 0.719,1.509C0.479,1.748 0.239,1.988 0,2.227" style="fill:rgb(35,31,32);fill-rule:nonzero;"/>
    </g>
    <g transform="matrix(2,0,0,2,44.2326,55.4598)">
        <path d="M0,-2.623C0.697,-2.096 0.336,-1.568 0.432,-1.042C-0.615,0 -1.161,-2.125 0,-2.623" style="fill:rgb(35,31,32);fill-rule:nonzero;"/>
    </g>
    <g transform="matrix(1.99489,0.142847,0.142847,-1.99489,41.6455,52.0846)">
        <path d="M0.072,0.006C-0.262,0.294 -0.593,0.583 -0.926,0.871C-0.593,1.255 -0.261,1.639 0.072,2.023C0.782,1.617 0.363,1.131 0.671,0.697C0.472,0.467 0.273,0.236 0.072,0.006" style="fill:rgb(35,31,32);fill-rule:nonzero;"/>
    </g>
    <g transform="matrix(2,0,0,2,23.7132,40.064)">
        <path d="M0,1.698C0.191,1.89 0.383,2.082 0.575,2.273C3.151,-0.303 6.301,-3.452 9.125,-6.276C10.048,-7.199 11.002,-8.555 11.927,-9.078C12.188,-9.226 13.94,-9.351 14.082,-9.222C14.244,-9.073 14.141,-7.226 14.011,-6.995C13.476,-6.051 12.101,-5.085 11.137,-4.121C8.474,-1.458 5.297,1.72 2.73,4.285C2.622,4.501 3.105,4.716 3.233,4.931C2.898,5.267 2.563,5.602 2.227,5.937C1.845,5.501 1.462,5.432 1.078,5.363C-0.335,6.776 -1.748,8.189 -3.16,9.601C-3.402,9.96 -2.859,10.32 -3.233,10.678C-3.544,10.932 -3.856,10.67 -4.167,10.895C-4.978,10.008 -6.366,9.123 -5.819,8.236C-5.459,7.811 -5.101,8.197 -4.741,8.165C-3.328,6.752 -1.915,5.339 -0.502,3.926C-0.388,3.519 -0.592,3.111 -1.005,2.704C-0.67,2.369 -0.335,2.034 0,1.698M-0.574,2.704C0.359,3.638 1.294,4.572 2.227,5.507C2.419,5.315 2.61,5.124 2.803,4.932C1.868,3.998 0.934,3.064 0,2.13C-0.191,2.321 -0.383,2.512 -0.574,2.704M-3.376,10.392C-3.551,9.722 -4.692,8.747 -5.316,8.308C-6.301,8.718 -4.088,11.049 -3.376,10.392M12.214,-5.63C12.667,-6.082 13.424,-6.655 13.723,-7.282C13.934,-7.726 13.94,-8.801 13.795,-8.934C13.609,-9.105 12.334,-8.848 12.214,-8.79C11.6,-8.497 11.012,-7.732 10.561,-7.282C7.236,-3.956 3.956,-0.676 0.862,2.417C1.103,2.992 1.963,3.567 2.443,4.141C5.589,0.996 8.982,-2.398 12.214,-5.63M-3.52,9.53C-3.208,9.218 -2.897,8.907 -2.586,8.596C-3.041,7.905 -3.496,8.062 -3.95,7.805C-4.167,8.021 -4.382,8.236 -4.598,8.452C-4.238,8.811 -3.879,9.171 -3.52,9.53M-2.802,8.093C-2.299,7.674 -1.796,8.155 -1.293,7.302C-2.035,6.4 -2.777,6.514 -3.52,7.375C-3.28,7.614 -3.041,7.853 -2.802,8.093M-1.724,6.584C-1.197,6.488 -0.67,6.85 -0.143,6.153C-0.642,4.991 -2.765,5.538 -1.724,6.584M-0.431,5.578C0.024,5.302 0.479,5.755 0.934,5.075C0.575,4.716 0.217,4.357 -0.143,3.998C-0.454,4.309 -0.766,4.62 -1.077,4.931C-0.861,5.147 -0.646,5.362 -0.431,5.578" style="fill:rgb(35,31,32);fill-rule:nonzero;"/>
    </g>
    <g transform="matrix(2,0,0,2,23.7132,40.064)">
        <path d="M0,1.698C0.191,1.89 0.383,2.082 0.575,2.273C3.151,-0.303 6.301,-3.452 9.125,-6.276C10.048,-7.199 11.002,-8.555 11.927,-9.078C12.188,-9.226 13.94,-9.351 14.082,-9.222C14.244,-9.073 14.141,-7.226 14.011,-6.995C13.476,-6.051 12.101,-5.085 11.137,-4.121C8.474,-1.458 5.297,1.72 2.73,4.285C2.622,4.501 3.105,4.716 3.233,4.931C2.898,5.267 2.563,5.602 2.227,5.937C1.845,5.501 1.462,5.432 1.078,5.363C-0.335,6.776 -1.748,8.189 -3.16,9.601C-3.402,9.96 -2.859,10.32 -3.233,10.678C-3.544,10.932 -3.856,10.67 -4.167,10.895C-4.978,10.008 -6.366,9.123 -5.819,8.236C-5.459,7.811 -5.101,8.197 -4.741,8.165C-3.328,6.752 -1.915,5.339 -0.502,3.926C-0.388,3.519 -0.592,3.111 -1.005,2.704C-0.67,2.369 -0.335,2.034 0,1.698ZM-0.574,2.704C0.359,3.638 1.294,4.572 2.227,5.507C2.419,5.315 2.61,5.124 2.803,4.932C1.868,3.998 0.934,3.064 0,2.13C-0.191,2.321 -0.383,2.512 -0.574,2.704ZM-3.376,10.392C-3.551,9.722 -4.692,8.747 -5.316,8.308C-6.301,8.718 -4.088,11.049 -3.376,10.392ZM12.214,-5.63C12.667,-6.082 13.424,-6.655 13.723,-7.282C13.934,-7.726 13.94,-8.801 13.795,-8.934C13.609,-9.105 12.334,-8.848 12.214,-8.79C11.6,-8.497 11.012,-7.732 10.561,-7.282C7.236,-3.956 3.956,-0.676 0.862,2.417C1.103,2.992 1.963,3.567 2.443,4.141C5.589,0.996 8.982,-2.398 12.214,-5.63ZM-3.52,9.53C-3.208,9.218 -2.897,8.907 -2.586,8.596C-3.041,7.905 -3.496,8.062 -3.95,7.805C-4.167,8.021 -4.382,8.236 -4.598,8.452C-4.238,8.811 -3.879,9.171 -3.52,9.53ZM-2.802,8.093C-2.299,7.674 -1.796,8.155 -1.293,7.302C-2.035,6.4 -2.777,6.514 -3.52,7.375C-3.28,7.614 -3.041,7.853 -2.802,8.093ZM-1.724,6.584C-1.197,6.488 -0.67,6.85 -0.143,6.153C-0.642,4.991 -2.765,5.538 -1.724,6.584ZM-0.431,5.578C0.024,5.302 0.479,5.755 0.934,5.075C0.575,4.716 0.217,4.357 -0.143,3.998C-0.454,4.309 -0.766,4.62 -1.077,4.931C-0.861,5.147 -0.646,5.362 -0.431,5.578Z" style="fill:none;fill-rule:nonzero;stroke:rgb(35,31,32);stroke-width:0.68px;"/>
    </g>
    <g transform="matrix(-1.66963,1.10106,1.10106,1.66963,29.6621,49.2932)">
        <path d="M1.115,-3.712C0.85,-2.418 0.584,-1.124 0.318,0.171C0.585,0.225 0.849,0.279 1.115,0.334C1.379,-0.961 1.646,-2.255 1.911,-3.548C1.645,-3.604 1.38,-3.657 1.115,-3.712" style="fill:rgb(35,31,32);fill-rule:nonzero;"/>
    </g>
    <g transform="matrix(2,0,0,2,13.0804,62.1626)">
        <path d="M0,-2.741C0.624,-2.303 1.766,-1.327 1.94,-0.658C1.228,0 -0.984,-2.331 0,-2.741" style="fill:rgb(35,31,32);fill-rule:nonzero;"/>
    </g>
    <g transform="matrix(2,0,0,2,28.5998,21.8546)">
        <path d="M0,13.246C-0.48,12.672 -1.34,12.097 -1.581,11.522C1.513,8.429 4.793,5.149 8.118,1.823C8.568,1.372 9.156,0.608 9.77,0.314C9.891,0.257 11.166,0 11.352,0.17C11.497,0.304 11.491,1.378 11.279,1.823C10.98,2.45 10.224,3.022 9.77,3.475C6.539,6.707 3.145,10.1 0,13.246" style="fill:rgb(35,31,32);fill-rule:nonzero;"/>
    </g>
    <g transform="matrix(-0.142776,1.9949,1.9949,0.142776,17.1053,55.4248)">
        <path d="M0.862,-1.235C0.631,-1.035 0.401,-0.836 0.171,-0.636C0.394,-0.164 0.205,0.279 0.862,0.782C1.195,0.494 1.527,0.206 1.861,-0.083C1.528,-0.467 1.194,-0.852 0.862,-1.235" style="fill:rgb(35,31,32);fill-rule:nonzero;"/>
    </g>
    <g transform="matrix(2,0,0,2,16.674,54.4234)">
        <path d="M0,0.195C0.742,-0.665 1.484,-0.78 2.227,0.123C1.724,0.975 1.221,0.494 0.718,0.913C0.479,0.673 0.239,0.434 0,0.195" style="fill:rgb(35,31,32);fill-rule:nonzero;"/>
    </g>
    <g transform="matrix(2,0,0,2,23.428,51.4412)">
        <path d="M0,0.464C-0.527,1.161 -1.055,0.8 -1.581,0.896C-2.622,-0.151 -0.499,-0.697 0,0.464" style="fill:rgb(35,31,32);fill-rule:nonzero;"/>
    </g>
    <g transform="matrix(-0.141789,1.99497,1.99497,0.141789,23.6047,47.8031)">
        <path d="M1.132,-0.945C0.798,-0.657 0.467,-0.368 0.135,-0.079C0.466,0.305 0.8,0.687 1.132,1.072C1.843,0.666 1.424,0.18 1.731,-0.255C1.531,-0.484 1.332,-0.714 1.132,-0.945" style="fill:rgb(35,31,32);fill-rule:nonzero;"/>
    </g>
</svg>
