<?xml version="1.0" encoding="UTF-8" standalone="no"?>
<!DOCTYPE svg PUBLIC "-//W3C//DTD SVG 1.1//EN" "http://www.w3.org/Graphics/SVG/1.1/DTD/svg11.dtd">
<svg id="hastatiIcon" width="100%" height="100%" viewBox="0 0 37 130" version="1.1" xmlns="http://www.w3.org/2000/svg" xmlns:xlink="http://www.w3.org/1999/xlink" xml:space="preserve" xmlns:serif="http://www.serif.com/" style="fill-rule:evenodd;clip-rule:evenodd;stroke-linecap:round;stroke-miterlimit:2;">
    <g transform="matrix(0.411111,0,0,0.411111,-96.3562,-3.90884)">
        <rect x="234.38" y="9.508" width="90" height="315" style="fill:none;stroke:rgb(35,31,32);stroke-opacity:0;stroke-width:3px;"/>
    </g>
    <g transform="matrix(1.54307,0,0,1.54384,-10.0967,-35.2137)">
        <g transform="matrix(1.33333,0,0,1.33333,28.5773,40.2247)">
            <path d="M0,36.788C0,38.922 -1.722,40.668 -3.827,40.668L-11.289,40.668C-13.394,40.668 -15.116,38.922 -15.116,36.788L-15.116,0.001C-15.116,-2.133 -13.394,-3.88 -11.289,-3.88L-3.827,-3.88C-1.722,-3.88 0,-2.133 0,0.001L0,36.788Z" style="fill:none;fill-rule:nonzero;stroke:black;stroke-width:0.65px;stroke-linecap:butt;stroke-miterlimit:4;"/>
        </g>
        <g transform="matrix(1.33333,0,0,1.33333,18.5003,40.2044)">
            <path d="M0,9.589C0.082,9.589 0.161,9.603 0.24,9.613L0,-0.024L-0.24,9.613C-0.161,9.603 -0.082,9.589 0,9.589" style="fill-rule:nonzero;"/>
        </g>
        <g transform="matrix(0,-1.33333,-1.33333,0,18.5,53.2037)">
            <ellipse cx="-1.726" cy="0" rx="1.726" ry="1.727" style="fill:none;stroke:black;stroke-width:0.65px;stroke-linecap:butt;stroke-miterlimit:10;"/>
        </g>
        <g transform="matrix(1.33333,0,0,1.33333,18.5003,58.0425)">
            <path d="M0,3.144C0.143,3.144 0.28,3.163 0.413,3.193L0.333,-0.049C0.224,-0.03 0.114,-0.015 0,-0.015C-0.114,-0.015 -0.224,-0.03 -0.333,-0.049L-0.414,3.193C-0.28,3.163 -0.143,3.144 0,3.144" style="fill-rule:nonzero;"/>
        </g>
        <g transform="matrix(-1.29872,-0.301832,-0.301832,1.29872,20.6766,64.0773)">
            <path d="M-4.404,-0.505L0.177,-0.505C-0.083,-0.259 -0.276,0.061 -0.363,0.434C-0.449,0.807 -0.417,1.18 -0.293,1.515L-4.404,-0.505Z" style="fill-rule:nonzero;"/>
        </g>
        <g transform="matrix(0,-1.33333,-1.33333,0,13.426,62.1927)">
            <path d="M-1.918,-1.918C-1.535,-1.918 -1.18,-2.035 -0.881,-2.23L-1.918,2.231L-2.955,-2.23C-2.657,-2.035 -2.302,-1.918 -1.918,-1.918" style="fill-rule:nonzero;"/>
        </g>
        <g transform="matrix(0,-1.33333,-1.33333,0,18.5,62.4487)">
            <ellipse cx="-1.726" cy="0" rx="1.726" ry="1.727" style="fill:none;stroke:black;stroke-width:0.65px;stroke-linecap:butt;stroke-miterlimit:10;"/>
        </g>
        <g transform="matrix(-1.33333,0,0,1.33333,18.5003,89.298)">
            <path d="M0,-9.653C0.083,-9.653 0.162,-9.667 0.242,-9.677L0,0.024L-0.242,-9.677C-0.162,-9.667 -0.083,-9.653 0,-9.653" style="fill-rule:nonzero;"/>
        </g>
        <g transform="matrix(1.33333,0,0,1.33333,18.5003,67.2469)">
            <path d="M0,3.111C0.115,3.111 0.225,3.125 0.334,3.145L0.413,-0.034C0.28,-0.004 0.143,0.015 0,0.015C-0.143,0.015 -0.28,-0.004 -0.414,-0.034L-0.334,3.145C-0.225,3.125 -0.115,3.111 0,3.111" style="fill-rule:nonzero;"/>
        </g>
        <g transform="matrix(0,-1.33333,-1.33333,0,18.5,71.6092)">
            <ellipse cx="-1.726" cy="0" rx="1.726" ry="1.727" style="fill:none;stroke:black;stroke-width:0.65px;stroke-linecap:butt;stroke-miterlimit:10;"/>
        </g>
    </g>
</svg>
