<?xml version="1.0" encoding="UTF-8" standalone="no"?>
<!DOCTYPE svg PUBLIC "-//W3C//DTD SVG 1.1//EN" "http://www.w3.org/Graphics/SVG/1.1/DTD/svg11.dtd">
<svg id="jesterIcon" width="100%" height="100%" viewBox="0 0 29 95" version="1.1" xmlns="http://www.w3.org/2000/svg" xmlns:xlink="http://www.w3.org/1999/xlink" xml:space="preserve" xmlns:serif="http://www.serif.com/" style="fill-rule:evenodd;clip-rule:evenodd;stroke-linejoin:round;stroke-miterlimit:2;">
    <g transform="matrix(1.9484,0,0,1.9484,-710.372,-783.118)">
        <rect x="371.124" y="413.347" width="1.696" height="37.34" style="fill:rgb(35,31,32);"/>
    </g>
    <g transform="matrix(1.9484,0,0,1.9484,14.38,28.7258)">
        <path d="M0,-3.326C-1.081,-3.326 -2.11,-3.402 -3.046,-3.539C-3.089,-3.332 -3.113,-3.119 -3.113,-2.901C-3.113,-1.182 -1.72,0.213 0,0.213C1.719,0.213 3.112,-1.182 3.112,-2.901C3.112,-3.119 3.088,-3.332 3.045,-3.539C2.109,-3.402 1.08,-3.326 0,-3.326" style="fill:rgb(35,31,32);fill-rule:nonzero;"/>
    </g>
    <g transform="matrix(1.9484,0,0,1.9484,8.34635,1.78824)">
        <path d="M0,9.601C0.948,9.743 1.995,9.821 3.097,9.821C4.202,9.821 5.255,9.742 6.208,9.598C6.208,9.598 7.061,4.86 9.515,4.593C9.15,3.693 6.743,3.208 4.629,4.958C4.849,2.721 4.095,0.242 3.487,-0.22C2.175,0.923 1.896,4.958 1.896,4.958C1.896,4.958 -0.84,1.748 -3.586,3.718C1.13,5.323 0,9.601 0,9.601" style="fill:rgb(35,31,32);fill-rule:nonzero;"/>
    </g>
    <g transform="matrix(0,-1.9484,-1.9484,0,1.35901,7.67279)">
        <path d="M-0.698,-0.699C-1.083,-0.699 -1.397,-0.387 -1.397,-0.001C-1.397,0.385 -1.083,0.698 -0.698,0.698C-0.312,0.698 0,0.385 0,-0.001C0,-0.387 -0.312,-0.699 -0.698,-0.699" style="fill:rgb(35,31,32);fill-rule:nonzero;"/>
    </g>
    <g transform="matrix(0,-1.9484,-1.9484,0,15.1311,-0.000974199)">
        <path d="M-0.699,-0.699C-1.085,-0.699 -1.397,-0.387 -1.397,-0.001C-1.397,0.386 -1.085,0.699 -0.699,0.699C-0.313,0.699 -0.001,0.386 -0.001,-0.001C-0.001,-0.387 -0.313,-0.699 -0.699,-0.699" style="fill:rgb(35,31,32);fill-rule:nonzero;"/>
    </g>
    <g transform="matrix(0,-1.9484,-1.9484,0,26.8852,9.51266)">
        <path d="M-0.698,-0.699C-1.084,-0.699 -1.397,-0.386 -1.397,-0C-1.397,0.386 -1.084,0.698 -0.698,0.698C-0.313,0.698 0,0.386 0,-0C0,-0.386 -0.313,-0.699 -0.698,-0.699" style="fill:rgb(35,31,32);fill-rule:nonzero;"/>
    </g>
</svg>
