<?xml version="1.0" encoding="UTF-8" standalone="no"?>
<!DOCTYPE svg PUBLIC "-//W3C//DTD SVG 1.1//EN" "http://www.w3.org/Graphics/SVG/1.1/DTD/svg11.dtd">
<svg id="legionnaireIcon" width="100%" height="100%" viewBox="0 0 37 130" version="1.1" xmlns="http://www.w3.org/2000/svg" xmlns:xlink="http://www.w3.org/1999/xlink" xml:space="preserve" xmlns:serif="http://www.serif.com/" style="fill-rule:evenodd;clip-rule:evenodd;stroke-linecap:round;stroke-miterlimit:2;">
    <g transform="matrix(0.411111,0,0,0.411111,-96.3562,-3.90884)">
        <rect x="234.38" y="9.508" width="90" height="315" style="fill:none;stroke:rgb(35,31,32);stroke-opacity:0;stroke-width:3px;"/>
    </g>
    <g transform="matrix(1.54389,0,0,1.54389,-10.062,-163.975)">
        <g transform="matrix(1.33333,0,0,1.33333,28.5773,123.623)">
            <path d="M0,36.788C0,38.922 -1.722,40.668 -3.827,40.668L-11.289,40.668C-13.393,40.668 -15.116,38.922 -15.116,36.788L-15.116,0.001C-15.116,-2.133 -13.393,-3.88 -11.289,-3.88L-3.827,-3.88C-1.722,-3.88 0,-2.133 0,0.001L0,36.788Z" style="fill:none;fill-rule:nonzero;stroke:black;stroke-width:0.65px;stroke-linecap:butt;stroke-miterlimit:10;"/>
        </g>
        <g transform="matrix(1.33333,0,0,1.33333,16.4701,122.354)">
            <path d="M0,2.637L1.523,0L3.045,2.637L0,2.637Z" style="fill-rule:nonzero;"/>
        </g>
        <g transform="matrix(1.33333,0,0,1.33333,16.4701,173.944)">
            <path d="M0,-2.637L1.523,0L3.045,-2.637L0,-2.637Z" style="fill-rule:nonzero;"/>
        </g>
        <g transform="matrix(1.33333,0,0,1.33333,22.4943,166.042)">
            <path d="M0,-26.84L-0.984,-23.732L0.647,-18.579L-0.984,-13.424L0.647,-8.27L-0.984,-3.113L0.001,0" style="fill:none;fill-rule:nonzero;stroke:black;stroke-width:0.65px;stroke-linecap:butt;stroke-miterlimit:4;"/>
        </g>
        <g transform="matrix(1.33333,0,0,1.33333,20.4297,128.919)">
            <path d="M0,0.849L2.357,-1.078L2.848,1.927L0,0.849Z" style="fill-rule:nonzero;"/>
        </g>
        <g transform="matrix(1.33333,0,0,1.33333,20.4307,167.38)">
            <path d="M0,-0.851L2.357,1.077L2.848,-1.928L0,-0.851Z" style="fill-rule:nonzero;"/>
        </g>
        <g transform="matrix(1.33333,0,0,1.33333,14.4496,130.255)">
            <path d="M0,26.84L0.984,23.732L-0.647,18.579L0.984,13.424L-0.647,8.27L0.984,3.113L0,0" style="fill:none;fill-rule:nonzero;stroke:black;stroke-width:0.65px;stroke-linecap:butt;stroke-miterlimit:4;"/>
        </g>
        <g transform="matrix(1.33333,0,0,1.33333,16.5141,167.378)">
            <path d="M0,-0.849L-2.357,1.078L-2.848,-1.927L0,-0.849Z" style="fill-rule:nonzero;"/>
        </g>
        <g transform="matrix(1.33333,0,0,1.33333,16.5133,128.918)">
            <path d="M0,0.851L-2.357,-1.077L-2.848,1.928L0,0.851Z" style="fill-rule:nonzero;"/>
        </g>
        <g transform="matrix(1.33333,0,0,1.33333,18.5001,151.937)">
            <path d="M0,-5.682C-1.569,-5.682 -2.841,-4.41 -2.841,-2.841C-2.841,-1.272 -1.569,0 0,0C1.569,0 2.841,-1.272 2.841,-2.841C2.841,-4.41 1.569,-5.682 0,-5.682M0,-1.357C-0.819,-1.357 -1.484,-2.021 -1.484,-2.841C-1.484,-3.66 -0.819,-4.325 0,-4.325C0.82,-4.325 1.484,-3.66 1.484,-2.841C1.484,-2.021 0.82,-1.357 0,-1.357" style="fill-rule:nonzero;"/>
        </g>
        <g transform="matrix(1.33333,0,0,1.33333,18.5001,125.321)">
            <path d="M0,15.184C0.116,15.184 0.229,15.199 0.339,15.218L0.339,-0.034L-0.339,-0.034L-0.339,15.218C-0.229,15.199 -0.116,15.184 0,15.184" style="fill-rule:nonzero;"/>
        </g>
        <g transform="matrix(1.33333,0,0,1.33333,18.5001,170.976)">
            <path d="M0,-15.184C-0.116,-15.184 -0.229,-15.199 -0.339,-15.218L-0.339,0.034L0.339,0.034L0.339,-15.218C0.229,-15.199 0.116,-15.184 0,-15.184" style="fill-rule:nonzero;"/>
        </g>
    </g>
</svg>
