<?xml version="1.0" encoding="UTF-8" standalone="no"?>
<!DOCTYPE svg PUBLIC "-//W3C//DTD SVG 1.1//EN" "http://www.w3.org/Graphics/SVG/1.1/DTD/svg11.dtd">
<svg id="maidMarionIcon" width="100%" height="100%" viewBox="0 0 47 135" version="1.1" xmlns="http://www.w3.org/2000/svg" xmlns:xlink="http://www.w3.org/1999/xlink" xml:space="preserve" xmlns:serif="http://www.serif.com/" style="fill-rule:evenodd;clip-rule:evenodd;stroke-miterlimit:10;">
    <g transform="matrix(-2.43966,0,0,2.43966,457.226,-1006.83)">
        <rect x="176.3" y="413.61" width="3.667" height="54.419" style="fill:rgb(35,31,32);"/>
    </g>
    <g transform="matrix(2.43966,0,0,2.43966,27.1147,6.92119)">
        <path d="M0,-1.92C0,-1.92 -2.707,-3.861 -5.414,-2.095C-8.121,-0.328 -9.257,-0.766 -9.257,-0.766C-9.257,-0.766 -5.677,1.941 -1.834,0.195" style="fill:rgb(35,31,32);fill-rule:nonzero;"/>
    </g>
    <g transform="matrix(2.43966,0,0,2.43966,13.2131,21.6221)">
        <path d="M0,32.852L-2.401,32.852C-2.401,26.707 0.661,23.571 3.363,20.803C5.985,18.116 8.252,15.795 8.252,11.022C8.252,1.041 10.653,0 10.653,11.022C10.653,16.774 7.821,19.675 5.081,22.482C2.469,25.158 0,27.685 0,32.852Z" style="fill:rgb(35,31,32);fill-rule:nonzero;stroke:white;stroke-width:0.6px;"/>
    </g>
    <g transform="matrix(2.43966,0,0,2.43966,13.2131,6.76213)">
        <path d="M0,38.943L-2.401,38.943C-2.401,32.798 0.661,29.662 3.363,26.894C5.985,24.207 8.252,21.886 8.252,17.113C8.252,7.132 3.063,1.746 3.01,1.692L4.715,0C4.958,0.243 10.653,6.091 10.653,17.113C10.653,22.865 7.821,25.766 5.081,28.573C2.469,31.249 0,33.776 0,38.943" style="fill:rgb(35,31,32);fill-rule:nonzero;"/>
    </g>
</svg>
