<?xml version="1.0" encoding="UTF-8" standalone="no"?>
<!DOCTYPE svg PUBLIC "-//W3C//DTD SVG 1.1//EN" "http://www.w3.org/Graphics/SVG/1.1/DTD/svg11.dtd">
<svg id="optioIcon" width="100%" height="100%" viewBox="0 0 37 130" version="1.1" xmlns="http://www.w3.org/2000/svg" xmlns:xlink="http://www.w3.org/1999/xlink" xml:space="preserve" xmlns:serif="http://www.serif.com/" style="fill-rule:evenodd;clip-rule:evenodd;stroke-linecap:round;stroke-miterlimit:2;">
    <g transform="matrix(0.411111,0,0,0.291111,-96.3562,-2.76788)">
        <rect x="234.38" y="9.508" width="90" height="315" style="fill:none;stroke:rgb(35,31,32);stroke-opacity:0;stroke-width:3px;"/>
    </g>
    <g transform="matrix(1.726,0,0,1.72686,-13.481,-47.0644)">
        <g transform="matrix(1.33333,0,0,1.33333,28.5773,40.2247)">
            <path d="M0,36.788C0,38.922 -1.722,40.668 -3.827,40.668L-11.289,40.668C-13.393,40.668 -15.116,38.922 -15.116,36.788L-15.116,0.001C-15.116,-2.133 -13.393,-3.88 -11.289,-3.88L-3.827,-3.88C-1.722,-3.88 0,-2.133 0,0.001L0,36.788Z" style="fill:none;fill-rule:nonzero;stroke:black;stroke-width:0.58px;stroke-linecap:butt;stroke-miterlimit:10;"/>
        </g>
        <g transform="matrix(1.33333,0,0,1.33333,18.5001,68.5384)">
            <path d="M0,-5.682C-1.569,-5.682 -2.841,-4.41 -2.841,-2.841C-2.841,-1.272 -1.569,0 0,0C1.569,0 2.841,-1.272 2.841,-2.841C2.841,-4.41 1.569,-5.682 0,-5.682M-0.092,-1.357C-0.911,-1.357 -1.576,-2.021 -1.576,-2.841C-1.576,-3.66 -0.911,-4.325 -0.092,-4.325C0.728,-4.325 1.392,-3.66 1.392,-2.841C1.392,-2.021 0.728,-1.357 -0.092,-1.357" style="fill-rule:nonzero;"/>
        </g>
        <g transform="matrix(1.33333,0,0,1.33333,11.4792,50.2152)">
            <path d="M0,-9.212L1.218,0L2.178,-1.084L0,-9.212Z" style="fill-rule:nonzero;"/>
        </g>
        <g transform="matrix(1.33333,0,0,1.33333,12.9197,57.2299)">
            <path d="M0,-9.212L1.218,0L2.178,-1.084L0,-9.212Z" style="fill-rule:nonzero;"/>
        </g>
        <g transform="matrix(1.33333,0,0,1.33333,14.1724,63.5557)">
            <path d="M0,-9.212L1.218,0L2.178,-1.084L0,-9.212Z" style="fill-rule:nonzero;"/>
        </g>
        <g transform="matrix(1.33333,0,0,1.33333,25.5212,50.2152)">
            <path d="M0,-9.212L-1.218,0L-2.178,-1.084L0,-9.212Z" style="fill-rule:nonzero;"/>
        </g>
        <g transform="matrix(1.33333,0,0,1.33333,24.0805,57.2299)">
            <path d="M0,-9.212L-1.218,0L-2.178,-1.084L0,-9.212Z" style="fill-rule:nonzero;"/>
        </g>
        <g transform="matrix(1.33333,0,0,1.33333,22.828,63.5557)">
            <path d="M0,-9.212L-1.218,0L-2.178,-1.084L0,-9.212Z" style="fill-rule:nonzero;"/>
        </g>
        <g transform="matrix(1.33333,0,0,1.33333,11.4792,79.6972)">
            <path d="M0,9.212L1.218,0L2.178,1.084L0,9.212Z" style="fill-rule:nonzero;"/>
        </g>
        <g transform="matrix(1.33333,0,0,1.33333,12.9197,72.6824)">
            <path d="M0,9.212L1.218,0L2.178,1.084L0,9.212Z" style="fill-rule:nonzero;"/>
        </g>
        <g transform="matrix(1.33333,0,0,1.33333,14.1724,66.3565)">
            <path d="M0,9.212L1.218,0L2.178,1.084L0,9.212Z" style="fill-rule:nonzero;"/>
        </g>
        <g transform="matrix(1.33333,0,0,1.33333,25.5212,79.6972)">
            <path d="M0,9.212L-1.218,0L-2.178,1.084L0,9.212Z" style="fill-rule:nonzero;"/>
        </g>
        <g transform="matrix(1.33333,0,0,1.33333,24.0805,72.6824)">
            <path d="M0,9.212L-1.218,0L-2.178,1.084L0,9.212Z" style="fill-rule:nonzero;"/>
        </g>
        <g transform="matrix(1.33333,0,0,1.33333,22.828,66.3565)">
            <path d="M0,9.212L-1.218,0L-2.178,1.084L0,9.212Z" style="fill-rule:nonzero;"/>
        </g>
    </g>
</svg>
