<?xml version="1.0" encoding="UTF-8" standalone="no"?>
<!DOCTYPE svg PUBLIC "-//W3C//DTD SVG 1.1//EN" "http://www.w3.org/Graphics/SVG/1.1/DTD/svg11.dtd">
<svg id="primusPilusIcon" width="100%" height="100%" viewBox="0 0 37 130" version="1.1" xmlns="http://www.w3.org/2000/svg" xmlns:xlink="http://www.w3.org/1999/xlink" xml:space="preserve" xmlns:serif="http://www.serif.com/" style="fill-rule:evenodd;clip-rule:evenodd;stroke-linecap:round;stroke-miterlimit:2;">
    <g transform="matrix(0.411111,0,0,0.411111,-96.3562,-3.90884)">
        <rect x="234.38" y="9.508" width="90" height="315" style="fill:none;stroke:rgb(35,31,32);stroke-opacity:0;stroke-width:3px;"/>
    </g>
    <g transform="matrix(1.44675,0,0,1.44675,-8.51841,-33.3867)">
        <g transform="matrix(0,-1.33333,-1.33333,0,19.2867,40.6857)">
            <path d="M-4.778,-3.908C-7.207,-3.908 -6.867,-1.939 -6.867,0.49C-6.867,2.919 -7.207,4.778 -4.778,4.778C-2.349,4.778 -1.479,2.919 -1.479,0.49C-1.479,-1.939 -2.349,-3.908 -4.778,-3.908" style="fill-rule:nonzero;"/>
        </g>
        <g transform="matrix(1.33333,0,0,1.33333,13.3397,59.0349)">
            <path d="M0,-8.819C0,-8.819 -0.898,-7.994 -0.898,-7.665C-0.898,-7.335 -0.55,-7.206 -0.55,-7.206L-0.623,-5.246C-0.623,-5.246 -0.692,-5.035 -0.843,-4.998C-0.994,-4.961 -1.136,-4.622 -1.086,-4.151C-1.035,-3.679 -0.976,-2.378 -0.529,-1.931C-0.083,-1.484 1.196,0 1.814,-0.344C2.433,-0.687 1.477,-1.484 1.477,-1.484C1.477,-1.484 0.749,-2.048 1.244,-2.646C1.739,-3.244 1.471,-4.116 1.175,-4.329C0.88,-4.542 0.701,-5.284 0.832,-5.614L4.089,-5.662L3.938,-7.573L0,-8.819Z" style="fill-rule:nonzero;"/>
        </g>
        <g transform="matrix(1.33333,0,0,1.33333,24.0736,59.0349)">
            <path d="M0,-8.819C0,-8.819 0.898,-7.994 0.898,-7.665C0.898,-7.335 0.55,-7.206 0.55,-7.206L0.623,-5.246C0.623,-5.246 0.692,-5.035 0.843,-4.998C0.994,-4.961 1.136,-4.622 1.086,-4.151C1.035,-3.679 0.976,-2.378 0.529,-1.931C0.082,-1.484 -1.196,0 -1.814,-0.344C-2.433,-0.687 -1.477,-1.484 -1.477,-1.484C-1.477,-1.484 -0.749,-2.048 -1.244,-2.646C-1.739,-3.244 -1.471,-4.116 -1.175,-4.329C-0.88,-4.542 -0.701,-5.284 -0.831,-5.614L-4.089,-5.662L-3.938,-7.573L0,-8.819Z" style="fill-rule:nonzero;"/>
        </g>
        <g transform="matrix(1.33333,0,0,1.33333,-202.086,-542.545)">
            <rect x="165.378" y="436.636" width="0.422" height="2.944"/>
        </g>
        <g transform="matrix(1.33333,0,0,1.33333,18.4665,46.4697)">
            <path d="M0,-10.775C-10.06,-10.775 -8.246,0 -8.246,0C-8.246,0 -8.008,-0.275 -7.697,-0.623C-7.385,-0.971 -6.469,-1.063 -6.066,-1.136C-5.738,-1.196 -4.987,-1.449 -4.677,-1.542C-4.405,-4.211 -2.358,-6.285 0.128,-6.285C2.541,-6.285 4.54,-4.332 4.905,-1.777C5.544,-1.737 7.044,-1.348 7.275,-1.118C7.568,-0.824 8.796,-1.301 8.796,-1.301C8.796,-1.301 10.061,-10.775 0,-10.775" style="fill-rule:nonzero;"/>
        </g>
        <g transform="matrix(1.33333,0,0,1.33333,18.6376,43.0785)">
            <path d="M0,-2.463C1.944,-2.463 3.546,-0.9 3.778,1.118L4.657,1.118C4.508,-1.504 2.481,-3.581 0,-3.581C-2.481,-3.581 -4.508,-1.504 -4.657,1.118L-3.778,1.118C-3.546,-0.9 -1.944,-2.463 0,-2.463Z" style="fill:none;fill-rule:nonzero;stroke:black;stroke-width:0.69px;stroke-linecap:butt;stroke-miterlimit:10;"/>
        </g>
        <g transform="matrix(0,-1.33333,-1.33333,0,18.6408,72.12)">
            <path d="M-2.206,-2.206C-3.424,-2.206 -4.411,-1.219 -4.411,-0.001C-4.411,1.217 -3.424,2.206 -2.206,2.206C-0.988,2.206 -0.001,1.217 -0.001,-0.001C-0.001,-1.219 -0.988,-2.206 -2.206,-2.206" style="fill-rule:nonzero;"/>
        </g>
        <g transform="matrix(0,-1.33333,-1.33333,0,10.8375,72.12)">
            <path d="M-2.206,-2.206C-3.424,-2.206 -4.411,-1.219 -4.411,-0.001C-4.411,1.217 -3.424,2.206 -2.206,2.206C-0.988,2.206 -0.001,1.217 -0.001,-0.001C-0.001,-1.219 -0.988,-2.206 -2.206,-2.206" style="fill-rule:nonzero;"/>
        </g>
        <g transform="matrix(0,-1.33333,-1.33333,0,26.4441,72.12)">
            <path d="M-2.206,-2.206C-3.424,-2.206 -4.411,-1.219 -4.411,-0.001C-4.411,1.217 -3.424,2.206 -2.206,2.206C-0.988,2.206 -0.001,1.217 -0.001,-0.001C-0.001,-1.219 -0.988,-2.206 -2.206,-2.206" style="fill-rule:nonzero;"/>
        </g>
        <g transform="matrix(0,-1.33333,-1.33333,0,18.6408,80.2061)">
            <path d="M-2.206,-2.206C-3.424,-2.206 -4.411,-1.219 -4.411,-0.001C-4.411,1.217 -3.424,2.206 -2.206,2.206C-0.988,2.206 -0.001,1.217 -0.001,-0.001C-0.001,-1.219 -0.988,-2.206 -2.206,-2.206" style="fill-rule:nonzero;"/>
        </g>
        <g transform="matrix(0,-1.33333,-1.33333,0,18.6408,88.2356)">
            <path d="M-2.206,-2.206C-3.424,-2.206 -4.411,-1.219 -4.411,-0.001C-4.411,1.217 -3.424,2.206 -2.206,2.206C-0.988,2.206 -0.001,1.217 -0.001,-0.001C-0.001,-1.219 -0.988,-2.206 -2.206,-2.206" style="fill-rule:nonzero;"/>
        </g>
        <g transform="matrix(0,-1.33333,-1.33333,0,10.8375,80.2061)">
            <path d="M-2.206,-2.206C-3.424,-2.206 -4.411,-1.219 -4.411,-0.001C-4.411,1.217 -3.424,2.206 -2.206,2.206C-0.988,2.206 -0.001,1.217 -0.001,-0.001C-0.001,-1.219 -0.988,-2.206 -2.206,-2.206" style="fill-rule:nonzero;"/>
        </g>
        <g transform="matrix(0,-1.33333,-1.33333,0,26.4441,80.2061)">
            <path d="M-2.206,-2.206C-3.424,-2.206 -4.411,-1.219 -4.411,-0.001C-4.411,1.217 -3.424,2.206 -2.206,2.206C-0.988,2.206 -0.001,1.217 -0.001,-0.001C-0.001,-1.219 -0.988,-2.206 -2.206,-2.206" style="fill-rule:nonzero;"/>
        </g>
        <g transform="matrix(1.33333,0,0,1.33333,11.0773,92.3986)">
            <path d="M0,-12.775L6.984,-5.814M11.134,-12.775L4.149,-5.814M0,-6.961L6.984,0M11.134,-6.961L4.149,0M5.546,-12.775L-1.438,-5.814M5.587,-12.775L12.572,-5.814M11.339,-12.775L11.339,-7.002M-0.164,-12.775L-0.164,-7.002" style="fill:none;fill-rule:nonzero;stroke:black;stroke-width:1.38px;stroke-linecap:butt;stroke-miterlimit:4;"/>
        </g>
    </g>
</svg>
