<?xml version="1.0" encoding="UTF-8" standalone="no"?>
<!DOCTYPE svg PUBLIC "-//W3C//DTD SVG 1.1//EN" "http://www.w3.org/Graphics/SVG/1.1/DTD/svg11.dtd">
<svg id="robinHoodIcon" width="100%" height="100%" viewBox="0 0 7 135" version="1.1" xmlns="http://www.w3.org/2000/svg" xmlns:xlink="http://www.w3.org/1999/xlink" xml:space="preserve" xmlns:serif="http://www.serif.com/" style="fill-rule:evenodd;clip-rule:evenodd;stroke-linejoin:round;stroke-miterlimit:2;">
    <g transform="matrix(2.13141,0,0,2.13141,4.21166,122.753)">
        <path d="M0,-20.487L0.954,-22.757L-0.514,-26.233L-1.976,-22.754L-1.018,-20.487L-1.002,-4.8L-1.849,-3.527L-1.84,5.746L-0.484,3.71L0.874,5.744L0.865,-3.531L0.016,-4.801L0,-20.487Z" style="fill:rgb(35,31,32);fill-rule:nonzero;"/>
    </g>
    <g transform="matrix(2.13141,0,0,2.13141,4.21166,55.9132)">
        <path d="M0,-20.487L0.954,-22.757L-0.514,-26.233L-1.976,-22.754L-1.018,-20.487L-1.002,-4.8L-1.849,-3.528L-1.84,5.746L-0.484,3.71L0.874,5.744L0.865,-3.53L0.016,-4.801L0,-20.487Z" style="fill:rgb(35,31,32);fill-rule:nonzero;"/>
    </g>
</svg>
