<?xml version="1.0" encoding="UTF-8" standalone="no"?>
<!DOCTYPE svg PUBLIC "-//W3C//DTD SVG 1.1//EN" "http://www.w3.org/Graphics/SVG/1.1/DTD/svg11.dtd">
<svg id="rochefortIcon" width="100%" height="100%" viewBox="0 0 25 120" version="1.1" xmlns="http://www.w3.org/2000/svg" xmlns:xlink="http://www.w3.org/1999/xlink" xml:space="preserve" xmlns:serif="http://www.serif.com/" style="fill-rule:evenodd;clip-rule:evenodd;stroke-linejoin:round;stroke-miterlimit:2;">
    <g transform="matrix(1.92988,0,0,1.92988,0,105.273)">
        <path d="M0,-46.918L4.245,-47.081C3.787,-46.816 3.41,-46.433 3.41,-45.899C3.41,-44.93 4.644,-44.209 5.354,-43.873C5.387,-31.692 5.555,7.631 6.332,7.631C7.115,7.631 7.278,-32.305 7.311,-44.149C8.283,-44.668 10.068,-45.894 8.084,-47.094L12.663,-46.918L12.663,-47.831L6.866,-47.646C6.963,-48.243 7.022,-48.984 7.022,-49.8C7.022,-50.895 6.917,-51.86 6.755,-52.508C6.884,-52.73 7.086,-53.006 7.307,-53.006L6.96,-54.549L5.723,-54.549L5.358,-52.986C5.358,-52.986 5.672,-52.775 5.824,-52.496C5.664,-51.849 5.561,-50.889 5.561,-49.8C5.561,-49.209 5.594,-48.66 5.646,-48.171C5.36,-48.023 4.742,-48.093 3.664,-49.998C2.082,-52.797 4.711,-53.136 4.711,-53.136C4.711,-53.136 5.078,-53.277 4.966,-53.589C4.852,-53.9 4.457,-53.787 4.457,-53.787C4.457,-53.787 2.309,-53.418 2.703,-50.252C2.885,-48.803 3.451,-48.074 4.078,-47.701L0,-47.831L0,-46.918ZM4.372,-45.955C4.372,-46.689 4.915,-46.903 5.348,-46.962C5.349,-46.464 5.35,-45.577 5.353,-44.373C5.072,-44.52 4.372,-44.981 4.372,-45.955M7.311,-44.817C7.315,-45.905 7.315,-46.691 7.315,-47.101C7.733,-46.842 8.132,-46.451 8.132,-45.899C8.132,-45.37 7.739,-45.031 7.311,-44.817" style="fill:rgb(35,31,32);fill-rule:nonzero;"/>
    </g>
</svg>
