<?xml version="1.0" encoding="UTF-8" standalone="no"?>
<!DOCTYPE svg PUBLIC "-//W3C//DTD SVG 1.1//EN" "http://www.w3.org/Graphics/SVG/1.1/DTD/svg11.dtd">
<svg id="tribuneIcon" width="100%" height="100%" viewBox="0 0 37 130" version="1.1" xmlns="http://www.w3.org/2000/svg" xmlns:xlink="http://www.w3.org/1999/xlink" xml:space="preserve" xmlns:serif="http://www.serif.com/" style="fill-rule:evenodd;clip-rule:evenodd;stroke-linecap:round;stroke-miterlimit:2;">
    <g transform="matrix(0.411111,0,0,0.411111,-96.3562,-3.90884)">
        <rect x="234.38" y="9.508" width="90" height="315" style="fill:none;stroke:rgb(35,31,32);stroke-opacity:0;stroke-width:3px;"/>
    </g>
    <g transform="matrix(1.44887,0,0,1.44887,-8.62485,-32.2281)">
        <g transform="matrix(1.33333,0,0,1.33333,12.2888,59.0479)">
            <path d="M0,29.732L0.216,29.18C0.277,29.159 0.329,29.114 0.354,29.05C0.379,28.985 0.371,28.917 0.34,28.86L0.346,28.847C0.406,28.826 0.459,28.782 0.484,28.717C0.509,28.653 0.501,28.585 0.47,28.528L0.475,28.514C0.536,28.493 0.589,28.449 0.614,28.384C0.639,28.32 0.631,28.252 0.6,28.195L0.605,28.181C0.666,28.16 0.719,28.116 0.744,28.052C0.769,27.987 0.761,27.919 0.73,27.862L0.735,27.849C0.796,27.828 0.849,27.783 0.874,27.719C0.899,27.654 0.891,27.586 0.86,27.529L0.865,27.516C0.926,27.495 0.979,27.451 1.004,27.386C1.029,27.322 1.02,27.254 0.99,27.197L0.995,27.183C1.056,27.162 1.109,27.118 1.134,27.053C1.159,26.989 1.15,26.921 1.12,26.864L1.125,26.85C1.186,26.829 1.239,26.785 1.264,26.721C1.289,26.656 1.28,26.588 1.25,26.531L1.255,26.518C1.316,26.496 1.369,26.452 1.394,26.388C1.419,26.323 1.41,26.255 1.38,26.198L1.385,26.185C1.446,26.164 1.499,26.12 1.524,26.055C1.549,25.991 1.54,25.922 1.51,25.866L1.515,25.852C1.576,25.831 1.629,25.787 1.654,25.722C1.679,25.658 1.67,25.59 1.64,25.533L1.645,25.519C1.706,25.498 1.758,25.454 1.784,25.39C1.809,25.325 1.8,25.257 1.77,25.2L1.775,25.187C1.836,25.165 1.888,25.121 1.914,25.057C1.939,24.992 1.93,24.924 1.9,24.867L2.361,23.687L2.87,23.886L10.942,3.215L11.453,-1.326L8.699,2.339L0.627,23.01L1.136,23.209L0.675,24.389C0.614,24.41 0.562,24.454 0.536,24.519C0.511,24.583 0.52,24.651 0.55,24.708L0.545,24.722C0.484,24.743 0.432,24.787 0.406,24.852C0.381,24.916 0.39,24.984 0.42,25.041L0.415,25.055C0.354,25.076 0.302,25.12 0.276,25.184C0.251,25.249 0.26,25.317 0.29,25.374L0.285,25.387C0.224,25.409 0.172,25.453 0.147,25.517C0.121,25.582 0.13,25.65 0.161,25.707L0.155,25.72C0.094,25.741 0.042,25.785 0.017,25.85C-0.009,25.915 0,25.983 0.031,26.04L0.025,26.053C-0.036,26.074 -0.088,26.118 -0.113,26.183C-0.138,26.247 -0.13,26.315 -0.099,26.372L-0.105,26.386C-0.166,26.407 -0.218,26.451 -0.243,26.516C-0.268,26.58 -0.26,26.648 -0.229,26.705L-0.235,26.718C-0.296,26.74 -0.348,26.784 -0.373,26.848C-0.398,26.913 -0.39,26.981 -0.359,27.038L-0.364,27.051C-0.425,27.072 -0.478,27.117 -0.503,27.181C-0.528,27.246 -0.52,27.314 -0.489,27.371L-0.494,27.384C-0.555,27.405 -0.608,27.449 -0.633,27.514C-0.658,27.578 -0.65,27.646 -0.619,27.703L-0.624,27.717C-0.685,27.738 -0.738,27.782 -0.763,27.847C-0.788,27.911 -0.78,27.979 -0.749,28.036L-0.754,28.049C-0.815,28.071 -0.868,28.115 -0.893,28.179C-0.918,28.244 -0.909,28.312 -0.879,28.369L-0.884,28.382C-0.945,28.404 -0.998,28.448 -1.023,28.512C-1.048,28.577 -1.039,28.645 -1.009,28.702L-1.225,29.254C-1.656,29.222 -2.006,29.343 -2.107,29.602C-2.257,29.985 -1.813,30.515 -1.117,30.786C-0.422,31.058 0.264,30.969 0.413,30.586C0.514,30.327 0.338,30.001 0,29.732" style="fill-rule:nonzero;"/>
        </g>
        <g transform="matrix(0,-1.33333,-1.33333,0,19.3269,39.7965)">
            <path d="M-4.778,-3.908C-7.207,-3.908 -6.867,-1.939 -6.867,0.49C-6.867,2.919 -7.207,4.778 -4.778,4.778C-2.349,4.778 -1.479,2.919 -1.479,0.49C-1.479,-1.939 -2.349,-3.908 -4.778,-3.908" style="fill-rule:nonzero;"/>
        </g>
        <g transform="matrix(1.33333,0,0,1.33333,13.38,58.1457)">
            <path d="M0,-8.819C0,-8.819 -0.898,-7.994 -0.898,-7.665C-0.898,-7.335 -0.55,-7.206 -0.55,-7.206L-0.623,-5.246C-0.623,-5.246 -0.692,-5.035 -0.843,-4.998C-0.994,-4.961 -1.136,-4.622 -1.086,-4.151C-1.035,-3.679 -0.976,-2.378 -0.529,-1.931C-0.082,-1.484 1.196,0 1.814,-0.344C2.433,-0.687 1.477,-1.484 1.477,-1.484C1.477,-1.484 0.749,-2.048 1.244,-2.646C1.739,-3.244 1.471,-4.116 1.175,-4.329C0.88,-4.542 0.701,-5.284 0.832,-5.614L4.089,-5.662L3.938,-7.573L0,-8.819Z" style="fill-rule:nonzero;"/>
        </g>
        <g transform="matrix(1.33333,0,0,1.33333,24.1138,58.1457)">
            <path d="M0,-8.819C0,-8.819 0.898,-7.994 0.898,-7.665C0.898,-7.335 0.55,-7.206 0.55,-7.206L0.623,-5.246C0.623,-5.246 0.692,-5.035 0.843,-4.998C0.994,-4.961 1.136,-4.622 1.086,-4.151C1.035,-3.679 0.976,-2.378 0.529,-1.931C0.082,-1.484 -1.196,0 -1.814,-0.344C-2.433,-0.687 -1.477,-1.484 -1.477,-1.484C-1.477,-1.484 -0.749,-2.048 -1.244,-2.646C-1.739,-3.244 -1.471,-4.116 -1.175,-4.329C-0.88,-4.542 -0.701,-5.284 -0.832,-5.614L-4.089,-5.662L-3.938,-7.573L0,-8.819Z" style="fill-rule:nonzero;"/>
        </g>
        <g transform="matrix(1.33333,0,0,1.33333,-362.816,-667.302)">
            <rect x="285.955" y="529.537" width="0.421" height="2.944"/>
        </g>
        <g transform="matrix(-1.33333,0,0,1.33333,400.292,-679.457)">
            <rect x="285.396" y="531.488" width="1.539" height="8.158"/>
        </g>
        <g transform="matrix(-1.33333,0,0,1.33333,400.222,-651.29)">
            <rect x="284.888" y="524.008" width="2.502" height="1.993"/>
        </g>
    </g>
</svg>
