<?xml version="1.0" encoding="UTF-8" standalone="no"?>
<!DOCTYPE svg PUBLIC "-//W3C//DTD SVG 1.1//EN" "http://www.w3.org/Graphics/SVG/1.1/DTD/svg11.dtd">
<svg id="warDogsIcon" width="100%" height="100%" viewBox="0 0 37 130" version="1.1" xmlns="http://www.w3.org/2000/svg" xmlns:xlink="http://www.w3.org/1999/xlink" xml:space="preserve" xmlns:serif="http://www.serif.com/" style="fill-rule:evenodd;clip-rule:evenodd;stroke-linecap:round;stroke-miterlimit:2;">
    <g transform="matrix(0.411111,0,0,0.411111,-96.3562,-3.90884)">
        <rect x="234.38" y="9.508" width="90" height="315" style="fill:none;stroke:rgb(35,31,32);stroke-opacity:0;stroke-width:3px;"/>
    </g>
    <g transform="matrix(1.51846,0,0,1.51846,-9.54639,-33.7193)">
        <g transform="matrix(1.33333,0,0,1.33333,24.8284,83.8874)">
            <path d="M0,4.535C0.001,5.35 -0.497,5.86 -1.35,5.959C-2.059,6.041 -2.75,5.937 -3.421,5.753C-4.365,5.495 -5.279,5.57 -6.218,5.778C-6.811,5.909 -7.437,5.966 -8.044,5.944C-9.131,5.903 -9.674,5.116 -9.429,4.057C-9.27,3.371 -8.848,2.866 -8.326,2.431C-7.691,1.902 -7.076,1.36 -6.736,0.577C-6.626,0.324 -6.487,0.082 -6.346,-0.157C-6.242,-0.333 -6.126,-0.505 -5.995,-0.662C-5.296,-1.505 -4.152,-1.506 -3.464,-0.651C-3.228,-0.357 -2.998,-0.044 -2.837,0.294C-2.381,1.254 -1.71,2.018 -0.886,2.679C-0.279,3.166 -0.001,3.83 0,4.535" style="fill-rule:nonzero;"/>
        </g>
        <g transform="matrix(1.33333,0,0,1.33333,19.1637,77.2865)">
            <path d="M0,0.447C0.084,-0.521 0.367,-1.35 1.132,-1.961C1.927,-2.597 2.858,-2.44 3.402,-1.584C4.322,-0.139 3.822,1.91 2.373,2.63C1.54,3.044 0.752,2.778 0.407,1.913C0.22,1.445 0.132,0.937 0,0.447" style="fill-rule:nonzero;"/>
        </g>
        <g transform="matrix(1.33333,0,0,1.33333,17.5792,77.3154)">
            <path d="M0,0.576C-0.029,1.113 -0.12,1.684 -0.418,2.208C-0.805,2.887 -1.465,3.115 -2.183,2.808C-3.282,2.337 -4.027,0.876 -3.745,-0.284C-3.664,-0.62 -3.579,-0.965 -3.425,-1.271C-2.869,-2.376 -1.711,-2.539 -0.841,-1.658C-0.244,-1.052 -0.011,-0.308 0,0.576" style="fill-rule:nonzero;"/>
        </g>
        <g transform="matrix(1.33333,0,0,1.33333,23.8687,83.3193)">
            <path d="M0,0.912C0.189,-0.201 0.476,-1.233 1.467,-1.881C1.964,-2.206 2.531,-2.204 3.065,-1.976C3.648,-1.727 3.79,-1.175 3.789,-0.617C3.789,0.438 3.513,1.411 2.775,2.213C1.941,3.118 0.538,2.818 0.163,1.643C0.086,1.402 0.051,1.147 0,0.912" style="fill-rule:nonzero;"/>
        </g>
        <g transform="matrix(1.33333,0,0,1.33333,8.02241,85.1029)">
            <path d="M0,-1.871C0.095,-2.201 0.135,-2.562 0.296,-2.856C0.641,-3.488 1.683,-3.657 2.378,-3.231C3.056,-2.814 3.396,-2.152 3.634,-1.429C3.818,-0.87 3.9,-0.308 3.707,0.284C3.331,1.438 1.974,1.786 1.121,0.921C0.538,0.329 0.241,-0.403 0.12,-1.214C0.089,-1.426 0.07,-1.64 0.045,-1.853C0.03,-1.859 0.015,-1.865 0,-1.871" style="fill-rule:nonzero;"/>
        </g>
        <g transform="matrix(1.33098,0.0791274,0.0791274,-1.33098,9.91972,79.8422)">
            <path d="M0.044,0.032C-0.257,-0.072 -0.542,-0.171 -0.836,-0.273C-1.127,0.318 -0.661,1.502 0.044,1.819C0.027,1.515 -0.005,1.213 -0.004,0.91C-0.004,0.604 0.029,0.297 0.044,0.032" style="fill-rule:nonzero;"/>
        </g>
        <g transform="matrix(1.03075,-0.84577,-0.84577,-1.03075,29.0006,79.482)">
            <path d="M-0.738,-0.04C-0.923,0.225 -1.096,0.473 -1.282,0.74C-1.131,0.923 -0.922,1.156 -0.738,1.409C-0.56,1.654 -0.408,1.918 -0.245,2.172C0.15,1.674 -0.098,0.469 -0.738,-0.04" style="fill-rule:nonzero;"/>
        </g>
        <g transform="matrix(0.911525,-0.973088,-0.973088,-0.911525,23.6007,72.7651)">
            <path d="M-0.813,-0.106C-1.003,0.14 -1.189,0.382 -1.409,0.666C-1.236,0.828 -0.999,1.011 -0.813,1.237C-0.629,1.46 -0.499,1.727 -0.342,1.98C0.063,1.36 -0.202,0.272 -0.813,-0.106" style="fill-rule:nonzero;"/>
        </g>
        <g transform="matrix(1.33333,0,0,1.33333,15.4176,73.8345)">
            <path d="M0,-1.773C-0.087,-1.205 -0.172,-0.643 -0.259,-0.074C-0.511,-0.053 -0.827,-0.026 -1.146,0C-1.24,-0.787 -0.748,-1.556 0,-1.773" style="fill-rule:nonzero;"/>
        </g>
        <g transform="matrix(1.33333,0,0,1.33333,24.8284,50.4122)">
            <path d="M0,4.535C0.001,5.35 -0.497,5.86 -1.35,5.959C-2.059,6.041 -2.75,5.937 -3.421,5.753C-4.365,5.495 -5.279,5.57 -6.218,5.778C-6.811,5.909 -7.437,5.966 -8.044,5.944C-9.131,5.903 -9.674,5.116 -9.429,4.057C-9.27,3.371 -8.848,2.866 -8.326,2.431C-7.691,1.902 -7.076,1.36 -6.736,0.577C-6.626,0.324 -6.487,0.082 -6.346,-0.157C-6.242,-0.333 -6.126,-0.505 -5.995,-0.662C-5.296,-1.505 -4.152,-1.506 -3.464,-0.651C-3.228,-0.357 -2.998,-0.044 -2.837,0.294C-2.381,1.254 -1.71,2.018 -0.886,2.679C-0.279,3.166 -0.001,3.83 0,4.535" style="fill-rule:nonzero;"/>
        </g>
        <g transform="matrix(1.33333,0,0,1.33333,19.1637,43.8113)">
            <path d="M0,0.447C0.084,-0.521 0.367,-1.35 1.132,-1.961C1.927,-2.597 2.858,-2.44 3.402,-1.585C4.322,-0.139 3.822,1.91 2.373,2.63C1.54,3.044 0.752,2.778 0.407,1.913C0.22,1.445 0.132,0.937 0,0.447" style="fill-rule:nonzero;"/>
        </g>
        <g transform="matrix(1.33333,0,0,1.33333,17.5792,43.8402)">
            <path d="M0,0.576C-0.029,1.113 -0.12,1.684 -0.418,2.208C-0.805,2.887 -1.465,3.115 -2.183,2.808C-3.282,2.337 -4.027,0.876 -3.745,-0.284C-3.664,-0.62 -3.579,-0.965 -3.425,-1.271C-2.869,-2.376 -1.711,-2.539 -0.841,-1.658C-0.244,-1.052 -0.011,-0.308 0,0.576" style="fill-rule:nonzero;"/>
        </g>
        <g transform="matrix(1.33333,0,0,1.33333,23.8687,49.8441)">
            <path d="M0,0.912C0.189,-0.201 0.476,-1.233 1.467,-1.881C1.964,-2.206 2.531,-2.204 3.065,-1.976C3.648,-1.727 3.79,-1.175 3.789,-0.617C3.789,0.438 3.513,1.411 2.775,2.213C1.941,3.118 0.538,2.818 0.163,1.643C0.086,1.402 0.051,1.147 0,0.912" style="fill-rule:nonzero;"/>
        </g>
        <g transform="matrix(1.33333,0,0,1.33333,8.02241,51.6277)">
            <path d="M0,-1.871C0.095,-2.201 0.135,-2.562 0.296,-2.856C0.641,-3.488 1.683,-3.657 2.378,-3.231C3.056,-2.814 3.396,-2.152 3.634,-1.429C3.818,-0.87 3.9,-0.308 3.707,0.284C3.331,1.438 1.974,1.786 1.121,0.921C0.538,0.329 0.241,-0.403 0.12,-1.214C0.089,-1.426 0.07,-1.64 0.045,-1.853C0.03,-1.859 0.015,-1.865 0,-1.871" style="fill-rule:nonzero;"/>
        </g>
        <g transform="matrix(1.33098,0.0791274,0.0791274,-1.33098,9.91972,46.367)">
            <path d="M0.044,0.032C-0.257,-0.072 -0.542,-0.171 -0.836,-0.273C-1.127,0.318 -0.661,1.502 0.044,1.819C0.027,1.515 -0.005,1.213 -0.004,0.91C-0.004,0.604 0.029,0.297 0.044,0.032" style="fill-rule:nonzero;"/>
        </g>
        <g transform="matrix(1.03075,-0.84577,-0.84577,-1.03075,29.0006,46.0068)">
            <path d="M-0.738,-0.04C-0.923,0.225 -1.096,0.473 -1.282,0.74C-1.131,0.923 -0.922,1.156 -0.738,1.409C-0.56,1.654 -0.408,1.918 -0.245,2.172C0.15,1.674 -0.098,0.469 -0.738,-0.04" style="fill-rule:nonzero;"/>
        </g>
        <g transform="matrix(0.911525,-0.973088,-0.973088,-0.911525,23.6007,39.2897)">
            <path d="M-0.813,-0.106C-1.003,0.14 -1.189,0.382 -1.409,0.666C-1.236,0.828 -0.999,1.011 -0.813,1.237C-0.629,1.46 -0.499,1.727 -0.342,1.98C0.063,1.36 -0.202,0.272 -0.813,-0.106" style="fill-rule:nonzero;"/>
        </g>
        <g transform="matrix(1.33333,0,0,1.33333,15.4176,40.3593)">
            <path d="M0,-1.773C-0.087,-1.205 -0.172,-0.643 -0.259,-0.074C-0.511,-0.053 -0.827,-0.026 -1.146,0C-1.24,-0.787 -0.748,-1.556 0,-1.773" style="fill-rule:nonzero;"/>
        </g>
    </g>
</svg>
