<?xml version="1.0" encoding="UTF-8" standalone="no"?>
<!DOCTYPE svg PUBLIC "-//W3C//DTD SVG 1.1//EN" "http://www.w3.org/Graphics/SVG/1.1/DTD/svg11.dtd">
<svg id="assassinIcon" width="100%" height="100%" viewBox="0 0 28 110" version="1.1" xmlns="http://www.w3.org/2000/svg" xmlns:xlink="http://www.w3.org/1999/xlink" xml:space="preserve" xmlns:serif="http://www.serif.com/" style="fill-rule:evenodd;clip-rule:evenodd;stroke-linejoin:round;stroke-miterlimit:2;">
    <g transform="matrix(2,0,0,2,27.48,83.636)">
        <path d="M0,-28.67L-4.718,-28.67C-4.153,-32.934 -4.248,-35.686 -5.004,-40.46L-6.087,-40.46L-6.87,-41.818L-7.653,-40.46L-8.736,-40.46C-9.492,-35.686 -9.587,-32.934 -9.021,-28.67L-13.74,-28.67L-13.74,-24.938L-9.475,-24.938C-9.059,-23.954 -8.329,-23.297 -8.329,-21.554C-8.329,-18.885 -9.721,-18.885 -9.721,-16.218C-9.721,-13.551 -8.329,-13.551 -8.329,-10.886C-8.329,-8.218 -9.721,-8.218 -9.721,-5.552C-9.721,-2.886 -8.329,-2.886 -8.329,-0.221C-8.329,2.444 -9.721,2.444 -9.721,5.109C-9.721,7.105 -9.13,7.564 -8.693,8.778L-6.499,13.148C-6.499,13.148 -5.274,11.552 -4.425,8.778C-4.221,7.573 -4.821,7.146 -5.064,5.205C-5.395,2.561 -3.68,2.436 -3.68,-0.231C-3.68,-2.897 -5.07,-2.897 -5.07,-5.562C-5.07,-8.23 -3.68,-8.23 -3.68,-10.897C-3.68,-13.562 -5.07,-13.562 -5.07,-16.228C-5.07,-18.893 -3.68,-18.893 -3.68,-21.558C-3.68,-23.387 -4.176,-23.926 -4.595,-24.938L0,-24.938L0,-28.67Z" style="fill:rgb(35,31,32);fill-rule:nonzero;"/>
    </g>
</svg>
