<?xml version="1.0" encoding="UTF-8" standalone="no"?>
<!DOCTYPE svg PUBLIC "-//W3C//DTD SVG 1.1//EN" "http://www.w3.org/Graphics/SVG/1.1/DTD/svg11.dtd">
<svg id="centurionIcon" width="100%" height="100%" viewBox="0 0 37 130" version="1.1" xmlns="http://www.w3.org/2000/svg" xmlns:xlink="http://www.w3.org/1999/xlink" xml:space="preserve" xmlns:serif="http://www.serif.com/" style="fill-rule:evenodd;clip-rule:evenodd;stroke-linecap:round;stroke-miterlimit:2;">
    <g transform="matrix(0.411111,0,0,0.411111,-96.3562,-3.90884)">
        <rect x="234.38" y="9.508" width="90" height="315" style="fill:none;stroke:rgb(35,31,32);stroke-opacity:0;stroke-width:3px;"/>
    </g>
    <g>
        <g transform="matrix(0,-1.92816,-1.92816,0,19.3743,25.4846)">
            <path d="M-4.778,-3.908C-7.207,-3.908 -6.867,-1.939 -6.867,0.49C-6.867,2.919 -7.207,4.778 -4.778,4.778C-2.349,4.778 -1.479,2.919 -1.479,0.49C-1.479,-1.939 -2.349,-3.908 -4.778,-3.908" style="fill-rule:nonzero;"/>
        </g>
        <g transform="matrix(1.92816,0,0,1.92816,10.7742,52.0195)">
            <path d="M0,-8.819C0,-8.819 -0.898,-7.994 -0.898,-7.664C-0.898,-7.335 -0.55,-7.206 -0.55,-7.206L-0.623,-5.246C-0.623,-5.246 -0.692,-5.035 -0.843,-4.998C-0.994,-4.961 -1.136,-4.622 -1.086,-4.151C-1.035,-3.679 -0.976,-2.378 -0.529,-1.931C-0.082,-1.484 1.196,0 1.814,-0.344C2.433,-0.687 1.477,-1.484 1.477,-1.484C1.477,-1.484 0.749,-2.048 1.244,-2.646C1.739,-3.243 1.471,-4.116 1.175,-4.329C0.88,-4.542 0.701,-5.284 0.832,-5.614L4.089,-5.662L3.938,-7.573L0,-8.819Z" style="fill-rule:nonzero;"/>
        </g>
        <g transform="matrix(1.92816,0,0,1.92816,26.2966,52.0195)">
            <path d="M0,-8.819C0,-8.819 0.898,-7.994 0.898,-7.664C0.898,-7.335 0.55,-7.206 0.55,-7.206L0.623,-5.246C0.623,-5.246 0.692,-5.035 0.843,-4.998C0.994,-4.961 1.136,-4.622 1.086,-4.151C1.035,-3.679 0.976,-2.378 0.529,-1.931C0.082,-1.484 -1.196,0 -1.814,-0.344C-2.433,-0.687 -1.477,-1.484 -1.477,-1.484C-1.477,-1.484 -0.749,-2.048 -1.244,-2.646C-1.739,-3.243 -1.471,-4.116 -1.175,-4.329C-0.88,-4.542 -0.701,-5.284 -0.831,-5.614L-4.089,-5.662L-3.938,-7.573L0,-8.819Z" style="fill-rule:nonzero;"/>
        </g>
        <g transform="matrix(1.92816,0,0,1.92816,-533.249,-1153.2)">
            <rect x="285.954" y="610.516" width="0.422" height="2.944"/>
        </g>
        <g transform="matrix(1.92816,0,0,1.92816,18.1881,33.8487)">
            <path d="M0,-10.775C-10.061,-10.775 -8.246,0 -8.246,0C-8.246,0 -8.008,-0.275 -7.697,-0.623C-7.385,-0.971 -6.469,-1.063 -6.066,-1.136C-5.738,-1.196 -4.987,-1.449 -4.677,-1.542C-4.405,-4.211 -2.358,-6.285 0.128,-6.285C2.541,-6.285 4.54,-4.332 4.905,-1.777C5.544,-1.738 7.044,-1.348 7.275,-1.118C7.568,-0.824 8.796,-1.301 8.796,-1.301C8.796,-1.301 10.06,-10.775 0,-10.775" style="fill-rule:nonzero;"/>
        </g>
        <g transform="matrix(1.92816,0,0,1.92816,18.4355,28.9448)">
            <path d="M0,-2.463C1.944,-2.463 3.546,-0.9 3.778,1.118L4.657,1.118C4.508,-1.504 2.481,-3.581 0,-3.581C-2.481,-3.581 -4.508,-1.504 -4.657,1.118L-3.778,1.118C-3.546,-0.9 -1.944,-2.463 0,-2.463Z" style="fill:none;fill-rule:nonzero;stroke:black;stroke-width:0.69px;stroke-linecap:butt;stroke-miterlimit:10;"/>
        </g>
        <g transform="matrix(0.114562,-1.92475,-1.92475,-0.114562,20.7192,94.4193)">
            <path d="M-3.997,-2.481C-2.875,0.09 -2.972,1.718 -4.391,4.137C-4.233,4.23 -4.154,4.277 -3.997,4.369C-2.488,1.798 -2.385,0.067 -3.578,-2.664C-3.745,-2.591 -3.829,-2.554 -3.997,-2.481" style="fill-rule:nonzero;"/>
        </g>
        <g transform="matrix(1.92816,0,0,1.92816,19.9119,53.1118)">
            <path d="M0,31.707L0,31.114C0.049,31.072 0.082,31.012 0.082,30.943C0.082,30.874 0.049,30.813 0,30.771L0,30.757C0.049,30.715 0.082,30.655 0.082,30.586C0.082,30.516 0.049,30.456 0,30.414L0,30.4C0.049,30.358 0.082,30.298 0.082,30.228C0.082,30.159 0.049,30.099 0,30.057L0,30.043C0.049,30.001 0.082,29.94 0.082,29.871C0.082,29.802 0.049,29.742 0,29.7L0,29.685C0.049,29.643 0.082,29.583 0.082,29.514C0.082,29.445 0.049,29.384 0,29.342L0,29.328C0.049,29.286 0.082,29.226 0.082,29.157C0.082,29.087 0.049,29.027 0,28.985L0,28.971C0.049,28.929 0.082,28.869 0.082,28.799C0.082,28.73 0.049,28.67 0,28.628L0,28.614C0.049,28.572 0.082,28.511 0.082,28.442C0.082,28.373 0.049,28.313 0,28.271L0,28.256C0.049,28.214 0.082,28.154 0.082,28.085C0.082,28.016 0.049,27.955 0,27.913L0,27.899C0.049,27.857 0.082,27.797 0.082,27.728C0.082,27.658 0.049,27.598 0,27.556L0,27.542C0.049,27.5 0.082,27.44 0.082,27.37C0.082,27.301 0.049,27.241 0,27.199L0,27.185C0.049,27.143 0.082,27.082 0.082,27.013C0.082,26.944 0.049,26.884 0,26.842L0,26.827C0.049,26.785 0.082,26.725 0.082,26.656C0.082,26.587 0.049,26.527 0,26.485L0,25.217L0.547,25.217L0.547,3.026L-0.629,-1.389L-1.861,3.026L-1.861,25.217L-1.315,25.217L-1.315,26.485C-1.364,26.527 -1.396,26.587 -1.396,26.656C-1.396,26.725 -1.364,26.785 -1.315,26.827L-1.315,26.842C-1.364,26.884 -1.396,26.944 -1.396,27.013C-1.396,27.082 -1.364,27.143 -1.315,27.185L-1.315,27.199C-1.364,27.241 -1.396,27.301 -1.396,27.37C-1.396,27.44 -1.364,27.5 -1.315,27.542L-1.315,27.556C-1.364,27.598 -1.396,27.658 -1.396,27.728C-1.396,27.797 -1.364,27.857 -1.315,27.899L-1.315,27.913C-1.364,27.955 -1.396,28.016 -1.396,28.085C-1.396,28.154 -1.364,28.214 -1.315,28.256L-1.315,28.271C-1.364,28.313 -1.396,28.373 -1.396,28.442C-1.396,28.511 -1.364,28.572 -1.315,28.614L-1.315,28.628C-1.364,28.67 -1.396,28.73 -1.396,28.799C-1.396,28.869 -1.364,28.929 -1.315,28.971L-1.315,28.985C-1.364,29.027 -1.396,29.087 -1.396,29.157C-1.396,29.226 -1.364,29.286 -1.315,29.328L-1.315,29.342C-1.364,29.384 -1.396,29.445 -1.396,29.514C-1.396,29.583 -1.364,29.643 -1.315,29.685L-1.315,29.7C-1.364,29.742 -1.396,29.802 -1.396,29.871C-1.396,29.94 -1.364,30.001 -1.315,30.043L-1.315,30.057C-1.364,30.099 -1.396,30.159 -1.396,30.228C-1.396,30.298 -1.364,30.358 -1.315,30.4L-1.315,30.414C-1.364,30.456 -1.396,30.516 -1.396,30.586C-1.396,30.655 -1.364,30.715 -1.315,30.757L-1.315,30.771C-1.364,30.813 -1.396,30.874 -1.396,30.943C-1.396,31.012 -1.364,31.072 -1.315,31.114L-1.315,31.707C-1.728,31.834 -2.01,32.074 -2.01,32.353C-2.01,32.763 -1.404,33.096 -0.657,33.096C0.09,33.096 0.695,32.763 0.695,32.353C0.695,32.074 0.413,31.834 0,31.707" style="fill-rule:nonzero;"/>
        </g>
    </g>
</svg>
