<?xml version="1.0" encoding="UTF-8" standalone="no"?>
<!DOCTYPE svg PUBLIC "-//W3C//DTD SVG 1.1//EN" "http://www.w3.org/Graphics/SVG/1.1/DTD/svg11.dtd">
<svg id="equitesIcon" width="100%" height="100%" viewBox="0 0 37 130" version="1.1" xmlns="http://www.w3.org/2000/svg" xmlns:xlink="http://www.w3.org/1999/xlink" xml:space="preserve" xmlns:serif="http://www.serif.com/" style="fill-rule:evenodd;clip-rule:evenodd;stroke-linecap:round;stroke-miterlimit:2;">
    <g transform="matrix(0.411111,0,0,0.411111,-96.3562,-3.90884)">
        <rect x="234.38" y="9.508" width="90" height="315" style="fill:none;stroke:rgb(35,31,32);stroke-opacity:0;stroke-width:3px;"/>
    </g>
    <g transform="matrix(1.42922,0,0,1.42922,-7.9405,-27.7918)">
        <g transform="matrix(1.33333,0,0,1.33333,17.6673,66.7379)">
            <path d="M0,8.945C-0.155,8.61 -0.225,8.254 -0.116,7.894C-0.076,7.762 0.058,7.608 0.184,7.564C0.476,7.461 0.632,7.258 0.732,6.994C1.301,5.489 1.352,3.999 0.529,2.566C0.02,1.682 -0.639,0.929 -1.714,0.752C-3.985,0.379 -5.996,1.75 -6.558,3.995C-6.785,4.903 -6.771,5.79 -6.414,6.65C-6.313,6.894 -6.084,7.101 -5.873,7.279C-5.609,7.501 -5.515,8.331 -5.79,8.54C-5.849,8.584 -6.077,8.507 -6.144,8.422C-6.684,7.731 -7.15,6.982 -7.272,6.104C-7.49,4.527 -7.256,3.03 -6.146,1.803C-4.935,0.467 -3.379,-0.107 -1.626,0.236C0.176,0.588 1.205,1.851 1.643,3.601C2.095,5.411 1.69,7.041 0.563,8.507C0.425,8.687 0.292,8.87 0.156,9.052C0.104,9.016 0.052,8.981 0,8.945" style="fill-rule:nonzero;"/>
        </g>
        <g transform="matrix(1.33333,0,0,1.33333,13.664,77.2885)">
            <path d="M0,-1.736C-0.243,-1.247 -0.522,-0.773 -0.718,-0.266C-0.886,0.172 -0.71,0.611 -0.537,1.027C-0.507,1.101 -0.462,1.169 -0.422,1.238C0.042,2.024 -0.056,2.23 -0.967,2.287C-1.452,2.318 -1.861,2.141 -2.117,1.69C-2.341,1.296 -2.245,0.948 -2.05,0.562C-1.344,-0.833 -0.671,-2.244 0.014,-3.649C0.072,-3.767 0.129,-3.886 0.228,-4.09C0.315,-3.86 0.381,-3.72 0.421,-3.574C0.801,-2.183 1.24,-0.816 1.955,0.45C2.096,0.7 2.164,1.012 2.185,1.302C2.216,1.723 1.917,1.955 1.571,2.126C1.21,2.306 0.834,2.354 0.5,2.107C0.243,1.918 0.347,1.627 0.427,1.38C0.503,1.144 0.644,0.928 0.709,0.691C0.848,0.183 0.746,-0.305 0.525,-0.774C0.379,-1.082 0.242,-1.394 0.101,-1.705C0.067,-1.715 0.034,-1.726 0,-1.736" style="fill-rule:nonzero;"/>
        </g>
        <g transform="matrix(1.33333,0,0,1.33333,19.4098,85.177)">
            <path d="M0,9.359C-0.13,9.28 -0.25,9.235 -0.335,9.153C-2.127,7.446 -2.263,4.957 -1.282,3.106C-0.14,0.952 3.339,-0.327 5.702,2.224C6.583,3.175 7.053,4.287 7.233,5.561C7.435,6.986 7.079,8.231 6.175,9.331C6.071,9.458 5.929,9.553 5.778,9.686C5.545,9.343 5.471,9.019 5.559,8.675C5.585,8.576 5.703,8.457 5.803,8.429C6.121,8.337 6.258,8.108 6.35,7.824C7.101,5.512 6.215,3.387 4.615,2.06C3.756,1.347 2.739,1.338 1.715,1.599C0.038,2.028 -0.905,3.152 -1.178,4.909C-1.325,5.85 -1.222,6.733 -0.769,7.566C-0.675,7.738 -0.527,7.901 -0.365,8.013C0.178,8.387 0.274,8.664 0,9.359" style="fill-rule:nonzero;"/>
        </g>
        <g transform="matrix(1.33333,0,0,1.33333,22.9692,99.4659)">
            <path d="M0,-5.813C0.112,-5.515 0.225,-5.218 0.337,-4.92C0.772,-3.764 1.234,-2.621 1.985,-1.623C2.032,-1.559 2.073,-1.489 2.11,-1.418C2.362,-0.934 2.365,-0.634 2.12,-0.412C1.757,-0.081 1.113,0.012 0.744,-0.21C0.473,-0.373 0.494,-0.642 0.607,-0.843C1.029,-1.598 0.77,-2.248 0.366,-2.895C0.228,-3.115 0.11,-3.349 -0.019,-3.582C-0.837,-2.801 -0.909,-1.753 -0.241,-0.897C-0.103,-0.719 -0.038,-0.485 0.06,-0.277C-0.166,-0.214 -0.39,-0.117 -0.62,-0.095C-1.055,-0.055 -1.458,-0.161 -1.783,-0.482C-2.103,-0.798 -2.109,-1.097 -1.93,-1.502C-1.356,-2.805 -0.815,-4.121 -0.261,-5.433C-0.205,-5.563 -0.151,-5.694 -0.096,-5.825C-0.064,-5.821 -0.032,-5.817 0,-5.813" style="fill-rule:nonzero;"/>
        </g>
        <g transform="matrix(1.33333,0,0,1.33333,17.6673,29.965)">
            <path d="M0,8.945C-0.155,8.61 -0.225,8.254 -0.116,7.894C-0.076,7.762 0.058,7.608 0.184,7.564C0.476,7.461 0.632,7.258 0.732,6.994C1.301,5.489 1.352,3.999 0.529,2.566C0.02,1.682 -0.639,0.929 -1.714,0.752C-3.985,0.379 -5.996,1.75 -6.558,3.995C-6.785,4.903 -6.771,5.791 -6.414,6.65C-6.313,6.894 -6.084,7.101 -5.873,7.278C-5.609,7.501 -5.515,8.331 -5.79,8.54C-5.849,8.584 -6.077,8.507 -6.144,8.422C-6.684,7.731 -7.15,6.982 -7.272,6.104C-7.49,4.527 -7.256,3.03 -6.146,1.804C-4.935,0.467 -3.379,-0.107 -1.626,0.236C0.176,0.588 1.205,1.851 1.643,3.601C2.095,5.411 1.69,7.041 0.563,8.507C0.425,8.687 0.292,8.87 0.156,9.052C0.104,9.016 0.052,8.981 0,8.945" style="fill-rule:nonzero;"/>
        </g>
        <g transform="matrix(1.33333,0,0,1.33333,13.664,40.5157)">
            <path d="M0,-1.736C-0.243,-1.247 -0.522,-0.773 -0.718,-0.266C-0.886,0.172 -0.71,0.611 -0.537,1.027C-0.507,1.101 -0.462,1.169 -0.422,1.238C0.042,2.024 -0.056,2.23 -0.967,2.287C-1.452,2.318 -1.861,2.141 -2.117,1.69C-2.341,1.296 -2.245,0.948 -2.05,0.562C-1.344,-0.833 -0.671,-2.244 0.014,-3.649C0.072,-3.768 0.129,-3.886 0.228,-4.09C0.315,-3.86 0.381,-3.72 0.421,-3.574C0.801,-2.183 1.24,-0.816 1.955,0.45C2.096,0.699 2.164,1.012 2.185,1.302C2.216,1.723 1.917,1.955 1.571,2.126C1.21,2.306 0.834,2.354 0.5,2.107C0.243,1.918 0.347,1.627 0.427,1.38C0.503,1.144 0.644,0.928 0.709,0.691C0.848,0.183 0.746,-0.305 0.525,-0.774C0.379,-1.082 0.242,-1.394 0.101,-1.705C0.067,-1.715 0.034,-1.726 0,-1.736" style="fill-rule:nonzero;"/>
        </g>
        <g transform="matrix(1.33333,0,0,1.33333,19.4098,48.4041)">
            <path d="M0,9.359C-0.13,9.281 -0.25,9.235 -0.335,9.153C-2.127,7.446 -2.263,4.957 -1.282,3.106C-0.14,0.952 3.339,-0.327 5.702,2.224C6.583,3.176 7.053,4.287 7.233,5.561C7.435,6.986 7.079,8.231 6.175,9.331C6.071,9.458 5.929,9.553 5.778,9.686C5.545,9.343 5.471,9.019 5.559,8.675C5.585,8.576 5.703,8.457 5.803,8.429C6.121,8.337 6.258,8.108 6.35,7.825C7.101,5.512 6.215,3.387 4.615,2.06C3.756,1.347 2.739,1.338 1.715,1.599C0.038,2.028 -0.905,3.152 -1.178,4.91C-1.325,5.85 -1.222,6.733 -0.769,7.566C-0.675,7.738 -0.527,7.901 -0.365,8.012C0.178,8.387 0.274,8.664 0,9.359" style="fill-rule:nonzero;"/>
        </g>
        <g transform="matrix(1.33333,0,0,1.33333,22.9692,62.6929)">
            <path d="M0,-5.813C0.112,-5.515 0.225,-5.218 0.337,-4.92C0.772,-3.764 1.234,-2.621 1.985,-1.623C2.032,-1.559 2.073,-1.489 2.11,-1.418C2.362,-0.934 2.365,-0.634 2.12,-0.412C1.757,-0.081 1.113,0.012 0.744,-0.21C0.473,-0.373 0.494,-0.642 0.607,-0.843C1.029,-1.598 0.77,-2.248 0.366,-2.895C0.228,-3.115 0.11,-3.349 -0.019,-3.582C-0.837,-2.801 -0.909,-1.753 -0.241,-0.897C-0.103,-0.719 -0.038,-0.485 0.06,-0.277C-0.166,-0.214 -0.39,-0.117 -0.62,-0.095C-1.055,-0.055 -1.458,-0.161 -1.783,-0.482C-2.103,-0.798 -2.109,-1.097 -1.93,-1.502C-1.356,-2.804 -0.815,-4.121 -0.261,-5.433C-0.205,-5.563 -0.151,-5.694 -0.096,-5.825C-0.064,-5.821 -0.032,-5.817 0,-5.813" style="fill-rule:nonzero;"/>
        </g>
    </g>
</svg>
