<?xml version="1.0" encoding="UTF-8" standalone="no"?>
<!DOCTYPE svg PUBLIC "-//W3C//DTD SVG 1.1//EN" "http://www.w3.org/Graphics/SVG/1.1/DTD/svg11.dtd">
<svg id="mountainIcon" width="100%" height="100%" viewBox="0 0 130 130" version="1.1" xmlns="http://www.w3.org/2000/svg" xmlns:xlink="http://www.w3.org/1999/xlink" xml:space="preserve" xmlns:serif="http://www.serif.com/" style="fill-rule:evenodd;clip-rule:evenodd;stroke-linecap:round;stroke-miterlimit:2;">
    <g transform="matrix(1.44444,0,0,0.412597,-338.549,-3.92297)">
        <rect x="234.38" y="9.508" width="90" height="315" style="fill:none;stroke:white;stroke-opacity:0;stroke-width:3px;"/>
    </g>
    <g transform="matrix(1.92043,0,0,1.89943,95.4105,51.0741)">
        <path d="M0,-2.644C1.966,-2.6 2.336,-4.77 4.351,-4.656C6.097,-1.711 11.457,13.043 16.485,17.244C8.248,19.353 11.311,18.908 2.417,19.482C-17.814,20.785 -28.229,19.59 -48.07,18.99C-49.71,17.735 -27.28,-12.968 -23.219,-18.737C-21.451,-18.28 -20.86,-16.195 -19.349,-15.384C-16.452,-17.179 -15.021,-21.007 -12.577,-23.429C-7.811,-17.296 -4.301,-9.424 0,-2.644M-23.219,10.764C-22.48,9.378 -20.792,7.088 -19.349,8.754C-19.782,4.576 -16.818,5.109 -16.446,2.049C-16.609,-0.185 -17.848,-0.926 -17.415,-3.985C-16.799,-6.263 -14.732,-6.525 -14.512,-9.349C-16.32,-14.063 -12.036,-17.372 -13.061,-20.747C-14.194,-16.946 -19.526,-14.124 -17.415,-10.02C-20.691,-7.635 -22.704,-3.497 -23.219,2.719C-24.065,2.951 -26.208,4.746 -24.669,6.073C-24.262,5.443 -22.176,3.823 -21.769,5.401C-21.521,7.794 -24.268,9.483 -23.219,10.764M-33.376,15.459C-28.011,12.81 -29.146,5.258 -28.539,-3.985C-26.768,-3.49 -25.853,-5.634 -24.669,-3.985C-26.879,-9.521 -19.62,-11.051 -23.219,-16.055C-27.342,-9.702 -30.543,-2.069 -35.795,2.719C-34.335,4.145 -37.181,5.215 -37.245,6.742C-33.769,7.094 -34.157,2.084 -30.958,2.049C-30.721,4.968 -33.044,13.357 -33.376,15.459M-13.061,14.118C-10.428,11.833 -7.5,15.247 -3.872,12.776L-3.872,8.083C0.146,8.508 -1.289,1.381 2.9,2.049C2.553,0.001 3.396,-0.395 3.385,-1.975C0.312,0.662 -4.312,0.867 -7.257,0.707C-7.102,2.262 -7.334,3.282 -7.741,4.061C-6.891,4.446 -4.899,3.25 -4.838,4.732C-4.476,11.721 -12.679,10.393 -13.061,14.118M1.45,15.459C2.625,13.736 4.247,12.631 5.319,10.764C3.028,10.518 0.835,13.903 1.45,15.459" style="fill:rgb(35,31,32);fill-rule:nonzero;"/>
    </g>
</svg>
