<?xml version="1.0" encoding="UTF-8" standalone="no"?>
<!DOCTYPE svg PUBLIC "-//W3C//DTD SVG 1.1//EN" "http://www.w3.org/Graphics/SVG/1.1/DTD/svg11.dtd">
<svg id="princeJohnIcon" width="100%" height="100%" viewBox="0 0 31 105" version="1.1" xmlns="http://www.w3.org/2000/svg" xmlns:xlink="http://www.w3.org/1999/xlink" xml:space="preserve" xmlns:serif="http://www.serif.com/" style="fill-rule:evenodd;clip-rule:evenodd;stroke-linejoin:round;stroke-miterlimit:2;">
    <g transform="matrix(2.06202,0,0,2.06202,29.2759,27.629)">
        <path d="M0,24.123C0,24.123 -3.223,23.761 -4.632,24.771C-4.759,17.531 -5.378,-13.399 -6.708,-13.399C-8.037,-13.399 -8.657,17.545 -8.783,24.775C-11.612,24.601 -12.261,26.456 -13.415,24.67L-13.415,26.877C-13.415,28.809 -7.933,26.877 -7.933,26.877C-8.191,27.833 -8.35,30.473 -8.35,30.473C-8.35,30.473 -8.236,32.724 -8.045,33.609C-8.56,34.009 -8.897,35.332 -8.897,35.332C-8.897,35.332 -7.917,37.522 -6.708,37.522C-5.498,37.522 -4.517,35.332 -4.517,35.332C-4.517,35.332 -4.855,34.009 -5.371,33.609C-5.179,32.724 -5.064,30.473 -5.064,30.473C-5.064,30.473 -5.224,27.833 -5.483,26.877C-5.483,26.877 -0.631,25.842 0,26.877L0,24.123Z" style="fill:rgb(35,31,32);fill-rule:nonzero;"/>
    </g>
    <g transform="matrix(2.06202,0,0,2.06202,7.08715,24.8747)">
        <path d="M0,8.386C-1.554,5.905 -2.918,5.28 -2.932,5.274L-3.062,5.217L-3.123,4.917L-3.012,4.739C-2.838,4.595 -2.631,4.522 -2.398,4.522C-2.199,4.522 -2.021,4.576 -1.892,4.629C-1.776,4.455 -1.596,4.327 -1.382,4.284C-1.329,4.273 -1.276,4.268 -1.224,4.268C-0.846,4.268 -0.516,4.538 -0.44,4.91C-0.389,5.177 -0.475,5.439 -0.649,5.621C-0.343,5.814 -0.068,5.915 0.155,5.915C0.198,5.915 0.241,5.911 0.282,5.903C0.642,5.831 0.677,5.328 0.65,4.95C0.282,4.937 -0.033,4.671 -0.106,4.307C-0.191,3.876 0.09,3.454 0.521,3.367C0.574,3.357 0.627,3.351 0.679,3.351C1.058,3.351 1.388,3.622 1.463,3.994C1.495,4.157 1.476,4.322 1.411,4.469C1.532,4.581 1.788,4.753 2.218,4.753C2.331,4.753 2.455,4.741 2.591,4.714C3.047,4.623 3.211,4.311 3.265,4.041C3.153,4.084 3.029,4.115 2.903,4.115C2.673,4.115 2.267,4.012 2.129,3.325C2.059,2.971 2.109,2.687 2.281,2.478C2.403,2.329 2.561,2.25 2.708,2.209C2.432,1.187 3.114,0.124 3.146,0.073L3.3,-0.16L3.53,-0.003C3.579,0.031 4.618,0.749 4.756,1.8C4.794,1.795 4.834,1.793 4.875,1.793C5.08,1.793 5.573,1.872 5.72,2.607C5.79,2.959 5.745,3.237 5.584,3.433C5.485,3.553 5.295,3.697 4.948,3.705C5.078,3.899 5.289,4.09 5.617,4.089C5.684,4.089 5.753,4.082 5.828,4.067C6.488,3.935 6.735,3.577 6.821,3.386C6.705,3.275 6.625,3.131 6.593,2.968C6.507,2.536 6.788,2.115 7.22,2.028C7.273,2.017 7.325,2.012 7.377,2.012C7.757,2.012 8.086,2.282 8.16,2.656C8.202,2.864 8.16,3.077 8.042,3.254C7.959,3.38 7.844,3.477 7.71,3.538C7.818,3.856 8.021,4.286 8.33,4.286C8.637,4.231 8.911,4.013 9.166,3.658C8.933,3.556 8.754,3.344 8.702,3.082C8.66,2.873 8.702,2.66 8.82,2.483C8.94,2.305 9.12,2.184 9.329,2.142C9.382,2.132 9.435,2.127 9.487,2.127C9.652,2.127 9.809,2.178 9.94,2.267C10.108,2.095 10.383,1.894 10.734,1.894C10.827,1.894 10.919,1.907 11.01,1.935L11.169,1.984L11.225,2.284L11.141,2.46C11.131,2.471 10.111,3.573 9.632,6.461L9.601,6.647L0.101,8.546L0,8.386Z" style="fill:rgb(35,31,32);fill-rule:nonzero;"/>
    </g>
    <g transform="matrix(2.06202,0,0,2.06202,14.0485,41.5449)">
        <path d="M0,-7.861C0,-7.861 1.218,-7.033 1.115,-5.921C1.115,-5.921 1.293,-6.018 1.499,-6.018C1.723,-6.018 1.979,-5.903 2.075,-5.423C2.203,-4.784 1.852,-4.653 1.54,-4.653C1.323,-4.653 1.126,-4.717 1.126,-4.717C1.126,-4.717 1.356,-3.721 2.241,-3.721C2.324,-3.721 2.412,-3.73 2.506,-3.749C3.61,-3.969 3.757,-4.765 3.757,-4.765L3.775,-4.799C3.631,-4.868 3.518,-5.001 3.485,-5.169C3.429,-5.455 3.613,-5.731 3.897,-5.788C3.932,-5.795 3.967,-5.798 4.001,-5.798C4.246,-5.798 4.466,-5.626 4.516,-5.376C4.573,-5.091 4.388,-4.814 4.104,-4.757C4.068,-4.75 4.033,-4.748 3.999,-4.748L3.99,-4.748C4.104,-4.289 4.378,-3.525 4.954,-3.525C4.999,-3.525 5.045,-3.529 5.094,-3.539C5.587,-3.637 5.987,-4.172 6.256,-4.656C6.242,-4.652 6.228,-4.646 6.213,-4.643C6.178,-4.636 6.143,-4.633 6.109,-4.633C5.864,-4.633 5.645,-4.805 5.595,-5.055C5.538,-5.34 5.722,-5.617 6.007,-5.673C6.042,-5.68 6.077,-5.684 6.111,-5.684C6.319,-5.684 6.508,-5.56 6.591,-5.37C6.62,-5.447 6.637,-5.493 6.637,-5.493C6.637,-5.493 6.931,-5.917 7.358,-5.917C7.421,-5.917 7.486,-5.908 7.554,-5.887L7.567,-5.814C7.567,-5.814 6.489,-4.698 5.985,-1.669L1.421,-0.756L-3.144,0.156C-4.774,-2.446 -6.198,-3.061 -6.198,-3.061L-6.213,-3.134C-6.073,-3.25 -5.919,-3.289 -5.774,-3.289C-5.475,-3.289 -5.216,-3.123 -5.216,-3.123C-5.216,-3.123 -5.183,-3.087 -5.126,-3.027C-5.121,-3.268 -4.95,-3.483 -4.704,-3.532C-4.669,-3.539 -4.635,-3.542 -4.6,-3.542C-4.354,-3.542 -4.136,-3.37 -4.085,-3.12C-4.029,-2.835 -4.213,-2.558 -4.498,-2.502C-4.514,-2.499 -4.527,-2.499 -4.543,-2.497C-4.16,-2.194 -3.669,-1.895 -3.221,-1.895C-3.159,-1.895 -3.099,-1.901 -3.04,-1.913C-2.368,-2.047 -2.409,-2.949 -2.486,-3.452C-2.521,-3.438 -2.557,-3.425 -2.595,-3.418C-2.63,-3.411 -2.664,-3.408 -2.698,-3.408C-2.943,-3.408 -3.163,-3.581 -3.213,-3.831C-3.269,-4.115 -3.085,-4.392 -2.801,-4.449C-2.766,-4.456 -2.732,-4.459 -2.697,-4.459C-2.451,-4.459 -2.232,-4.287 -2.182,-4.036C-2.148,-3.867 -2.201,-3.702 -2.308,-3.583L-2.278,-3.558C-2.278,-3.558 -1.951,-3.057 -1.158,-3.057C-1.028,-3.057 -0.887,-3.07 -0.732,-3.102C0.373,-3.322 0.17,-4.526 0.17,-4.526C0.17,-4.526 -0.16,-4.243 -0.473,-4.243C-0.686,-4.243 -0.891,-4.374 -0.978,-4.813C-1.132,-5.581 -0.546,-5.644 -0.347,-5.644C-0.308,-5.644 -0.283,-5.642 -0.283,-5.642C-0.806,-6.628 0,-7.861 0,-7.861M-0.153,-8.628L-0.458,-8.16C-0.491,-8.11 -1.138,-7.103 -0.982,-6.045C-1.097,-5.984 -1.209,-5.899 -1.307,-5.78C-1.462,-5.591 -1.624,-5.251 -1.516,-4.706C-1.365,-3.955 -0.913,-3.759 -0.639,-3.71C-0.694,-3.679 -0.76,-3.654 -0.839,-3.639C-0.951,-3.616 -1.058,-3.605 -1.158,-3.605C-1.379,-3.605 -1.538,-3.66 -1.646,-3.72C-1.617,-3.857 -1.616,-4 -1.644,-4.142C-1.746,-4.644 -2.188,-5.007 -2.697,-5.007C-2.767,-5.007 -2.837,-5 -2.907,-4.986C-3.487,-4.869 -3.865,-4.303 -3.75,-3.724C-3.744,-3.696 -3.738,-3.67 -3.73,-3.643C-3.928,-3.917 -4.248,-4.09 -4.6,-4.09C-4.67,-4.09 -4.74,-4.083 -4.811,-4.069C-5.023,-4.027 -5.211,-3.922 -5.357,-3.776C-5.479,-3.811 -5.621,-3.837 -5.773,-3.837C-6.068,-3.837 -6.341,-3.739 -6.562,-3.556L-6.813,-3.347L-6.75,-3.027L-6.735,-2.954L-6.679,-2.673L-6.415,-2.558C-6.407,-2.555 -5.105,-1.943 -3.607,0.447L-3.407,0.767L-3.036,0.693L1.528,-0.219L6.093,-1.132L6.464,-1.206L6.525,-1.579C6.988,-4.361 7.955,-5.426 7.965,-5.437L8.152,-5.639L8.106,-5.914L8.092,-5.987L8.031,-6.314L7.714,-6.411C7.598,-6.446 7.478,-6.465 7.358,-6.465C7.005,-6.465 6.72,-6.311 6.518,-6.151C6.392,-6.203 6.254,-6.232 6.111,-6.232C6.041,-6.232 5.97,-6.225 5.898,-6.21C5.618,-6.154 5.376,-5.992 5.217,-5.753C5.146,-5.646 5.095,-5.528 5.065,-5.405C5.062,-5.432 5.058,-5.458 5.053,-5.484C4.953,-5.983 4.511,-6.346 4.001,-6.346C3.932,-6.346 3.861,-6.34 3.79,-6.325C3.211,-6.209 2.833,-5.642 2.948,-5.063C2.977,-4.922 3.033,-4.788 3.113,-4.671C3.006,-4.535 2.798,-4.365 2.398,-4.286C2.343,-4.274 2.29,-4.269 2.241,-4.269C2.222,-4.269 2.203,-4.27 2.185,-4.272C2.287,-4.336 2.364,-4.409 2.42,-4.478C2.635,-4.74 2.699,-5.095 2.612,-5.531C2.445,-6.366 1.888,-6.531 1.606,-6.56C1.343,-7.598 0.358,-8.279 0.308,-8.314L-0.153,-8.628ZM4.671,-4.434C4.756,-4.502 4.831,-4.585 4.893,-4.678C4.966,-4.786 5.017,-4.903 5.045,-5.025C5.049,-5 5.053,-4.974 5.058,-4.948C5.104,-4.715 5.225,-4.512 5.392,-4.362C5.247,-4.2 5.107,-4.1 4.987,-4.076L4.984,-4.076C4.898,-4.076 4.78,-4.192 4.671,-4.434M-3.632,-2.558C-3.536,-2.759 -3.502,-2.991 -3.548,-3.225C-3.553,-3.252 -3.56,-3.278 -3.566,-3.305C-3.427,-3.111 -3.225,-2.968 -2.993,-2.902C-2.998,-2.644 -3.053,-2.468 -3.147,-2.45C-3.171,-2.445 -3.195,-2.443 -3.221,-2.443C-3.333,-2.443 -3.474,-2.483 -3.632,-2.558" style="fill:white;fill-rule:nonzero;"/>
    </g>
</svg>
