<?xml version="1.0" encoding="UTF-8" standalone="no"?>
<!DOCTYPE svg PUBLIC "-//W3C//DTD SVG 1.1//EN" "http://www.w3.org/Graphics/SVG/1.1/DTD/svg11.dtd">
<svg id="richlieuIcon" width="100%" height="100%" viewBox="0 0 42 73" version="1.1" xmlns="http://www.w3.org/2000/svg" xmlns:xlink="http://www.w3.org/1999/xlink" xml:space="preserve" xmlns:serif="http://www.serif.com/" style="fill-rule:evenodd;clip-rule:evenodd;stroke-miterlimit:10;">
    <g transform="matrix(2.26568,0,0,2.26568,20.9532,0.405448)">
        <path d="M0,30.804C2.517,30.804 4.975,30.977 7.353,31.303C7.497,29.322 7.576,27.255 7.576,25.124C7.576,10.973 4.184,-0.499 0,-0.499C-4.185,-0.499 -7.576,10.973 -7.576,25.124C-7.576,27.255 -7.498,29.322 -7.353,31.303C-4.975,30.977 -2.518,30.804 0,30.804" style="fill:rgb(35,31,32);fill-rule:nonzero;"/>
    </g>
    <g transform="matrix(-2.26568,0,0,2.26568,1142.26,-1196.07)">
        <rect x="493.138" y="527.106" width="3.54" height="33.109" style="fill:white;"/>
    </g>
    <g transform="matrix(2.26568,0,0,2.26568,-1100.35,-1203.72)">
        <rect x="486.81" y="543.175" width="16.196" height="4.348" style="fill:white;"/>
    </g>
    <g transform="matrix(2.26568,0,0,2.26568,20.9532,1.85548)">
        <path d="M0,30.164C2.517,30.164 4.975,30.337 7.353,30.663C7.497,28.682 7.576,26.615 7.576,24.484C7.576,12.296 5.06,2.094 1.689,-0.499L-1.796,-0.499C-5.113,2.227 -7.576,12.425 -7.576,24.484C-7.576,26.615 -7.498,28.682 -7.353,30.663C-4.975,30.337 -2.518,30.164 0,30.164Z" style="fill:none;fill-rule:nonzero;stroke:rgb(35,31,32);stroke-width:0.59px;"/>
    </g>
</svg>
