<?xml version="1.0" encoding="UTF-8" standalone="no"?>
<!DOCTYPE svg PUBLIC "-//W3C//DTD SVG 1.1//EN" "http://www.w3.org/Graphics/SVG/1.1/DTD/svg11.dtd">
<svg id="slingersIcon" width="100%" height="100%" viewBox="0 0 37 130" version="1.1" xmlns="http://www.w3.org/2000/svg" xmlns:xlink="http://www.w3.org/1999/xlink" xml:space="preserve" xmlns:serif="http://www.serif.com/" style="fill-rule:evenodd;clip-rule:evenodd;stroke-linecap:round;stroke-miterlimit:2;">
    <g transform="matrix(0.411111,0,0,0.411111,-96.3562,-3.90884)">
        <rect x="234.38" y="9.508" width="90" height="315" style="fill:none;stroke:rgb(35,31,32);stroke-opacity:0;stroke-width:3px;"/>
    </g>
    <g transform="matrix(1.40644,0,0,1.40644,-3.10036,-142.594)">
        <g transform="matrix(0.30746,-1.2974,-1.2974,-0.30746,18.8581,148.87)">
            <path d="M-1.401,3.855C-11.373,2.096 -25.319,-9.467 -25.331,-9.461C-26.64,-8.723 -8.487,8.49 -1.401,10.447C2.203,11.443 31.769,7.369 27.439,3.045C23.948,-0.442 8.163,5.542 -1.401,3.855Z" style="fill:none;fill-rule:nonzero;stroke:black;stroke-width:0.71px;stroke-linecap:butt;stroke-miterlimit:10;"/>
        </g>
        <g transform="matrix(0,-1.33333,-1.33333,0,21.2898,110.423)">
            <path d="M-3.732,-3.732C-5.793,-3.732 -7.464,-2.061 -7.464,0C-7.464,2.061 -5.793,3.732 -3.732,3.732C-1.671,3.732 0,2.061 0,0C0,-2.061 -1.671,-3.732 -3.732,-3.732" style="fill-rule:nonzero;"/>
        </g>
    </g>
</svg>
