<?xml version="1.0" encoding="UTF-8" standalone="no"?>
<!DOCTYPE svg PUBLIC "-//W3C//DTD SVG 1.1//EN" "http://www.w3.org/Graphics/SVG/1.1/DTD/svg11.dtd">
<svg id="solomanIcon" width="100%" height="100%" viewBox="0 0 37 130" version="1.1" xmlns="http://www.w3.org/2000/svg" xmlns:xlink="http://www.w3.org/1999/xlink" xml:space="preserve" xmlns:serif="http://www.serif.com/" style="fill-rule:evenodd;clip-rule:evenodd;stroke-linejoin:round;stroke-miterlimit:2;">
    <g transform="matrix(0.411111,0,0,0.411106,-96.3562,-3.9088)">
        <rect x="234.38" y="9.508" width="90" height="315" style="fill:white;fill-opacity:0;"/>
    </g>
    <g transform="matrix(0.4563,0,0,0.433687,-67.0563,-219.858)">
        <g transform="matrix(4.16667,0,0,4.16667,158.417,783.332)">
            <path d="M0,-31.429L0.21,-30.968C0.21,-30.968 -0.738,-30.694 -0.537,-30.427C-0.537,-30.427 1.332,-26.867 1.723,-26.011C2.115,-25.156 3.892,-20.837 3.737,-20.569C3.737,-20.569 3.753,-20.098 4.098,-19.779C4.424,-19.478 7.558,-12.265 7.919,-11.438C7.63,-11.399 7.257,-11.319 6.875,-11.143C6.067,-10.774 6.313,-9.374 6.51,-8.948C6.704,-8.52 6.911,-7.897 7.631,-7.589C7.99,-7.315 8.556,-7.48 8.94,-7.649C9.289,-5.615 9.293,-3.377 7.85,-2.716C6.588,-2.187 6.401,-2.492 6.401,-2.492C6.401,-2.492 5.79,-2.61 5.57,-1.872C5.57,-1.872 5.07,-0.967 5.431,-0.177C5.431,-0.177 6.001,1.238 7.197,1.163C7.197,1.163 12.637,-0.039 11.725,-10.053C11.725,-10.053 11.688,-10.208 11.621,-10.464C12.39,-9.974 13.561,-10.662 13.561,-10.662C14.786,-10.548 14.69,-11.498 14.119,-11.182C13.55,-10.865 13.45,-12.123 13.45,-12.123C13.167,-12.829 12.577,-12.64 12.577,-12.64C12.329,-12.485 12.417,-11.252 12.429,-11.139C12.441,-11.026 12.228,-10.013 11.714,-11.137C11.506,-11.59 11.317,-11.861 11.165,-12.022C10.968,-12.63 10.723,-13.303 10.436,-13.926L7.215,-20.966L6.885,-21.252L1.66,-32.667C1.66,-32.667 -0.077,-32.031 0,-31.429M7.203,-10.737C7.543,-10.893 7.916,-10.79 8.188,-10.667C8.292,-10.336 8.424,-9.903 8.552,-9.412C8.345,-9.162 8.064,-8.893 7.803,-8.903L7.741,-8.516C7.741,-8.516 8.328,-8.547 8.725,-8.716C8.764,-8.543 8.803,-8.367 8.838,-8.188C7.245,-7.504 7.09,-8.894 7.09,-8.894C7.09,-8.894 6.577,-10.45 7.203,-10.737" style="fill:rgb(35,31,32);fill-rule:nonzero;"/>
        </g>
        <g transform="matrix(4.16667,0,0,4.16667,158.417,660.427)">
            <path d="M0,-31.431L0.21,-30.97C0.21,-30.97 -0.738,-30.696 -0.537,-30.429C-0.537,-30.429 1.332,-26.869 1.723,-26.013C2.115,-25.158 3.892,-20.839 3.737,-20.57C3.737,-20.57 3.753,-20.1 4.098,-19.781C4.424,-19.479 7.558,-12.266 7.919,-11.439C7.63,-11.401 7.257,-11.32 6.875,-11.145C6.067,-10.776 6.313,-9.376 6.51,-8.949C6.704,-8.522 6.911,-7.899 7.631,-7.591C7.99,-7.317 8.556,-7.481 8.94,-7.65C9.289,-5.617 9.293,-3.378 7.85,-2.718C6.588,-2.189 6.401,-2.494 6.401,-2.494C6.401,-2.494 5.79,-2.612 5.57,-1.873C5.57,-1.873 5.07,-0.969 5.431,-0.179C5.431,-0.179 6.001,1.237 7.197,1.161C7.197,1.161 12.637,-0.041 11.725,-10.054C11.725,-10.054 11.688,-10.21 11.621,-10.466C12.39,-9.976 13.561,-10.664 13.561,-10.664C14.786,-10.55 14.69,-11.5 14.119,-11.184C13.55,-10.867 13.45,-12.125 13.45,-12.125C13.167,-12.831 12.577,-12.641 12.577,-12.641C12.329,-12.487 12.417,-11.254 12.429,-11.14C12.441,-11.027 12.228,-10.015 11.714,-11.139C11.506,-11.592 11.317,-11.863 11.165,-12.024C10.968,-12.632 10.723,-13.305 10.436,-13.928L7.215,-20.967L6.885,-21.254L1.66,-32.668C1.66,-32.668 -0.077,-32.032 0,-31.431M7.203,-10.739C7.543,-10.895 7.916,-10.792 8.188,-10.668C8.292,-10.338 8.424,-9.905 8.552,-9.414C8.345,-9.163 8.064,-8.895 7.803,-8.904L7.741,-8.518C7.741,-8.518 8.328,-8.549 8.725,-8.718C8.764,-8.544 8.803,-8.369 8.838,-8.19C7.245,-7.506 7.09,-8.896 7.09,-8.896C7.09,-8.896 6.577,-10.452 7.203,-10.739" style="fill:rgb(35,31,32);fill-rule:nonzero;"/>
        </g>
    </g>
</svg>
