<?xml version="1.0" encoding="UTF-8" standalone="no"?>
<!DOCTYPE svg PUBLIC "-//W3C//DTD SVG 1.1//EN" "http://www.w3.org/Graphics/SVG/1.1/DTD/svg11.dtd">
<svg width="100%" height="100%" viewBox="0 0 1391 1391" version="1.1" xmlns="http://www.w3.org/2000/svg" xmlns:xlink="http://www.w3.org/1999/xlink" xml:space="preserve" xmlns:serif="http://www.serif.com/" style="fill-rule:evenodd;clip-rule:evenodd;stroke-miterlimit:2;">
    <g id="Outer-Border" serif:id="Outer Border" transform="matrix(4.16667,0,0,4.16667,0,-1.67333)">
        <rect x="3.354" y="3.755" width="326.634" height="326.641" style="fill:none;stroke:rgb(35,31,32);stroke-width:3px;"/>
    </g>
    <g id="Grid">
        <g id="Y4">
            <g id="X44" transform="matrix(4.16667,0,0,4.16667,0,-375.45)">
                <rect onmouseover="mouseOverGridSquare(this)" onmouseout="mouseOutGridSquare(this)" onclick="clickGridSquare(this)" x="189.38" y="279.508" width="45" height="45" style="fill:#fff;stroke:rgb(35,31,32);stroke-width:3px;stroke-linecap:round;"/>
            </g>
            <g id="X34" transform="matrix(4.16667,0,0,4.16667,-3.04167,-375.45)">
                <rect onmouseover="mouseOverGridSquare(this)" onmouseout="mouseOutGridSquare(this)" onclick="clickGridSquare(this)" x="145.13" y="279.508" width="45" height="45" style="fill:#fff;stroke:rgb(35,31,32);stroke-width:3px;stroke-linecap:round;"/>
            </g>
            <g id="X24" transform="matrix(4.16667,0,0,4.16667,0,-375.45)">
                <rect onmouseover="mouseOverGridSquare(this)" onmouseout="mouseOutGridSquare(this)" onclick="clickGridSquare(this)" x="99.379" y="279.508" width="45" height="45" style="fill:#fff;stroke:rgb(35,31,32);stroke-width:3px;stroke-linecap:round;"/>
            </g>
            <g id="X14" transform="matrix(4.16667,0,0,4.16667,0,-375.45)">
                <rect onmouseover="mouseOverGridSquare(this)" onmouseout="mouseOutGridSquare(this)" onclick="clickGridSquare(this)" x="54.38" y="279.508" width="45" height="45" style="fill:#fff;stroke:rgb(35,31,32);stroke-width:3px;stroke-linecap:round;"/>
            </g>
            <g id="X04" transform="matrix(4.16667,0,0,4.16667,0,-375.45)">
                <rect onmouseover="mouseOverGridSquare(this)" onmouseout="mouseOutGridSquare(this)" onclick="clickGridSquare(this)" x="9.38" y="279.508" width="45" height="45" style="fill:#fff;stroke:rgb(35,31,32);stroke-width:3px;stroke-linecap:round;"/>
            </g>
        </g>
        <g id="Y3">
            <g id="X43" serif:id="X4" transform="matrix(4.16667,0,0,4.16667,0,-562.95)">
                <rect onmouseover="mouseOverGridSquare(this)" onmouseout="mouseOutGridSquare(this)" onclick="clickGridSquare(this)" x="189.38" y="279.508" width="45" height="45" style="fill:#fff;stroke:rgb(35,31,32);stroke-width:3px;stroke-linecap:round;"/>
            </g>
            <g id="X33" serif:id="X3" transform="matrix(4.16667,0,0,4.16667,-3.04167,-562.95)">
                <rect onmouseover="mouseOverGridSquare(this)" onmouseout="mouseOutGridSquare(this)" onclick="clickGridSquare(this)" x="145.13" y="279.508" width="45" height="45" style="fill:#fff;stroke:rgb(35,31,32);stroke-width:3px;stroke-linecap:round;"/>
            </g>
            <g id="X23" serif:id="X2" transform="matrix(4.16667,0,0,4.16667,0,-562.95)">
                <rect onmouseover="mouseOverGridSquare(this)" onmouseout="mouseOutGridSquare(this)" onclick="clickGridSquare(this)" x="99.379" y="279.508" width="45" height="45" style="fill:#fff;stroke:rgb(35,31,32);stroke-width:3px;stroke-linecap:round;"/>
            </g>
            <g id="X13" serif:id="X1" transform="matrix(4.16667,0,0,4.16667,0,-562.95)">
                <rect onmouseover="mouseOverGridSquare(this)" onmouseout="mouseOutGridSquare(this)" onclick="clickGridSquare(this)" x="54.38" y="279.508" width="45" height="45" style="fill:#fff;stroke:rgb(35,31,32);stroke-width:3px;stroke-linecap:round;"/>
            </g>
            <g id="X03" serif:id="X0" transform="matrix(4.16667,0,0,4.16667,0,-562.95)">
                <rect onmouseover="mouseOverGridSquare(this)" onmouseout="mouseOutGridSquare(this)" onclick="clickGridSquare(this)" x="9.38" y="279.508" width="45" height="45" style="fill:#fff;stroke:rgb(35,31,32);stroke-width:3px;stroke-linecap:round;"/>
            </g>
        </g>
        <g id="Y2">
            <g id="X42" serif:id="X4" transform="matrix(4.16667,0,0,4.16667,0,-750.45)">
                <rect onmouseover="mouseOverGridSquare(this)" onmouseout="mouseOutGridSquare(this)" onclick="clickGridSquare(this)" x="189.38" y="279.508" width="45" height="45" style="fill:#fff;stroke:rgb(35,31,32);stroke-width:3px;stroke-linecap:round;"/>
            </g>
            <g id="X32" serif:id="X3" transform="matrix(4.16667,0,0,4.16667,-3.04167,-750.45)">
                <rect onmouseover="mouseOverGridSquare(this)" onmouseout="mouseOutGridSquare(this)" onclick="clickGridSquare(this)" x="145.13" y="279.508" width="45" height="45" style="fill:#fff;stroke:rgb(35,31,32);stroke-width:3px;stroke-linecap:round;"/>
            </g>
            <g id="X22" serif:id="X2" transform="matrix(4.16667,0,0,4.16667,0,-750.45)">
                <rect onmouseover="mouseOverGridSquare(this)" onmouseout="mouseOutGridSquare(this)" onclick="clickGridSquare(this)" x="99.379" y="279.508" width="45" height="45" style="fill:#fff;stroke:rgb(35,31,32);stroke-width:3px;stroke-linecap:round;"/>
            </g>
            <g id="X12" serif:id="X1" transform="matrix(4.16667,0,0,4.16667,0,-750.45)">
                <rect onmouseover="mouseOverGridSquare(this)" onmouseout="mouseOutGridSquare(this)" onclick="clickGridSquare(this)" x="54.38" y="279.508" width="45" height="45" style="fill:#fff;stroke:rgb(35,31,32);stroke-width:3px;stroke-linecap:round;"/>
            </g>
            <g id="X02" serif:id="X0" transform="matrix(4.16667,0,0,4.16667,0,-750.45)">
                <rect onmouseover="mouseOverGridSquare(this)" onmouseout="mouseOutGridSquare(this)" onclick="clickGridSquare(this)" x="9.38" y="279.508" width="45" height="45" style="fill:#fff;stroke:rgb(35,31,32);stroke-width:3px;stroke-linecap:round;"/>
            </g>
        </g>
        <g id="Y1">
            <g id="X41" serif:id="X4" transform="matrix(4.16667,0,0,4.16667,0,-937.95)">
                <rect onmouseover="mouseOverGridSquare(this)" onmouseout="mouseOutGridSquare(this)" onclick="clickGridSquare(this)" x="189.38" y="279.508" width="45" height="45" style="fill:#fff;stroke:rgb(35,31,32);stroke-width:3px;stroke-linecap:round;"/>
            </g>
            <g id="X31" serif:id="X3" transform="matrix(4.16667,0,0,4.16667,-3.04167,-937.95)">
                <rect onmouseover="mouseOverGridSquare(this)" onmouseout="mouseOutGridSquare(this)" onclick="clickGridSquare(this)" x="145.13" y="279.508" width="45" height="45" style="fill:#fff;stroke:rgb(35,31,32);stroke-width:3px;stroke-linecap:round;"/>
            </g>
            <g id="X21" serif:id="X2" transform="matrix(4.16667,0,0,4.16667,0,-937.95)">
                <rect onmouseover="mouseOverGridSquare(this)" onmouseout="mouseOutGridSquare(this)" onclick="clickGridSquare(this)" x="99.379" y="279.508" width="45" height="45" style="fill:#fff;stroke:rgb(35,31,32);stroke-width:3px;stroke-linecap:round;"/>
            </g>
            <g id="X11" serif:id="X1" transform="matrix(4.16667,0,0,4.16667,0,-937.95)">
                <rect onmouseover="mouseOverGridSquare(this)" onmouseout="mouseOutGridSquare(this)" onclick="clickGridSquare(this)" x="54.38" y="279.508" width="45" height="45" style="fill:#fff;stroke:rgb(35,31,32);stroke-width:3px;stroke-linecap:round;"/>
            </g>
            <g id="X01" serif:id="X0" transform="matrix(4.16667,0,0,4.16667,0,-937.95)">
                <rect onmouseover="mouseOverGridSquare(this)" onmouseout="mouseOutGridSquare(this)" onclick="clickGridSquare(this)" x="9.38" y="279.508" width="45" height="45" style="fill:#fff;stroke:rgb(35,31,32);stroke-width:3px;stroke-linecap:round;"/>
            </g>
        </g>
        <g id="Y0">
            <g id="X40" serif:id="X4" transform="matrix(4.16667,0,0,4.16667,0,-1125.45)">
                <rect onmouseover="mouseOverGridSquare(this)" onmouseout="mouseOutGridSquare(this)" onclick="clickGridSquare(this)" x="189.38" y="279.508" width="45" height="45" style="fill:#fff;stroke:rgb(35,31,32);stroke-width:3px;stroke-linecap:round;"/>
            </g>
            <g id="X30" serif:id="X3" transform="matrix(4.16667,0,0,4.16667,-3.04167,-1125.45)">
                <rect onmouseover="mouseOverGridSquare(this)" onmouseout="mouseOutGridSquare(this)" onclick="clickGridSquare(this)" x="145.13" y="279.508" width="45" height="45" style="fill:#fff;stroke:rgb(35,31,32);stroke-width:3px;stroke-linecap:round;"/>
            </g>
            <g id="X20" serif:id="X2" transform="matrix(4.16667,0,0,4.16667,0,-1125.45)">
                <rect onmouseover="mouseOverGridSquare(this)" onmouseout="mouseOutGridSquare(this)" onclick="clickGridSquare(this)" x="99.379" y="279.508" width="45" height="45" style="fill:#fff;stroke:rgb(35,31,32);stroke-width:3px;stroke-linecap:round;"/>
            </g>
            <g id="X10" serif:id="X1" transform="matrix(4.16667,0,0,4.16667,0,-1125.45)">
                <rect onmouseover="mouseOverGridSquare(this)" onmouseout="mouseOutGridSquare(this)" onclick="clickGridSquare(this)" x="54.38" y="279.508" width="45" height="45" style="fill:#fff;stroke:rgb(35,31,32);stroke-width:3px;stroke-linecap:round;"/>
            </g>
            <g id="X00" serif:id="X0" transform="matrix(4.16667,0,0,4.16667,0,-1125.45)">
                <rect onmouseover="mouseOverGridSquare(this)" onmouseout="mouseOutGridSquare(this)" onclick="clickGridSquare(this)" x="9.38" y="279.508" width="45" height="45" style="fill:#fff;stroke:rgb(35,31,32);stroke-width:3px;stroke-linecap:round;"/>
            </g>
        </g>
    </g>
    <g id="Piece-Graphics" serif:id="Piece Graphics">
        <g id="Piece-Icon" serif:id="Piece Icon" transform="matrix(4.16667,0,0,4.16667,0,-0.448333)">
            <rect x="234.38" y="9.508" width="90" height="315" style="fill:white;fill-opacity:0;stroke:rgb(35,31,32);stroke-width:3px;stroke-linecap:round;"/>
        </g>
        <g id="Piece-Name" serif:id="Piece Name" transform="matrix(4.16667,0,0,4.16667,0,937.052)">
            <rect x="9.38" y="9.508" width="225" height="90" style="fill:white;fill-opacity:0;stroke:rgb(35,31,32);stroke-width:3px;stroke-linecap:round;"/>
        </g>
    </g>
    <g id="Player-Marker" serif:id="Player Marker">
        <g id="Non-Starting-Side" serif:id="Non Starting Side" transform="matrix(4.16667,0,0,4.16667,0,-375.45)">
            <path d="M109.902,231.169L113.06,223.714L115.557,223.714C114.983,222.973 114.638,222.063 114.638,221.069L114.638,207.33C114.638,205.753 115.494,204.371 116.773,203.584C115.324,202.448 114.373,200.726 114.373,198.773C114.373,195.366 117.206,192.601 120.689,192.601C124.178,192.601 127.005,195.366 127.005,198.773C127.005,200.726 126.054,202.448 124.605,203.584C125.884,204.371 126.74,205.753 126.74,207.33L126.74,221.069C126.74,222.063 126.395,222.973 125.827,223.714L128.325,223.714L131.483,231.169L109.902,231.169ZM99.379,234.508L144.38,234.508L144.38,189.508L99.379,189.508L99.379,234.508Z" style="fill:rgb(35,31,32);fill-rule:nonzero;"/>
        </g>
        <g id="Starting-Side" serif:id="Starting Side" transform="matrix(4.16667,0,0,4.16667,0,-375.45)">
            <path d="M99.379,189.508L99.379,234.508L144.38,234.508L144.38,189.508L144.38,234.508L99.379,234.508L99.379,189.508ZM109.902,231.169L113.06,223.714L115.557,223.714C114.983,222.973 114.638,222.063 114.638,221.069L114.638,207.33C114.638,205.753 115.494,204.371 116.773,203.584C115.324,202.448 114.373,200.726 114.373,198.773C114.373,195.366 117.206,192.601 120.689,192.601C124.178,192.601 127.005,195.366 127.005,198.773C127.005,200.726 126.054,202.448 124.605,203.584C125.884,204.371 126.74,205.753 126.74,207.33L126.74,221.069C126.74,222.063 126.395,222.973 125.827,223.714L128.325,223.714L131.483,231.169L109.902,231.169Z" style="fill:rgb(35,31,32);fill-rule:nonzero;"/>
        </g>
    </g>
</svg>
